<svg width="100" height="100" viewBox="0 0 100 100" fill="none" xmlns="http://www.w3.org/2000/svg">
<circle cx="50" cy="50" r="50" fill="white"/>
<path d="M60.4141 19H35V59H38V57H37V21H59V29H67V57H65V59H69V27.5859L60.4141 19ZM61 27V22.4141L65.5859 27H61Z" fill="black"/>
<path d="M51 43.1841C49.8389 43.5981 49 44.6982 49 46V48H51V46C51 45.4482 51.4492 45 52 45C52.5508 45 53 45.4482 53 46V48H55V46C55 44.6982 54.1611 43.5981 53 43.1841V41H62V53H64V39H51V43.1841Z" fill="black"/>
<path d="M39 40H49V42H39V40Z" fill="black"/>
<path d="M39 23H41V25H39V23Z" fill="black"/>
<path d="M43 23H57V25H43V23Z" fill="black"/>
<path d="M39 27H41V29H39V27Z" fill="black"/>
<path d="M43 27H57V29H43V27Z" fill="black"/>
<path d="M39 31H41V33H39V31Z" fill="black"/>
<path d="M43 31H57V33H43V31Z" fill="black"/>
<path d="M39 35H64V37H39V35Z" fill="black"/>
<path d="M39 44H47V46H39V44Z" fill="black"/>
<path d="M52 77C43.729 77 37 70.271 37 62C37 53.729 43.729 47 52 47C60.271 47 67 53.729 67 62C67 70.271 60.271 77 52 77Z" fill="#6DCAAB"/>
<path d="M53 70.937V69H51V70.9409C46.8359 70.478 43.522 67.165 43.0591 63H45V61H43.063C43.2559 59.2861 43.9341 57.6479 45.0322 56.3071L43.4839 55.0391C41.8818 56.9971 41 59.4692 41 62C41 68.0649 45.9351 73 52 73C54.5308 73 57.0029 72.1172 58.9609 70.5151L57.6938 68.9678C56.3521 70.0659 54.7139 70.7441 53 70.937Z" fill="black"/>
<path d="M52 51C49.4692 51 46.9971 51.8828 45.0391 53.4849L46.3062 55.0322C47.6479 53.9341 49.2871 53.2559 51 53.063V55H53V53.0591C57.1641 53.522 60.478 56.835 60.9409 61H59V63H60.937C60.7441 64.7139 60.0659 66.3521 58.9678 67.6929L60.5161 68.9609C62.1182 67.0029 63 64.5308 63 62C63 55.9351 58.0649 51 52 51Z" fill="black"/>
<path d="M55 63H51V57H53V61H55V63Z" fill="black"/>
<path d="M68 81H36V80C36 77.2432 38.2432 75 41 75H63C65.7568 75 68 77.2432 68 80V81ZM38.1709 79H65.8281C65.415 77.8359 64.3032 77 62.999 77H41C39.6958 77 38.584 77.8359 38.1709 79Z" fill="black"/>
<path d="M76 81C74.3462 81 73 79.6538 73 78V61.2959C71.6899 59.229 71 56.8491 71 54.395V52.708C71 48.189 73.5112 44.127 77.5532 42.105L79 41.3818V78C79 79.6538 77.6538 81 76 81ZM77 44.7778C74.499 46.6152 73 49.5249 73 52.708V54.395C73 56.5562 73.6328 58.6479 74.832 60.4458L75 60.6968V78C75 78.5518 75.4492 79 76 79C76.5508 79 77 78.5518 77 78V44.7778Z" fill="black"/>
<path d="M26 43H28V52H26V43Z" fill="black"/>
<path d="M27 81C25.3462 81 24 79.6538 24 78V58.0708C24 57.0029 23.584 55.998 22.8281 55.2422L22.7622 55.1768C21.624 54.0371 21 52.5298 21 50.9292V43H23V50.9292C23 51.9971 23.416 53.002 24.1719 53.7578L24.2378 53.8232C25.376 54.9629 26 56.4702 26 58.0708V78C26 78.5518 26.4492 79 27 79C27.5508 79 28 78.5518 28 78V58.0708C28 56.4692 28.624 54.9629 29.7568 53.8281L29.834 53.7529C30.584 53.002 31 51.9971 31 50.9292V43H33V50.9292C33 52.5308 32.376 54.0371 31.2432 55.1719L31.166 55.2471C30.416 55.998 30 57.0029 30 58.0708V78C30 79.6538 28.6538 81 27 81Z" fill="black"/>
</svg>
