<svg width="100" height="100" viewBox="0 0 100 100" fill="none" xmlns="http://www.w3.org/2000/svg">
<circle cx="50" cy="50" r="50" fill="white"/>
<path d="M60 51H80V73H60V51Z" fill="#6DCAAB"/>
<path d="M20 51H40V73H20V51Z" fill="#6DCAAB"/>
<path d="M29 21H41V34H29V21Z" fill="#6DCAAB"/>
<path d="M72.96 61.666C73.6 60.957 74 60.028 74 59C74 56.794 72.206 55 70 55C67.794 55 66 56.794 66 59C66 60.028 66.4 60.957 67.04 61.666C64.658 62.784 63 65.199 63 68V69H77V68C77 65.199 75.342 62.784 72.96 61.666ZM68 59C68 57.897 68.897 57 70 57C71.103 57 72 57.897 72 59C72 60.103 71.103 61 70 61C68.897 61 68 60.103 68 59ZM65.101 67C65.566 64.721 67.585 63 70 63C72.415 63 74.435 64.721 74.899 67H65.101Z" fill="black"/>
<path d="M76 45H69V43H70C71.654 43 73 41.654 73 40V28C73 26.346 71.654 25 70 25H57V20C57 18.346 55.654 17 54 17H28C26.346 17 25 18.346 25 20V45H24C21.243 45 19 47.243 19 50V74C19 76.757 21.243 79 24 79H36C38.757 79 41 76.757 41 74V50C41 47.243 38.757 45 36 45H31.618L34.618 39H43V40C43 41.654 44.346 43 46 43H59.586L62.006 45.42C60.24 46.193 59 47.952 59 50V74C59 76.757 61.243 79 64 79H76C78.757 79 81 76.757 81 74V50C81 47.243 78.757 45 76 45ZM36 47C37.654 47 39 48.346 39 50V74C39 75.654 37.654 77 36 77H24C22.346 77 21 75.654 21 74V50C21 48.346 22.346 47 24 47H25.145C25.511 48.155 26.58 49 27.854 49C28.941 49 29.919 48.396 30.407 47.422L30.618 47H36ZM33.382 37L28.618 46.527C28.473 46.819 28.18 47 27.854 47C27.384 47 27 46.617 27 46.146V20C27 19.449 27.448 19 28 19H54C54.552 19 55 19.449 55 20V25H46C44.346 25 43 26.346 43 28V37H33.382ZM46 41C45.448 41 45 40.551 45 40V28C45 27.449 45.448 27 46 27H70C70.552 27 71 27.449 71 28V40C71 40.551 70.552 41 70 41H67V46.586C67 46.924 66.531 47.117 66.293 46.879L60.414 41H46ZM79 74C79 75.654 77.654 77 76 77H64C62.346 77 61 75.654 61 74V50C61 48.475 62.148 47.226 63.624 47.038L64.878 48.292C65.327 48.742 65.949 49 66.586 49C67.775 49 68.76 48.134 68.958 47H76C77.654 47 79 48.346 79 50V74Z" fill="black"/>
<path d="M26 59C26 60.028 26.4 60.957 27.04 61.666C24.658 62.784 23 65.199 23 68V69H37V68C37 65.199 35.342 62.784 32.96 61.666C33.6 60.957 34 60.028 34 59C34 56.794 32.206 55 30 55C27.794 55 26 56.794 26 59ZM34.899 67H25.101C25.566 64.721 27.585 63 30 63C32.415 63 34.435 64.721 34.899 67ZM32 59C32 60.103 31.103 61 30 61C28.897 61 28 60.103 28 59C28 57.897 28.897 57 30 57C31.103 57 32 57.897 32 59Z" fill="black"/>
<path d="M50 31C48.346 31 47 32.346 47 34C47 35.654 48.346 37 50 37C51.654 37 53 35.654 53 34C53 32.346 51.654 31 50 31ZM50 35C49.448 35 49 34.551 49 34C49 33.449 49.448 33 50 33C50.552 33 51 33.449 51 34C51 34.551 50.552 35 50 35Z" fill="black"/>
<path d="M58 31C56.346 31 55 32.346 55 34C55 35.654 56.346 37 58 37C59.654 37 61 35.654 61 34C61 32.346 59.654 31 58 31ZM58 35C57.448 35 57 34.551 57 34C57 33.449 57.448 33 58 33C58.552 33 59 33.449 59 34C59 34.551 58.552 35 58 35Z" fill="black"/>
<path d="M69 34C69 32.346 67.654 31 66 31C64.346 31 63 32.346 63 34C63 35.654 64.346 37 66 37C67.654 37 69 35.654 69 34ZM66 35C65.448 35 65 34.551 65 34C65 33.449 65.448 33 66 33C66.552 33 67 33.449 67 34C67 34.551 66.552 35 66 35Z" fill="black"/>
<path d="M29 21H31V23H29V21Z" fill="black"/>
<path d="M33 21H53V23H33V21Z" fill="black"/>
<path d="M29 25H41V27H29V25Z" fill="black"/>
<path d="M29 29H41V31H29V29Z" fill="black"/>
<path d="M29 33H41V35H29V33Z" fill="black"/>
<path d="M48.2929 67.707L49.7069 66.293L48.4139 65H56.9999V63H43.5859L48.2929 67.707Z" fill="black"/>
<path d="M43 61H56.414L51.707 56.293L50.293 57.707L51.586 59H43V61Z" fill="black"/>
</svg>
