<svg width="100" height="100" viewBox="0 0 100 100" fill="none" xmlns="http://www.w3.org/2000/svg">
<circle cx="50" cy="50" r="50" fill="white"/>
<path d="M73.9257 60.897C73.9153 60.7855 73.8955 60.6772 73.8809 60.5667C73.859 60.4052 73.8382 60.2447 73.8069 60.0842C73.7788 59.9373 73.7434 59.7935 73.7079 59.6486C73.6808 59.5361 73.6537 59.4245 73.6214 59.313C73.5714 59.138 73.5141 58.9671 73.4547 58.7972C73.4401 58.7555 73.4297 58.7128 73.4141 58.6711C75.0991 57.011 76.0527 54.7528 76.0527 52.3632C76.0527 48.4022 73.4078 44.9393 69.6614 43.8565C68.8184 38.3427 63.983 34.1263 58.3368 34.1263C57.9554 34.1263 57.5782 34.1461 57.2072 34.1826L57.4125 36.2564C57.7168 36.2262 58.0242 36.2106 58.3368 36.2106C63.1639 36.2106 67.2656 39.9767 67.6752 44.7861L67.7408 45.5687L68.5109 45.7208C71.6737 46.343 73.9685 49.1358 73.9685 52.3632C73.9685 53.9702 73.3974 55.4927 72.3855 56.7015C70.7838 54.3985 68.1222 52.8843 65.1105 52.8843V54.9685C67.8106 54.9685 70.1408 56.5608 71.2277 58.8524C71.3298 59.0681 71.4195 59.288 71.4987 59.509C71.5049 59.5267 71.5122 59.5444 71.5185 59.5621C71.5883 59.7653 71.6456 59.9717 71.6956 60.179C71.704 60.2155 71.7154 60.252 71.7238 60.2895C71.7665 60.4823 71.7967 60.6772 71.8228 60.872C71.829 60.92 71.8394 60.9669 71.8446 61.0159C71.8696 61.2566 71.8842 61.4983 71.8842 61.7422C71.8842 65.4771 68.8454 68.5159 65.1105 68.5159C63.5932 68.5159 62.1541 68.0188 60.9494 67.0788L60.5221 66.7454C59.1278 65.4698 58.3149 63.6524 58.3149 61.7422H56.2307C56.2307 64.1411 57.2207 66.4202 58.9142 68.0751C57.6334 69.6695 55.7222 70.6001 53.6473 70.6001C51.0598 70.6001 48.7348 69.1537 47.5823 66.8246L46.9403 65.5292L45.9139 66.5494C44.6362 67.8166 42.9418 68.5159 41.142 68.5159C40.3177 68.5159 39.5195 68.3512 38.7619 68.0636C41.1379 66.4734 42.7052 63.767 42.7052 60.7001C42.7052 60.4781 42.676 60.2624 42.6604 60.0436C44.3184 59.7559 45.868 59.0056 47.1258 57.852L45.7169 56.3149C44.7457 57.2049 43.5493 57.7801 42.2675 57.9948C41.5704 55.8189 40.0614 53.9587 37.9688 52.8561L36.9976 54.7007C39.2329 55.8793 40.621 58.1771 40.621 60.7001C40.621 63.6242 38.7546 66.1138 36.1535 67.0611C35.7867 67.1935 35.4146 67.2935 35.0405 67.3623C35.0155 67.3665 34.9905 67.3696 34.9655 67.3737C34.5934 67.4373 34.2204 67.4738 33.8473 67.4738C30.1124 67.4738 27.0736 64.435 27.0736 60.7001C27.0736 59.6976 27.2956 58.7232 27.7332 57.8009L28.0188 57.2007L27.5936 56.689C26.5859 55.475 26.0315 53.9399 26.0315 52.3632C26.0315 49.1473 28.3168 46.3544 31.465 45.7229L32.2643 45.5635L32.3018 44.7506C32.4707 41.1303 35.4376 38.2948 39.0578 38.2948C39.8717 38.2948 40.6825 38.4459 41.4661 38.7439L42.2623 39.0461L42.7177 38.3281C43.0647 37.78 43.4868 37.285 43.9724 36.8567L42.5947 35.2935C42.1664 35.6707 41.7757 36.0886 41.4286 36.5388C40.6502 36.32 39.8571 36.2106 39.0578 36.2106C34.5872 36.2106 30.8762 39.5161 30.2906 43.869C26.5723 44.9684 23.9473 48.423 23.9473 52.3632C23.9473 54.2078 24.5277 56.0096 25.5928 57.5039C25.1915 58.5283 24.9894 59.6007 24.9894 60.7001C24.9894 65.5844 28.9629 69.558 33.8473 69.558C34.2423 69.558 34.6289 69.5226 35.0103 69.4725C35.0822 69.4632 35.1541 69.4507 35.226 69.4392C35.6116 69.3788 35.9909 69.2985 36.3598 69.1891C37.7927 70.1145 39.434 70.6001 41.142 70.6001C43.0522 70.6001 44.8718 69.9988 46.3818 68.8848C48.0241 71.2566 50.7055 72.6843 53.6473 72.6843C56.3798 72.6843 58.8964 71.4526 60.5701 69.3423C61.9404 70.1687 63.4901 70.6001 65.1105 70.6001C69.9949 70.6001 73.9685 66.6266 73.9685 61.7422C73.9685 61.4587 73.9528 61.1774 73.9257 60.897Z" fill="#333333"/>
<path d="M51.0422 15.3684H48.958V19.5368H51.0422V15.3684Z" fill="#333333"/>
<path d="M55.2106 42.4631H44.7895V38.7897C42.2041 37.0567 40.6211 34.1252 40.6211 30.9999C40.6211 25.828 44.8281 21.621 50.0001 21.621C55.172 21.621 59.379 25.828 59.379 30.9999C59.379 34.1252 57.7961 37.0567 55.2106 38.7897V42.4631Z" fill="#6DCAAB"/>
<path d="M43.3665 21.5942L45.1714 20.5521L43.0872 16.9424L41.2823 17.9845L43.3665 21.5942Z" fill="#333333"/>
<path d="M39.5512 26.1678L40.5933 24.3629L36.9835 22.2788L35.9414 24.0837L39.5512 26.1678Z" fill="#333333"/>
<path d="M45.3103 40.3789C43.8733 40.3789 42.7051 41.5472 42.7051 42.9842C42.7051 43.9117 43.1949 44.7204 43.9254 45.1831C43.8149 45.4717 43.7472 45.7823 43.7472 46.1105C43.7472 47.5476 44.9154 48.7158 46.3525 48.7158H53.6472C55.0843 48.7158 56.2525 47.5476 56.2525 46.1105C56.2525 45.7823 56.1847 45.4717 56.0743 45.1831C56.8048 44.7204 57.2946 43.9117 57.2946 42.9842C57.2946 41.5472 56.1264 40.3789 54.6893 40.3789H51.0419V33.9346C52.2518 33.5031 53.1262 32.3568 53.1262 31C53.1262 29.2763 51.7235 27.8737 49.9998 27.8737C48.2762 27.8737 46.8735 29.2763 46.8735 31C46.8735 32.3568 47.7478 33.5031 48.9577 33.9346V40.3789H45.3103ZM49.9998 29.9579C50.5751 29.9579 51.0419 30.4247 51.0419 31C51.0419 31.5752 50.5751 32.0421 49.9998 32.0421C49.4246 32.0421 48.9577 31.5752 48.9577 31C48.9577 30.4247 49.4246 29.9579 49.9998 29.9579ZM53.6472 46.6316H46.3525C46.0659 46.6316 45.8314 46.3971 45.8314 46.1105C45.8314 45.824 46.0659 45.5895 46.3525 45.5895H53.6472C53.9338 45.5895 54.1683 45.824 54.1683 46.1105C54.1683 46.3971 53.9338 46.6316 53.6472 46.6316ZM55.2104 42.9842C55.2104 43.2708 54.9759 43.5053 54.6893 43.5053H53.6472H46.3525H45.3103C45.0238 43.5053 44.7893 43.2708 44.7893 42.9842C44.7893 42.6976 45.0238 42.4632 45.3103 42.4632H54.6893C54.9759 42.4632 55.2104 42.6976 55.2104 42.9842Z" fill="#333333"/>
<path d="M38.5366 29.9579H34.3682V32.0421H38.5366V29.9579Z" fill="#333333"/>
<path d="M65.6318 29.9579H61.4634V32.0421H65.6318V29.9579Z" fill="#333333"/>
<path d="M60.4498 26.1691L64.0601 24.0853L63.0182 22.2802L59.4079 24.364L60.4498 26.1691Z" fill="#333333"/>
<path d="M56.6335 21.5982L58.7173 17.9879L56.9121 16.946L54.8283 20.5563L56.6335 21.5982Z" fill="#333333"/>
<path d="M20.821 71.6422H23.5159L18 77.1581L19.4735 78.6316L24.9894 73.1157V75.8106H27.0736V69.558H20.821V71.6422Z" fill="#333333"/>
<path d="M79.1789 71.6422V69.558H72.9263V75.8106H75.0105V73.1157L80.5264 78.6316L81.9999 77.1581L76.484 71.6422H79.1789Z" fill="#333333"/>
<path d="M20.821 40.3789V42.4632H27.0736V36.2105H24.9894V38.9054L19.4735 33.3895L18 34.8631L23.5159 40.3789H20.821Z" fill="#333333"/>
<path d="M79.1789 40.3789H76.484L81.9999 34.8631L80.5264 33.3895L75.0105 38.9054V36.2105H72.9263V42.4632H79.1789V40.3789Z" fill="#333333"/>
</svg>
