<svg width="100" height="100" viewBox="0 0 100 100" fill="none" xmlns="http://www.w3.org/2000/svg">
<circle cx="50" cy="50" r="50" fill="white"/>
<path d="M69.484 54.9032C63.6147 54.9032 58.8389 50.1274 58.8389 44.2581C58.8389 38.3888 63.6147 33.6129 69.484 33.6129C75.3533 33.6129 80.1292 38.3888 80.1292 44.2581C80.1292 50.1274 75.3533 54.9032 69.484 54.9032Z" fill="#6DCAAB"/>
<path d="M70.4516 77.1612C70.4516 77.6957 70.0183 78.129 69.4839 78.129C68.9494 78.129 68.5161 77.6957 68.5161 77.1612C68.5161 76.6268 68.9494 76.1935 69.4839 76.1935C70.0183 76.1935 70.4516 76.6268 70.4516 77.1612Z" fill="black"/>
<path d="M43.355 70.3871H27.8711V56.8387H43.355V70.3871Z" fill="#6DCAAB"/>
<path d="M43.355 52.0001H27.8711V38.4517H43.355V52.0001Z" fill="#6DCAAB"/>
<path d="M84 44.2581C84 36.5799 78.005 30.2924 70.4516 29.7911V22H24V74.2581H64.6452V77.1613C64.6452 79.8292 66.816 82 69.4839 82C72.1518 82 74.3226 79.8292 74.3226 77.1613V62.6452H72.3871V58.4822C79.0044 57.1331 84 51.2685 84 44.2581ZM82.0645 44.2581C82.0645 51.1948 76.4206 56.8387 69.4839 56.8387C62.5471 56.8387 56.9032 51.1948 56.9032 44.2581C56.9032 37.3213 62.5471 31.6774 69.4839 31.6774C76.4206 31.6774 82.0645 37.3213 82.0645 44.2581ZM64.6452 62.6452V72.3226H25.9355V23.9355H68.5161V29.7911C60.9627 30.2924 54.9677 36.5799 54.9677 44.2581C54.9677 51.2685 59.9633 57.1331 66.5806 58.4822V62.6452H64.6452ZM72.3871 77.1613C72.3871 78.7617 71.0843 80.0645 69.4839 80.0645C67.8834 80.0645 66.5806 78.7617 66.5806 77.1613V64.5806H72.3871V77.1613ZM70.4516 62.6452H68.5161V58.725C68.8374 58.7463 69.1569 58.7742 69.4839 58.7742C69.8109 58.7742 70.1303 58.7463 70.4516 58.725V62.6452Z" fill="black"/>
<path d="M66.1502 46.356L65.0757 47.9664L68.8918 50.5096L74.221 39.8517L72.4887 38.9869L68.1405 47.6839L66.1502 46.356Z" fill="black"/>
<path d="M35.275 63.8421L33.3938 61.9609L32.0254 63.3294L35.9507 67.2547L41.3446 54.3078L39.5585 53.5631L35.275 63.8421Z" fill="black"/>
<path d="M35.275 45.455L33.3938 43.5738L32.0254 44.9423L35.9507 48.8676L41.3446 35.9207L39.5585 35.176L35.275 45.455Z" fill="black"/>
<path d="M51.0967 29.7419H53.0322V31.6774H51.0967V29.7419Z" fill="black"/>
<path d="M27.8711 29.7419H49.1614V31.6774H27.8711V29.7419Z" fill="black"/>
<path d="M45.2905 56.8387H56.9034V58.7742H45.2905V56.8387Z" fill="black"/>
<path d="M45.2905 60.7097H56.9034V62.6452H45.2905V60.7097Z" fill="black"/>
<path d="M45.2905 64.5807H56.9034V66.5162H45.2905V64.5807Z" fill="black"/>
<path d="M45.2905 68.4517H56.9034V70.3871H45.2905V68.4517Z" fill="black"/>
<path d="M45.2905 38.4517H53.0325V40.3871H45.2905V38.4517Z" fill="black"/>
<path d="M45.2905 42.3226H53.0325V44.2581H45.2905V42.3226Z" fill="black"/>
<path d="M45.2905 46.1936H53.0325V48.1291H45.2905V46.1936Z" fill="black"/>
<path d="M45.2905 50.0646H53.0325V52.0001H45.2905V50.0646Z" fill="black"/>
<path d="M27.8711 25.871H53.0324V27.8065H27.8711V25.871Z" fill="black"/>
</svg>
