<svg width="100" height="100" viewBox="0 0 100 100" fill="none" xmlns="http://www.w3.org/2000/svg">
<circle cx="50" cy="50" r="50" fill="white"/>
<path d="M31 39V48V55H41V48H53V39H31Z" fill="#6DCAAB"/>
<path d="M79.346 45H79V24C79 22.897 78.103 22 77 22H23C21.897 22 21 22.897 21 24V62C21 63.103 21.897 64 23 64H57.842L58.136 64.504L59.865 63.496L53.148 51.981L55.283 48.04L63.137 61.503L64.866 60.495L60.492 53H69V51H59.325L56.992 47H77.009L74.676 51H71V53H73.508L69.135 60.496L70.864 61.504L78.718 48.041L80.853 51.982L74.136 63.497L75.865 64.505L83.148 52.02L79.346 45ZM23 62V24H77V45H75V26H25V60H55.508L56.675 62H23ZM54.342 58H27V28H73V45H54.654L50.852 52.019L54.342 58Z" fill="black"/>
<path d="M55 30H29V36H55V30ZM53 34H31V32H53V34Z" fill="black"/>
<path d="M53 38H31V40H53V38Z" fill="black"/>
<path d="M51 46H31V48H51V46Z" fill="black"/>
<path d="M41 42H31V44H41V42Z" fill="black"/>
<path d="M41 50H31V52H41V50Z" fill="black"/>
<path d="M41 54H31V56H41V54Z" fill="black"/>
<path d="M53 42H43V44H53V42Z" fill="black"/>
<path d="M67.978 42.476L64 41.062L60.022 42.476L60.136 38.255L57.562 34.908L61.612 33.715L64 30.231L66.388 33.714L70.438 34.907L67.864 38.254L67.978 42.476Z" fill="#6DCAAB"/>
<path d="M67 84C60.383 84 55 78.617 55 72C55 65.383 60.383 60 67 60C73.617 60 79 65.383 79 72C79 78.617 73.617 84 67 84ZM67 65C63.14 65 60 68.14 60 72C60 75.86 63.14 79 67 79C70.86 79 74 75.86 74 72C74 68.14 70.86 65 67 65Z" fill="#6DCAAB"/>
<path d="M73.4009 76.786L71.7999 75.587C72.5849 74.538 72.9999 73.298 72.9999 72C72.9999 68.691 70.3089 66 66.9999 66C65.7019 66 64.4619 66.415 63.4129 67.2L62.2139 65.598C63.6109 64.553 65.2669 64 66.9999 64C71.4109 64 74.9999 67.589 74.9999 72C74.9999 73.733 74.4469 75.389 73.4009 76.786Z" fill="black"/>
<path d="M67 80C62.589 80 59 76.411 59 72C59 70.267 59.553 68.611 60.599 67.214L62.201 68.413C61.415 69.462 61 70.702 61 72C61 75.309 63.691 78 67 78C68.298 78 69.538 77.585 70.587 76.8L71.786 78.402C70.389 79.447 68.733 80 67 80Z" fill="black"/>
</svg>
