<svg width="100" height="100" viewBox="0 0 100 100" fill="none" xmlns="http://www.w3.org/2000/svg">
<circle cx="50" cy="50" r="50" fill="white"/>
<path d="M28 39H25V78H28V39Z" fill="#6DCAAB"/>
<path d="M34 45H31V78H34V45Z" fill="#6DCAAB"/>
<path d="M40 51H37V78H40V51Z" fill="#6DCAAB"/>
<path d="M46 57H43V78H46V57Z" fill="#6DCAAB"/>
<path d="M52 64H49V78H52V64Z" fill="#6DCAAB"/>
<path d="M58 70H55V78H58V70Z" fill="#6DCAAB"/>
<path d="M63 57C67.9706 57 72 52.9706 72 48C72 43.0294 67.9706 39 63 39C58.0294 39 54 43.0294 54 48C54 52.9706 58.0294 57 63 57Z" fill="#6DCAAB"/>
<path d="M63 51C62.449 51 62 50.551 62 50H60C60 51.302 60.839 52.402 62 52.816V55H64V52.816C65.161 52.402 66 51.302 66 50C66 48.346 64.654 47 63 47C62.449 47 62 46.551 62 46C62 45.449 62.449 45 63 45C63.551 45 64 45.449 64 46H66C66 44.698 65.161 43.598 64 43.184V41H62V43.184C60.839 43.598 60 44.698 60 46C60 47.654 61.346 49 63 49C63.551 49 64 49.449 64 50C64 50.551 63.551 51 63 51Z" fill="black"/>
<path d="M62.954 60.998C62.969 60.998 62.984 61 63 61C70.168 61 76 55.168 76 47.971C76 44.498 74.648 41.234 72.192 38.779L69.601 36.188C69.848 35.854 70 35.446 70 35V33C70 32.203 69.528 31.519 68.852 31.198L73.2 25.4C73.716 24.713 74 23.86 74 23C74 20.794 72.206 19 70 19C68.671 19 67.964 19.807 67.496 20.341C67.06 20.839 66.887 21 66.497 21C66.107 21 65.934 20.839 65.498 20.341C65.03 19.807 64.323 19 62.994 19C61.665 19 60.959 19.808 60.492 20.342C60.058 20.839 59.884 21 59.497 21C59.11 21 58.936 20.839 58.501 20.342C58.034 19.808 57.328 19 56 19C53.794 19 52 20.794 52 23C52 23.86 52.284 24.713 52.8 25.4L57.148 31.198C56.472 31.519 56 32.203 56 33V35C56 35.446 56.152 35.854 56.399 36.187L53.808 38.778C51.477 41.109 50.155 44.172 50.026 47.472L35.411 33H24V79H62V77H56V66.912L65.603 76.983L61.586 81H76V66.586L72.02 70.566L62.954 60.998ZM54 23C54 21.897 54.897 21 56 21C56.387 21 56.561 21.161 56.995 21.658C57.462 22.192 58.168 23 59.497 23C60.825 23 61.531 22.192 61.998 21.658C62.433 21.161 62.606 21 62.994 21C63.384 21 63.557 21.161 63.993 21.659C64.461 22.193 65.168 23 66.497 23C67.826 23 68.533 22.193 69.001 21.659C69.437 21.161 69.61 21 70 21C71.103 21 72 21.897 72 23C72 23.43 71.858 23.856 71.6 24.2L66.5 31H65.326L66.962 25.275L65.039 24.725L63.246 31H62.755L60.962 24.725L59.039 25.275L60.674 31H59.5L54.4 24.199C54.142 23.856 54 23.43 54 23ZM55.222 40.192L58.414 37H60V35H58V33H68V35H62V37H67.586L70.778 40.192C72.856 42.27 74 45.032 74 48C74 54.065 69.065 59 63 59C56.935 59 52 54.065 52 47.971C52 45.032 53.144 42.27 55.222 40.192ZM26 35.449L30 39.644V77H26V35.449ZM48 58.522V77H44V54.327L48 58.522ZM42 77H38V48.034L42 52.229V77ZM36 77H32V41.742L36 45.937V77ZM54 77H50V60.62L54 64.815V77ZM74 79H66.414L68.397 77.017L28.335 35H34.589L50.248 50.507C51.215 55.436 54.978 59.362 59.811 60.588L71.981 73.434L74.001 71.414V79H74Z" fill="black"/>
</svg>
