<svg width="100" height="100" viewBox="0 0 100 100" fill="none" xmlns="http://www.w3.org/2000/svg">
<circle cx="50" cy="50" r="50" fill="white"/>
<path d="M64.999 70.9251L64.632 71.0701C41.505 80.2091 25.8 67.3651 25.644 67.2341L25.428 67.0531L25.098 67.0031C25.034 68.8951 25 70.8861 25 73.0001C25 73.0001 32 80.0001 47 80.0001C56.763 80.0001 62.975 78.4241 66.871 76.6711C66.115 74.8271 65.498 72.9011 64.999 70.9251Z" fill="#6DCAAB"/>
<path d="M45 67C37.28 67 31 60.72 31 53C31 45.28 37.28 39 45 39C52.72 39 59 45.28 59 53C59 60.72 52.72 67 45 67Z" fill="#6DCAAB"/>
<path d="M67 29.8V23C67 20.794 65.206 19 63 19C61.8 19 60.734 19.542 60 20.382C59.266 19.542 58.2 19 57 19C55.499 19 54.204 19.841 53.52 21.067C52.419 19.803 50.803 19 49 19C47.197 19 45.581 19.803 44.48 21.067C43.796 19.841 42.501 19 41 19C39.8 19 38.734 19.542 38 20.382C37.266 19.542 36.2 19 35 19C32.794 19 31 20.794 31 23V29.852L30.214 32.508C26.88 43.727 24 53.416 24 73V73.414L24.293 73.707C24.591 74.005 31.761 81 47 81C69.361 81 73.72 72.797 73.895 72.447L74 72.236V72C74 47.619 67.792 31.725 67 29.8ZM65.431 38.352L66.998 64.984L66.352 72.085C63.056 60.541 64.166 46.852 65.431 38.352ZM68.981 64.653L67.362 37.128C69.24 43.642 71.641 54.614 71.961 68.825L68.981 64.653ZM63 21C64.103 21 65 21.897 65 23V29H61V25V23C61 21.897 61.897 21 63 21ZM55 23C55 21.897 55.897 21 57 21C58.103 21 59 21.897 59 23V25V29H55V25V23ZM49 21C51.206 21 53 22.794 53 25V29H45V25C45 22.794 46.794 21 49 21ZM41 21C42.103 21 43 21.897 43 23V25V29H39V25V23C39 21.897 39.897 21 41 21ZM35 21C36.103 21 37 21.897 37 23V25V29H33V23C33 21.897 33.897 21 35 21ZM26 72.556C26.041 53.566 28.731 44.515 32.131 33.078L32.747 31H64.722C64.192 33.434 63.052 39.223 62.491 46.296C61.831 54.608 61.875 66.378 65.596 76.151C61.805 77.679 55.945 79 47 79C34.295 79 27.451 73.797 26 72.556ZM68.099 74.964L68.753 67.774L71.787 72.022C71.31 72.637 70.224 73.778 68.099 74.964Z" fill="black"/>
<path d="M51 44.764L50.105 46.553C49.864 47.035 49.595 47.465 49.314 47.872C47.949 44.803 45.669 43.245 45.554 43.168L45 42.798L44.445 43.168C44.331 43.244 42.05 44.803 40.685 47.872C40.404 47.465 40.135 47.035 39.894 46.553L39 44.764L38.105 46.553C38.02 46.725 36 50.801 36 54C36 59.634 39.559 63 43 63C43.73 63 44.397 62.906 45.003 62.75C45.614 62.906 46.277 63 47 63C50.441 63 54 59.634 54 54C54 50.801 51.98 46.725 51.895 46.553L51 44.764ZM45.003 45.278C45.769 45.955 47.124 47.412 47.841 49.623C46.969 50.475 46.042 51.154 45.174 51.789C45.115 51.833 45.059 51.874 45 51.917C44.941 51.874 44.886 51.832 44.826 51.789C43.957 51.155 43.03 50.475 42.159 49.623C42.874 47.426 44.237 45.96 45.003 45.278ZM38 54C38 52.44 38.615 50.531 39.144 49.177C40.534 51.132 42.227 52.368 43.646 53.405C43.903 53.593 44.155 53.777 44.401 53.962C46.125 55.248 47 56.227 47 58C47 58.354 46.89 60.15 44.709 60.773C44.214 60.924 43.639 61 43 61C40.542 61 38 58.382 38 54ZM48.038 60.84C48.711 59.935 49 58.891 49 58C49 55.727 47.936 54.322 46.639 53.195C47.997 52.2 49.558 51.004 50.857 49.176C51.386 50.529 52 52.437 52 54C52 57.763 50.124 60.22 48.038 60.84Z" fill="black"/>
</svg>
