<svg width="26" height="32" viewBox="0 0 26 32" fill="none" xmlns="http://www.w3.org/2000/svg">
<path d="M21.4061 16.7469C21.3711 12.8786 24.5951 10.9966 24.7425 10.909C22.9166 8.26487 20.0866 7.9036 19.0921 7.8748C16.7152 7.62635 14.4096 9.28747 13.1988 9.28747C11.9638 9.28747 10.0993 7.8988 8.08978 7.93961C5.50384 7.97922 3.08466 9.4663 1.75785 11.7755C-0.98034 16.484 1.06183 23.4034 3.68522 27.2093C4.99753 29.0745 6.53096 31.1545 8.53809 31.0812C10.5017 31.002 11.2352 29.839 13.6048 29.839C15.9527 29.839 16.6415 31.0812 18.6885 31.0344C20.7959 31.002 22.1227 29.1621 23.3891 27.2813C24.9056 25.1461 25.5146 23.0409 25.5388 22.9329C25.4905 22.9161 21.4472 21.3822 21.4061 16.7469ZM17.5393 5.37112C18.5954 4.05927 19.3181 2.27453 19.1175 0.463379C17.5889 0.530592 15.6772 1.51358 14.5764 2.79663C13.6024 3.92724 12.7324 5.7804 12.9571 7.52313C14.6742 7.65036 16.4373 6.66257 17.5393 5.37112Z" fill="white"/>
</svg>
