<svg width="60" height="60" viewBox="0 0 60 60" fill="none" xmlns="http://www.w3.org/2000/svg">
<path d="M46.1872 32.6121L44.8184 31.2433C45.5086 30.5531 45.5086 29.4302 44.8184 28.7399C44.1495 28.0711 42.984 28.0711 42.315 28.7399L40.9462 27.3711L41.9141 26.4031C42.6043 25.7129 42.6043 24.59 41.9141 23.8998C41.2453 23.231 40.0798 23.231 39.4108 23.8998L38.4428 24.8677L37.074 23.4989L39.0101 21.5628C39.7003 20.8726 39.7003 19.7497 39.0101 19.0594C38.3199 18.3692 37.1969 18.3692 36.5067 19.0594L34.5706 20.9955L33.2018 19.6267L34.1697 18.6587C34.5046 18.3238 34.6876 17.8795 34.6876 17.4071C34.6876 16.9346 34.5046 16.4903 34.1697 16.1554C33.4795 15.4652 32.3566 15.4652 31.6664 16.1554L30.6984 17.1233L29.3296 15.7545L30.2975 14.7866C31.7418 13.3423 34.0942 13.3423 35.5384 14.7866C36.1066 15.3548 36.4501 16.0624 36.5721 16.8C37.8634 16.3673 39.3502 16.6627 40.3783 17.6906C41.4063 18.7185 41.7026 20.2045 41.2689 21.4968C42.0065 21.6188 42.7141 21.9625 43.2824 22.5305C44.3103 23.5585 44.6066 25.0445 44.1729 26.3368C44.9105 26.4587 45.6182 26.8024 46.1864 27.3705C47.6324 28.8155 47.6324 31.1679 46.1872 32.6121Z" fill="black"/>
<path d="M31.2667 43.8274L28.4945 46.5989L21.7424 49.4931L11.9434 58.3116L13.2386 59.7501L16.5298 56.788C16.9229 56.9864 17.3138 57.1907 17.7099 57.3679L18.5017 55.6021C18.3603 55.5382 18.2199 55.4608 18.0786 55.394L22.7985 51.1455L29.5988 48.2319L32.6344 45.1952L31.2667 43.8274Z" fill="black"/>
<path d="M24.9284 10.2309L10.2544 24.9049L13.6279 28.2784L16.9443 25.0715L16.9559 25.0599C17.7516 24.2641 19.0467 24.2641 19.8425 25.0599C20.5279 25.7453 20.6353 26.8284 20.098 27.6348L17.2522 31.9017L35.1031 49.7527L49.7771 35.0787L24.9284 10.2309ZM33.5377 33.5143C31.5931 35.459 28.4393 35.459 26.4936 33.5143C24.5489 31.5696 24.5489 28.4158 26.4936 26.4701C28.4383 24.5254 31.5921 24.5254 33.5377 26.4701C35.4824 28.4148 35.4824 31.5686 33.5377 33.5143Z" fill="#6DCAAB"/>
<path d="M30.0162 35.941C28.4268 35.941 26.9322 35.3216 25.8093 34.1977C24.6854 33.0748 24.0659 31.5802 24.0659 29.9918C24.0659 28.4014 24.6854 26.9078 25.8093 25.7849C26.9322 24.661 28.4258 24.0415 30.0162 24.0415C31.6056 24.0415 33.0994 24.661 34.2221 25.7849C35.346 26.9078 35.9654 28.4014 35.9654 29.9918C35.9654 31.5812 35.346 33.0748 34.2221 34.1977C33.0992 35.3224 31.6056 35.941 30.0162 35.941ZM30.0162 25.9784C28.9447 25.9784 27.9369 26.3965 27.1779 27.1545C26.4189 27.9125 26.0018 28.9201 26.0018 29.9928C26.0018 31.0633 26.4199 32.0711 27.1779 32.8301C27.9359 33.5881 28.9437 34.0062 30.0162 34.0062C31.0867 34.0062 32.0944 33.5881 32.8534 32.8301C33.6124 32.0721 34.0295 31.0643 34.0295 29.9928C34.0295 28.9213 33.6114 27.9135 32.8534 27.1545C32.0954 26.3955 31.0867 25.9784 30.0162 25.9784Z" fill="black"/>
<path d="M15.6577 34.2945L17.2685 35.368L21.7088 28.7081C22.7561 27.1361 22.5471 25.0259 21.2113 23.69C19.6605 22.1392 17.1369 22.1392 15.5861 23.69L9.76266 29.5135L7.82657 39.1936L4.76956 42.2524C4.68718 42.0831 4.59441 41.9185 4.51603 41.7481L2.75809 42.5593C2.93524 42.9416 3.13459 43.3163 3.32914 43.6928L0.290527 46.7315L1.65937 48.1003L9.6105 40.1492L11.5466 30.4691L16.9558 25.0597C17.7516 24.2639 19.0466 24.2639 19.8424 25.0597C20.5279 25.7451 20.6352 26.8282 20.098 27.6346L15.6577 34.2945Z" fill="black"/>
<path d="M3.96143 19.5199L2.1657 18.7977C1.66043 20.0552 1.23634 21.359 0.907227 22.6707L2.78414 23.1412C3.09306 21.9137 3.48896 20.695 3.96143 19.5199Z" fill="black"/>
<path d="M7.72778 12.9208L6.19258 11.741C5.36779 12.8135 4.60979 13.9548 3.93896 15.1319L5.61933 16.0902C6.24777 14.9915 6.95718 13.9238 7.72778 12.9208Z" fill="black"/>
<path d="M0.38916 34.7912C0.603105 36.126 0.911824 37.4609 1.30772 38.7571L3.15864 38.1919C2.78894 36.98 2.50041 35.7331 2.30006 34.4854L0.38916 34.7912Z" fill="black"/>
<path d="M1.94273 29.9918C1.94273 28.9551 2.00072 27.9105 2.11309 26.8864L0.188789 26.6745C0.0678201 27.7684 0.00683594 28.8835 0.00683594 29.9956C0.00783568 30.2453 0.0106349 30.4923 0.0164334 30.739L1.95253 30.6934C1.94673 30.4593 1.94373 30.2239 1.94273 29.9918Z" fill="black"/>
<path d="M54.9769 13.3333C54.2247 12.2084 53.3883 11.1253 52.494 10.1128L51.0439 11.3944C51.8823 12.3422 52.6643 13.3565 53.3682 14.4089L54.9769 13.3333Z" fill="black"/>
<path d="M13.1213 7.56883L11.9548 6.02383C10.8765 6.83802 9.84152 7.73519 8.88037 8.68774L10.2434 10.0624C11.1436 9.16982 12.1115 8.33163 13.1213 7.56883Z" fill="black"/>
<path d="M58.0592 28.7061L59.9933 28.6171C59.9324 27.2629 59.7774 25.9019 59.5355 24.5758L57.6313 24.9213C57.8579 26.1642 58.0011 27.4363 58.0592 28.7061Z" fill="black"/>
<path d="M58.5324 20.63C58.1104 19.3446 57.5963 18.0755 57.004 16.8586L55.2627 17.7056C55.8174 18.8449 56.2984 20.0308 56.6933 21.2331L58.5324 20.63Z" fill="black"/>
<path d="M19.7436 3.8584L19.035 2.05687C17.7775 2.55154 16.5414 3.13819 15.3604 3.80022L16.3081 5.48838C17.4106 4.86914 18.5675 4.32028 19.7436 3.8584Z" fill="black"/>
<path d="M30.9258 1.9341C32.1938 1.97469 33.4677 2.10245 34.7136 2.3126L35.0349 0.402695C33.7041 0.179153 32.342 0.0425889 30.9878 0L30.9258 1.9341Z" fill="black"/>
<path d="M44.2319 54.2045L45.2155 55.8725C46.379 55.187 47.5087 54.4146 48.5726 53.5763L47.3743 52.0565C46.378 52.8395 45.3219 53.5627 44.2319 54.2045Z" fill="black"/>
<path d="M45.2881 6.43433C46.35 7.12355 47.3741 7.89315 48.3335 8.72073L49.5988 7.25331C48.5716 6.36954 47.4779 5.54676 46.3434 4.81015L45.2881 6.43433Z" fill="black"/>
<path d="M38.415 3.19737C39.6241 3.57587 40.8166 4.04155 41.9627 4.58061L42.7875 2.82946C41.563 2.25161 40.2861 1.75494 38.9939 1.35045L38.415 3.19737Z" fill="black"/>
<path d="M54.6963 43.3773L56.398 44.3017C57.0447 43.112 57.6157 41.8661 58.094 40.601L56.2829 39.9166C55.8356 41.1005 55.3023 42.265 54.6963 43.3773Z" fill="black"/>
<path d="M57.3813 36.2712L59.2681 36.7019C59.57 35.3844 59.7831 34.0321 59.9031 32.6827L57.9748 32.5103C57.8634 33.7736 57.6631 35.0389 57.3813 36.2712Z" fill="black"/>
<path d="M50.1978 49.5027L51.5898 50.8492C52.5298 49.8782 53.4125 48.8329 54.2151 47.739L52.6557 46.5929C51.9023 47.6162 51.0765 48.5948 50.1978 49.5027Z" fill="black"/>
<path d="M37.2275 57.1287L37.725 59.0009C39.0329 58.6544 40.3279 58.2139 41.5766 57.6912L40.8302 55.9043C39.6631 56.3921 38.4512 56.8044 37.2275 57.1287Z" fill="black"/>
<path d="M21.6338 58.8131C22.9358 59.1896 24.2735 59.4801 25.6103 59.6785L25.8921 57.7628C24.6414 57.5788 23.3897 57.3059 22.172 56.9526L21.6338 58.8131Z" fill="black"/>
<path d="M22.9136 0.829585L23.3695 2.7105C24.5969 2.41337 25.8582 2.19643 27.1215 2.06686L26.9231 0.140564C25.5727 0.279728 24.2242 0.512067 22.9136 0.829585Z" fill="black"/>
<path d="M30.015 58.0639L29.6859 58.0619L29.6685 59.998L30.015 60C31.2568 60 32.5065 59.9236 33.7292 59.7725L33.4911 57.852C32.3478 57.9923 31.1785 58.0639 30.015 58.0639Z" fill="black"/>
</svg>
