<svg width="40" height="40" viewBox="0 0 40 40" fill="none" xmlns="http://www.w3.org/2000/svg">
<path d="M28.3869 33.5484H11.6127C10.5456 33.5484 9.67725 34.4168 9.67725 35.4839V38.0645C9.67725 39.1316 10.5456 40 11.6127 40H28.3869C29.454 40 30.3224 39.1316 30.3224 38.0645V35.4839C30.3224 34.4168 29.454 33.5484 28.3869 33.5484Z" fill="#6DCAAB"/>
<path d="M27.7419 2.58065C25.9632 2.58065 24.5161 4.02774 24.5161 5.80645V9.04903C23.9755 8.63935 23.3096 8.3871 22.5806 8.3871C21.5219 8.3871 20.5884 8.9071 20 9.69742C19.4116 8.9071 18.478 8.3871 17.4193 8.3871C16.6903 8.3871 16.0245 8.63935 15.4838 9.04903V3.22581C15.4838 1.4471 14.0367 0 12.258 0C10.4793 0 9.03223 1.4471 9.03223 3.22581V20.5619V25.8064V26.1471C9.03223 28.0361 10.0116 29.7471 11.6129 30.7039V33.5484H12.9032V29.9239L12.5464 29.7458C11.1748 29.0594 10.3225 27.6806 10.3225 26.1471V25.8064V20.5619C10.3225 19.54 10.7206 18.5787 11.4432 17.8561C11.7993 17.5006 12.2142 17.2226 12.6774 17.029L19.1064 14.3503C19.3567 14.2465 19.6213 14.1935 19.8922 14.1935C21.0187 14.1935 21.9355 15.1097 21.9355 16.2723C21.9355 17.0994 21.4419 17.84 20.678 18.1581L14.1935 20.86V23.2258C14.1935 25.0045 15.6406 26.4516 17.4193 26.4516C18.478 26.4516 19.4116 25.9316 20 25.1413C20.5884 25.9316 21.5219 26.4516 22.5806 26.4516C24.3593 26.4516 25.8064 25.0045 25.8064 23.2258V16.7742V11.6129V5.80645C25.8064 4.73935 26.6748 3.87097 27.7419 3.87097C28.809 3.87097 29.6774 4.73935 29.6774 5.80645V26.1471C29.6774 27.6806 28.8251 29.0594 27.4535 29.7452L27.0967 29.9239V33.5484H28.3871V30.7045C29.9884 29.7477 30.9677 28.0361 30.9677 26.1477V5.80645C30.9677 4.02774 29.5206 2.58065 27.7419 2.58065ZM12.1813 15.8381C11.5619 16.0961 11.0071 16.4677 10.5309 16.9432C10.4574 17.0168 10.3909 17.0961 10.3225 17.1729V3.22581C10.3225 2.15871 11.1909 1.29032 12.258 1.29032C13.3251 1.29032 14.1935 2.15871 14.1935 3.22581V11.6129V14.8387V15L12.1813 15.8381ZM18.6103 13.1594L15.4838 14.4619V11.6129C15.4838 10.5458 16.3522 9.67742 17.4193 9.67742C18.4864 9.67742 19.3548 10.5458 19.3548 11.6129V12.9561C19.1013 12.9974 18.8509 13.0594 18.6103 13.1594ZM17.4193 25.1613C16.3522 25.1613 15.4838 24.2929 15.4838 23.2258V21.7206L19.3548 20.1077V23.2258C19.3548 24.2929 18.4864 25.1613 17.4193 25.1613ZM24.5161 23.2258C24.5161 24.2929 23.6477 25.1613 22.5806 25.1613C21.5135 25.1613 20.6451 24.2929 20.6451 23.2258V19.5697L21.1742 19.349C22.4206 18.8297 23.2258 17.6219 23.2258 16.2361C23.2258 14.6581 22.12 13.3394 20.6451 12.9961V11.6129C20.6451 10.5458 21.5135 9.67742 22.5806 9.67742C23.6477 9.67742 24.5161 10.5458 24.5161 11.6129V16.7742V23.2258Z" fill="black"/>
</svg>
