<svg width="60" height="60" viewBox="0 0 60 60" fill="none" xmlns="http://www.w3.org/2000/svg">
<path d="M40.3125 17.8125C40.3125 12.6431 36.1069 8.4375 30.9375 8.4375C30.57 8.4375 30.1978 8.46469 29.8219 8.51062C28.9791 4.20094 25.1775 0.9375 20.625 0.9375C16.0725 0.9375 12.2709 4.20094 11.4281 8.51062C11.0522 8.46469 10.68 8.4375 10.3125 8.4375C5.14313 8.4375 0.9375 12.6431 0.9375 17.8125C0.9375 20.0775 1.73344 22.2084 3.195 23.9062C1.73344 25.6041 0.9375 27.735 0.9375 30C0.9375 35.1694 5.14313 39.375 10.3125 39.375H11.25V37.5H10.3125C6.17719 37.5 2.8125 34.1353 2.8125 30C2.8125 27.9394 3.6375 26.0156 5.13563 24.5841L5.35594 24.3741L5.35688 24.375C6.67969 23.2087 8.41406 22.5 10.3125 22.5V20.625C8.14406 20.625 6.15 21.3703 4.56 22.6106C3.42937 21.2644 2.8125 19.5909 2.8125 17.8125C2.8125 13.3697 6.69844 9.77906 11.2528 10.3828C11.2603 11.43 11.4375 12.4584 11.7844 13.4381L13.5516 12.8128C13.2684 12.0122 13.125 11.1713 13.125 10.3125C13.125 6.17719 16.4897 2.8125 20.625 2.8125C24.7603 2.8125 28.125 6.17719 28.125 10.3125C28.125 11.1713 27.9816 12.0122 27.6984 12.8128L29.4656 13.4381C29.8134 12.4584 29.9897 11.4309 29.9972 10.3828C34.5516 9.78 38.4375 13.3697 38.4375 17.8125C38.4375 19.5909 37.8206 21.2644 36.69 22.6106C35.1 21.3703 33.1059 20.625 30.9375 20.625V22.5C32.8819 22.5 34.6556 23.2453 35.9888 24.4631L36.0722 24.5428C36.1163 24.5841 36.1566 24.63 36.1997 24.6731C37.6416 26.0963 38.4375 27.9806 38.4375 30C38.4375 34.1353 35.0728 37.5 30.9375 37.5H30V39.375H30.9375C36.1069 39.375 40.3125 35.1694 40.3125 30C40.3125 27.735 39.5166 25.6041 38.055 23.9062C39.5166 22.2084 40.3125 20.0775 40.3125 17.8125Z" fill="black"/>
<path d="M30.9375 16.875H32.8125V18.75H30.9375V16.875Z" fill="black"/>
<path d="M27.1875 24.375H29.0625V26.25H27.1875V24.375Z" fill="black"/>
<path d="M14.0625 20.625H15.9375V22.5H14.0625V20.625Z" fill="black"/>
<path d="M15.9375 14.0625H17.8125V15.9375H15.9375V14.0625Z" fill="black"/>
<path d="M21.5625 8.4375H23.4375V10.3125H21.5625V8.4375Z" fill="black"/>
<path d="M23.4375 18.75H25.3125V20.625H23.4375V18.75Z" fill="black"/>
<path d="M6.5625 15.9375H8.4375V17.8125H6.5625V15.9375Z" fill="black"/>
<path d="M20.625 59.0625C14.9391 59.0625 10.3125 54.4359 10.3125 48.75V30.9375H11.25C15.405 30.9375 18.9928 33.4069 20.625 36.9544C22.2572 33.4069 25.845 30.9375 30 30.9375H30.9375V48.75C30.9375 54.4359 26.3109 59.0625 20.625 59.0625Z" fill="#6DCAAB"/>
<path d="M24.2502 54.2184L23.2124 52.6566C24.5268 51.7828 25.3124 50.3222 25.3124 48.75V45H27.1874V48.75C27.1874 50.9512 26.0896 52.9959 24.2502 54.2184Z" fill="black"/>
<path d="M25.3125 41.25H27.1875V43.125H25.3125V41.25Z" fill="black"/>
<path d="M56.5303 4.6875C55.3922 4.6875 54.3881 5.45437 54.0881 6.55312L53.4375 8.93719V3.75C53.4375 2.19937 52.1756 0.9375 50.625 0.9375C49.0744 0.9375 47.8125 2.19937 47.8125 3.75V8.93625L47.1628 6.55312C46.8619 5.45437 45.8578 4.6875 44.7197 4.6875C43.3238 4.6875 42.1875 5.82281 42.1875 7.28625C42.1875 7.5075 42.2166 7.73063 42.2766 7.95188L45.0375 18.075L45.18 18.5634L46.98 18.0366L44.0859 7.46344C44.0709 7.40438 44.0625 7.34438 44.0625 7.21969C44.0625 6.85688 44.3569 6.5625 44.7197 6.5625C45.0141 6.5625 45.2756 6.76125 45.3534 7.04719L47.8125 16.0631V16.875H49.6875V3.75C49.6875 3.23344 50.1075 2.8125 50.625 2.8125C51.1425 2.8125 51.5625 3.23344 51.5625 3.75V16.875H53.4375V16.0631L55.8966 7.04719C55.9744 6.76125 56.235 6.5625 56.5303 6.5625C56.8931 6.5625 57.1875 6.85687 57.1875 7.28625C57.1875 7.34437 57.1791 7.40344 57.165 7.45875L54.4087 17.565L56.2181 18.0581L58.9753 7.94719C59.0334 7.73063 59.0625 7.50844 59.0625 7.21969C59.0625 5.82281 57.9262 4.6875 56.5303 4.6875Z" fill="black"/>
<path d="M50.625 59.0625C48.5606 59.0625 46.7766 57.5212 46.4756 55.4784L42.4706 28.2413C42.2831 26.9625 42.1875 25.6622 42.1875 24.375C42.1875 19.7231 45.9722 15.9375 50.625 15.9375C55.2778 15.9375 59.0625 19.7231 59.0625 24.375C59.0625 25.6622 58.9669 26.9625 58.7794 28.2413L54.7744 55.4794C54.4734 57.5213 52.6894 59.0625 50.625 59.0625Z" fill="#6DCAAB"/>
<path d="M50.625 45.9375H54.1641V47.8125H50.625V45.9375Z" fill="black"/>
<path d="M50.625 49.6875H53.4375V51.5625H50.625V49.6875Z" fill="black"/>
<path d="M50.625 38.4375H55.2675V40.3125H50.625V38.4375Z" fill="black"/>
<path d="M50.625 42.1875H54.7153V44.0625H50.625V42.1875Z" fill="black"/>
<path d="M50.625 30.9375H56.25V32.8125H50.625V30.9375Z" fill="black"/>
<path d="M50.625 34.6875H55.8188V36.5625H50.625V34.6875Z" fill="black"/>
<path d="M50.625 23.4375H57.1875V25.3125H50.625V23.4375Z" fill="black"/>
<path d="M50.625 27.1875H56.9044V29.0625H50.625V27.1875Z" fill="black"/>
<path d="M19.6875 26.25H21.5625V28.125H19.6875V26.25Z" fill="black"/>
<path d="M8.4375 26.25H10.3125V28.125H8.4375V26.25Z" fill="black"/>
<path d="M32.8125 29.0625H34.6875V30.9375H32.8125V29.0625Z" fill="black"/>
</svg>
