<svg width="64" height="64" viewBox="0 0 64 64" fill="none" xmlns="http://www.w3.org/2000/svg">
<path d="M27 15.211V29H29V15.211C29 14.22 28.71 13.261 28.16 12.438L23.594 5.586C23.591 5.581 23.586 5.577 23.582 5.572L23.166 4.948C23.058 4.783 23 4.594 23 4.398V3.987C23 3.443 23.443 3 23.987 3C24.302 3 24.601 3.152 24.787 3.406L31.427 12.536C31.802 13.053 32 13.662 32 14.301V26.671H34V14.301C34 13.238 33.67 12.22 33.044 11.361L26.404 2.23C25.844 1.46 24.94 1 23.987 1C22.463 1 21.216 2.151 21.036 3.628C21.028 3.625 21.022 3.621 21.014 3.619L13.688 1.176C13.339 1.059 12.975 1 12.606 1H12.424C10.536 1 9 2.536 9 4.425C9 5.777 9.798 7.005 11.033 7.554L17.534 10.444C18.055 10.674 18.496 11.047 18.811 11.52L21.496 15.547C21.826 16.041 22 16.616 22 17.211V19.697L20.723 17.781C19.979 16.666 18.735 16 17.395 16H7.5C4.743 16 2.5 18.243 2.5 21C2.5 21.021 2.5 21.042 2.501 21.063C1.639 21.285 1 22.069 1 23V33.121C1 33.839 1.159 34.563 1.46 35.217L6.51 46.158C6.931 47.069 7.461 47.928 8.086 48.708L8.721 49.502C10.19 51.339 11 53.646 11 56H13C13 53.193 12.034 50.441 10.282 48.253L9.647 47.459C9.123 46.804 8.678 46.084 8.326 45.32L3.276 34.379C3.096 33.987 3 33.552 3 33.121V23C5.206 23 7 24.794 7 27V31C7 31.939 7.448 32.837 8.2 33.399L10.199 34.899C11.146 35.609 12.317 36 13.5 36C16.532 36 19 33.532 19 30.5V26.5C19 23.468 16.532 21 13.5 21H4.5C4.5 19.346 5.846 18 7.5 18H17.395C18.065 18 18.687 18.333 19.059 18.891L21.663 22.798C21.884 23.129 22 23.513 22 23.908V29H24V23.908V17.211C24 16.22 23.71 15.261 23.16 14.438L20.475 10.411C19.949 9.622 19.212 9.001 18.345 8.616L11.845 5.726C11.332 5.498 11 4.987 11 4.425C11 3.639 11.639 3 12.425 3H12.607C12.76 3 12.913 3.024 13.057 3.072L20.382 5.514C21.01 5.723 21.558 6.141 21.926 6.691L25.168 11.554L26.496 13.546C26.826 14.041 27 14.616 27 15.211ZM13.5 23C15.43 23 17 24.57 17 26.5V30.5C17 32.43 15.43 34 13.5 34C12.747 34 12.002 33.751 11.399 33.3L9.399 31.8C9.149 31.612 9 31.313 9 31V27C9 25.465 8.42 24.062 7.469 23H13.5Z" fill="black"/>
<path d="M27.954 49.51C27.321 51.028 27 52.634 27 54.28V56H29V54.28C29 52.899 29.27 51.552 29.8 50.279L32.609 43.539L30.763 42.769L27.954 49.51Z" fill="black"/>
<path d="M31 63H9V55H31V63Z" fill="#6DCAAB"/>
<path d="M46 53C36.626 53 29 45.374 29 36C29 26.626 36.626 19 46 19C55.374 19 63 26.626 63 36C63 45.374 55.374 53 46 53ZM46 24C39.383 24 34 29.383 34 36C34 42.617 39.383 48 46 48C52.617 48 58 42.617 58 36C58 29.383 52.617 24 46 24Z" fill="#6DCAAB"/>
<path d="M52.293 29.293L42 39.586L39.707 37.293L38.293 38.707L42 42.414L53.707 30.707L52.293 29.293Z" fill="black"/>
<path d="M46 46.9999C39.935 46.9999 35 42.0649 35 35.9999C35 33.4049 35.925 30.8849 37.604 28.9019L36.079 27.6089C34.094 29.9529 33 32.9329 33 35.9999C33 43.1679 38.832 48.9999 46 48.9999C49.067 48.9999 52.047 47.9059 54.391 45.9209L53.098 44.3959C51.115 46.0749 48.595 46.9999 46 46.9999Z" fill="black"/>
<path d="M45.9999 23C42.9329 23 39.9529 24.094 37.6089 26.079L38.9019 27.604C40.8849 25.925 43.4049 25 45.9999 25C52.0649 25 56.9999 29.935 56.9999 36C56.9999 38.595 56.0749 41.115 54.3959 43.098L55.9209 44.391C57.9059 42.047 58.9999 39.067 58.9999 36C58.9999 28.832 53.1679 23 45.9999 23Z" fill="black"/>
</svg>
