<svg width="100" height="100" viewBox="0 0 100 100" fill="none" xmlns="http://www.w3.org/2000/svg">
<circle cx="50" cy="50" r="50" fill="#F6F6F6"/>
<g clip-path="url(#clip0)">
<path d="M50.8106 75.204C45.4427 75.204 40.1729 73.744 35.5701 70.9819L32.209 68.9661L35.5681 66.9502C40.1729 64.1876 45.4427 62.7281 50.8106 62.7281C54.2508 62.7281 57.0485 65.5258 57.0485 68.9661C57.0485 72.4059 54.2508 75.204 50.8106 75.204Z" fill="#6DCAAB"/>
<path d="M70.5638 68.966C67.1235 68.966 64.3259 66.1679 64.3259 62.7281C64.3259 57.3603 65.7854 52.0905 68.548 47.4877L70.5638 44.1266L72.5797 47.4856C75.3418 52.0905 76.8018 57.3603 76.8018 62.7281C76.8018 66.1679 74.0041 68.966 70.5638 68.966Z" fill="#6DCAAB"/>
<path d="M40.3215 69.9204C43.6542 71.3571 47.1828 72.085 50.8104 72.085V70.0057C47.4681 70.0057 44.2157 69.3341 41.1439 68.0117L40.3215 69.9204Z" fill="black"/>
<path d="M77.0379 44.8129L73.031 38.1328C72.5132 37.2719 71.568 36.7368 70.5639 36.7368C69.676 36.7368 68.8516 37.1713 68.311 37.8638C67.9927 35.487 67.2338 33.1767 66.0652 31.0756C64.0818 27.5033 60.9395 24.6052 57.22 22.9132L49.9764 19.6206L49.781 20.9943C49.1063 25.7255 47.7611 30.3293 45.7828 34.6814L45.2503 35.85C45.0031 36.3936 44.7949 36.9485 44.6005 37.5069C42.4557 35.8987 40.0302 34.6509 37.4747 33.8641C34.672 33.0021 31.7744 32.6757 28.8499 32.9046L18 33.7392L19.0447 35.8322C20.8255 39.3928 21.9505 43.2021 22.3886 47.1541C23.1485 53.9885 27.6802 59.6203 33.9816 61.89C33.6187 62.0905 33.2506 62.2799 32.8953 62.4931L26.2152 66.4999C25.3547 67.0167 24.8192 67.9614 24.8192 68.966C24.8192 69.9702 25.3547 70.9154 26.2152 71.4317L32.8953 75.4385C38.3052 78.6864 44.501 80.4022 50.8105 80.4022C56.6169 80.4022 61.4157 76.0492 62.1406 70.4372C64.2336 72.7211 67.2297 74.1643 70.5639 74.1643C76.8693 74.1643 82.0001 69.0336 82.0001 62.7281C82.0001 56.4181 80.2848 50.2229 77.0379 44.8129ZM47.6748 35.5433C49.5439 31.4314 50.8699 27.1022 51.6253 22.6558L56.36 24.8067C59.6775 26.3149 62.4797 28.9008 64.2488 32.0863C65.6596 34.623 66.4053 37.5008 66.4053 40.4066V40.8954H66.4403L64.0909 44.8129C61.5207 49.0949 59.9283 53.8713 59.3678 58.803L57.3581 54.785C56.6596 53.3855 56.2331 51.8544 56.0803 50.297L56.4205 49.5035C58.1231 45.5322 60.3557 41.8051 63.0584 38.4273L61.4344 37.1277C59.7973 39.1755 58.347 41.3579 57.0525 43.6296L57.4104 42.3757C57.8591 40.7974 58.0881 39.1694 58.0881 37.5328C58.0881 34.8103 57.4444 32.0843 56.227 29.6516L54.86 26.9149L53 27.8454L54.367 30.5816C55.4412 32.7279 56.0088 35.1301 56.0088 37.5328C56.0088 38.9633 55.8103 40.3868 55.4194 41.7655C54.3285 39.9451 52.8106 38.3887 50.9592 37.2764L50.3064 36.884L49.2363 38.6674L49.8891 39.0593C52.0755 40.371 53.7142 42.4133 54.5594 44.7885L54.5031 44.985C54.1229 46.313 53.9295 47.6862 53.9295 49.069C53.9295 51.3635 54.4711 53.6611 55.4981 55.7145L57.4931 59.7046C56.0199 58.6391 54.2868 57.9187 52.405 57.6542L50.6171 55.8663C47.39 52.6392 45.6122 48.3476 45.6122 43.7824C45.6122 41.3269 46.127 38.9481 47.1438 36.7104L47.6748 35.5433ZM24.4552 46.9242C24.0166 42.9757 22.9333 39.1623 21.2322 35.5763L29.0087 34.9783C31.6652 34.7738 34.3101 35.0682 36.8625 35.853C39.4428 36.6475 41.8811 37.9531 43.9822 39.6547C43.6857 41.0025 43.5329 42.3808 43.5329 43.7824C43.5329 45.8729 43.8822 47.9065 44.5228 49.835C43.8076 49.0857 43.07 48.3588 42.309 47.6582L42.3445 47.6364L41.3653 46.0043C40.0627 43.8342 39.3743 41.3498 39.3743 38.8161H37.295C37.295 40.7101 37.6361 42.5793 38.2824 44.3438C34.5959 41.6229 30.5383 39.4116 26.2142 37.8399L25.503 39.7933C31.5302 41.9848 37.031 45.452 41.6384 49.8914C38.0509 49.0065 34.2537 49.1314 30.7276 50.3071L31.3855 52.2783C35.1822 51.0122 39.3378 51.0899 43.0857 52.4956L44.6919 53.0976L48.5982 57.6055C44.4974 57.8664 40.4825 58.8573 36.7346 60.5143C30.1256 59.0904 25.206 53.6748 24.4552 46.9242ZM60.1674 68.966C60.1674 74.1257 55.9702 78.3229 50.8105 78.3229C44.8772 78.3229 39.052 76.7091 33.9649 73.6567L27.2853 69.6498C27.0472 69.5067 26.8985 69.2447 26.8985 68.966C26.8985 68.6874 27.0472 68.4254 27.2853 68.2828L33.9649 64.2759C39.052 61.2225 44.8772 59.6092 50.8105 59.6092C54.7006 59.6092 58.0424 61.9971 59.4511 65.3831C59.578 65.9136 59.7389 66.4294 59.9364 66.9274C60.0841 67.5842 60.1674 68.265 60.1674 68.966ZM70.5639 72.085C66.6723 72.085 63.332 69.6965 61.9223 66.3096C61.7954 65.7806 61.6345 65.2648 61.4365 64.7658C61.2903 64.1094 61.207 63.4287 61.207 62.7281C61.207 56.7948 62.8203 50.9696 65.8728 45.8825L69.8796 39.2024C70.0233 38.9649 70.2852 38.8161 70.5639 38.8161C70.8426 38.8161 71.1045 38.9649 71.2467 39.2024L75.2535 45.8825C78.307 50.9696 79.9208 56.7948 79.9208 62.7281C79.9208 67.8878 75.7236 72.085 70.5639 72.085Z" fill="black"/>
<path d="M67.4451 62.7281H69.5244C69.5244 59.3853 70.196 56.1333 71.5184 53.0611L69.6097 52.2387C68.1725 55.5719 67.4451 59.1005 67.4451 62.7281Z" fill="black"/>
</g>
<defs>
<clipPath id="clip0">
<rect x="18" y="18" width="64" height="64" fill="white"/>
</clipPath>
</defs>
</svg>
