<svg width="100" height="100" viewBox="0 0 100 100" fill="none" xmlns="http://www.w3.org/2000/svg">
<circle cx="50" cy="50" r="50" fill="#F6F6F6"/>
<path d="M64 80H36C34.895 80 34 79.105 34 78C34 76.895 34.895 76 36 76H64C65.105 76 66 76.895 66 78C66 79.105 65.105 80 64 80Z" fill="#6DCAAB"/>
<path d="M79.455 53.526C76.784 57.214 64.612 60 50 60C35.386 60 23.213 57.213 20.544 53.524L20 48C20 52.418 33.431 56 50 56C66.569 56 80 52.418 80 48L79.455 53.526Z" fill="#6DCAAB"/>
<path d="M71.4931 63.6369L69.9341 62.3849C70.4161 61.7829 70.8761 61.1489 71.3001 60.4969L72.9761 61.5889C72.5171 62.2949 72.0181 62.9839 71.4931 63.6369Z" fill="black"/>
<path d="M59.2211 71.9371L58.6431 70.0231C62.2531 68.9311 65.5801 66.9351 68.2631 64.2491L69.6771 65.6631C66.7621 68.5801 63.1461 70.7501 59.2211 71.9371Z" fill="black"/>
<path d="M35.346 69.556C34.751 69.205 34.162 68.825 33.596 68.423L34.752 66.792C35.273 67.16 35.813 67.51 36.359 67.831L35.346 69.556ZM31.948 67.151C31.415 66.702 30.897 66.23 30.411 65.749L31.817 64.327C32.266 64.771 32.743 65.206 33.235 65.62L31.948 67.151ZM28.994 64.224C28.546 63.701 28.113 63.15 27.707 62.586L29.328 61.416C29.703 61.934 30.101 62.441 30.514 62.923L28.994 64.224Z" fill="black"/>
<path d="M73.758 42.085C74.609 39.251 76.056 37.575 77.475 35.944C79.288 33.859 81 31.891 81 28C81 25.243 78.757 23 76 23C73.243 23 71 25.243 71 28C71 30.757 73.243 33 76 33V31C74.346 31 73 29.654 73 28C73 26.346 74.346 25 76 25C77.654 25 79 26.346 79 28C79 31.143 77.661 32.682 75.967 34.631C74.521 36.294 72.848 38.231 71.859 41.506C70.892 41.238 69.871 40.99 68.808 40.765C68.154 35.387 65.904 32.781 64.033 30.631C62.339 28.682 61 27.143 61 24C61 22.346 62.346 21 64 21C65.654 21 67 22.346 67 24C67 25.654 65.654 27 64 27V29C66.757 29 69 26.757 69 24C69 21.243 66.757 19 64 19C61.243 19 59 21.243 59 24C59 27.891 60.712 29.859 62.524 31.943C64.287 33.97 66.096 36.059 66.746 40.363C63.375 39.762 59.686 39.359 56 39.159H54.311V41.159L55.947 41.158C60.114 41.383 63.8 41.837 66.953 42.426C66.98 42.929 67 43.446 67 44V46H69V44C69 43.599 68.988 43.217 68.974 42.84C69.828 43.031 70.641 43.229 71.394 43.439C71.148 44.761 71 46.26 71 48H73C73 46.482 73.115 45.181 73.31 44.032C76.967 45.273 79 46.714 79 48C79 50.923 67.968 55 50 55C32.032 55 21 50.923 21 48C21 45.314 29.797 41.937 43.954 41.162H45.724V39.162L43.9 39.164C31.506 39.84 19 42.835 19 48C19 63.99 32.01 77 48 77H52C67.99 77 81 63.99 81 48C81 45.523 78.122 43.547 73.758 42.085ZM52 75H48C34.309 75 22.974 64.755 21.238 51.53C26.144 55.104 38.353 57 50 57C61.647 57 73.856 55.104 78.762 51.53C77.026 64.755 65.691 75 52 75Z" fill="black"/>
<path d="M41 52H36C34.346 52 33 50.654 33 49C33 48.448 32.552 48 32 48H27V46H32C33.654 46 35 47.346 35 49C35 49.552 35.448 50 36 50H41V52Z" fill="black"/>
<path d="M48.764 35H47.472C46.277 35 45.135 34.691 44.116 34.156L44 34.225V45C44 46.105 44.895 47 46 47C47.105 47 48 46.105 48 45V41C48 39.895 48.895 39 50 39C51.105 39 52 39.895 52 41V50C52 51.105 52.895 52 54 52C55.105 52 56 51.105 56 50V27.764C56 31.76 52.76 35 48.764 35Z" fill="#6DCAAB"/>
<path d="M48.764 36H47.472C44.544 36 41.892 34.482 40.409 32H22C20.346 32 19 30.654 19 29C19 27.346 20.346 26 22 26H57V27.764C57 32.306 53.306 36 48.764 36ZM22 28C21.448 28 21 28.448 21 29C21 29.552 21.448 30 22 30H41.618L41.894 30.553C42.957 32.679 45.094 34 47.471 34H48.763C52.122 34 54.87 31.33 54.994 28H22Z" fill="black"/>
<path d="M63 52C64.6569 52 66 51.1046 66 50C66 48.8954 64.6569 48 63 48C61.3431 48 60 48.8954 60 50C60 51.1046 61.3431 52 63 52Z" fill="#6DCAAB"/>
</svg>
