<svg width="64" height="64" viewBox="0 0 64 64" fill="none" xmlns="http://www.w3.org/2000/svg">
<path d="M43.379 12.621C43.777 12.223 44.316 12 44.879 12C45.292 12 45.674 12.123 46 12.327V12V1H44L37 7L35 20L35.5 20.5L43.379 12.621Z" fill="#6DCAAB"/>
<path d="M46.673 13C46.877 13.326 47 13.708 47 14.121C47 14.684 46.776 15.223 46.379 15.621L38.5 23.5L39 24L52 22L58 15V13H46.673Z" fill="#6DCAAB"/>
<path d="M37.724 59.2111L32.601 48.9661L30.812 49.8611L35.935 60.1061C35.978 60.1911 36 60.2871 36 60.3821C36 60.7231 35.723 61.0001 35.382 61.0001H33C32.764 61.0001 32.553 60.8691 32.447 60.6581L27.662 51.0881L25.873 51.9831L28.382 57.0001H17.618L20.127 51.9821L18.338 51.0871L13.553 60.6581C13.447 60.8691 13.236 61.0001 13 61.0001H10.618C10.277 61.0001 10 60.7231 10 60.3821C10 60.2871 10.022 60.1911 10.065 60.1061L15.188 49.8611L13.399 48.9661L8.276 59.2111C8.096 59.5731 8 59.9781 8 60.3821C8 61.8261 9.174 63.0001 10.618 63.0001H13C13.999 63.0001 14.896 62.4451 15.342 61.5531L16.618 59.0001H29.382L30.658 61.5521C31.104 62.4451 32.001 63.0001 33 63.0001H35.382C36.826 63.0001 38 61.8261 38 60.3821C38 59.9781 37.904 59.5731 37.724 59.2111Z" fill="white"/>
<path d="M36.403 25.597L32.835 29.165C34.248 31.186 35 33.535 35 36C35 42.617 29.617 48 23 48C16.383 48 11 42.617 11 36C11 29.383 16.383 24 23 24C25.465 24 27.814 24.752 29.836 26.164L33.409 22.591L33.309 22.504C30.313 20.211 26.748 19 23 19C13.626 19 6 26.626 6 36C6 45.374 13.626 53 23 53C32.374 53 40 45.374 40 36C40 32.252 38.789 28.687 36.497 25.69L36.403 25.597Z" fill="#6DCAAB"/>
<path d="M48 14.121C48 12.4 46.6 11 44.879 11C44.045 11 43.261 11.325 42.672 11.914L29.709 24.876C27.683 23.649 25.382 23 23 23C15.832 23 10 28.832 10 36C10 43.168 15.832 49 23 49C30.168 49 36 43.168 36 36C36 33.619 35.351 31.317 34.124 29.29L47.086 16.328C47.675 15.739 48 14.955 48 14.121ZM34 36C34 42.065 29.065 47 23 47C16.935 47 12 42.065 12 36C12 29.935 16.935 25 23 25C24.847 25 26.636 25.466 28.243 26.343L25.22 29.366C24.503 29.124 23.76 29 23 29C19.14 29 16 32.14 16 36C16 39.86 19.14 43 23 43C26.86 43 30 39.86 30 36C30 35.24 29.876 34.497 29.634 33.78L32.657 30.757C33.534 32.364 34 34.153 34 36ZM23 37C24.804 37 26.514 36.416 27.931 35.352C27.959 35.567 28 35.781 28 36C28 38.757 25.757 41 23 41C20.243 41 18 38.757 18 36C18 33.243 20.243 31 23 31C23.219 31 23.433 31.041 23.648 31.069C22.584 32.486 22 34.196 22 36V37H23ZM45.672 14.914L27.414 33.172C26.497 34.089 25.346 34.685 24.095 34.905C24.315 33.655 24.911 32.503 25.828 31.586L44.086 13.328C44.298 13.117 44.579 13 44.879 13C45.497 13 46 13.503 46 14.121C46 14.421 45.883 14.702 45.672 14.914Z" fill="white"/>
</svg>
