<svg width="64" height="64" viewBox="0 0 64 64" fill="none" xmlns="http://www.w3.org/2000/svg">
<path d="M46.4516 36.1292C42.4113 36.1292 38.3493 37.8192 34.0686 39.678C34.0666 39.7647 34.0469 39.8494 34.0499 39.9361C34.1648 42.4104 33.0716 45.1967 30.875 47.3923C27.2752 50.9926 22.0872 51.6407 19.2868 48.8403C18.1215 47.675 17.562 46.0934 17.5555 44.3872H17.5484C13.6865 44.3872 10.6034 43.74 9.09025 42.6105L8.26818 41.9976L6.37402 40.983C9.2213 48.9764 16.8352 54.7098 25.8065 54.7098H38.1936C48.2944 54.7098 56.6855 47.4522 58.4733 37.8706C55.0741 36.732 50.9214 36.1292 46.4516 36.1292Z" fill="#6DCAAB"/>
<path d="M60.9032 24.7743H48.9435L62.8417 10.8761C63.5892 10.1286 64 9.13671 64 8.08177C64 5.90133 62.2278 4.12915 60.0474 4.12915C58.9924 4.12915 57.9995 4.53994 57.253 5.28742L37.7661 24.7743H3.09677C1.38962 24.7743 0 26.1639 0 27.8711C0 29.5782 1.38962 30.9679 3.09677 30.9679H4.12903V34.0646C4.12903 42.9296 9.48337 50.5571 17.122 53.9129C14.9894 54.5465 13.4194 56.5026 13.4194 58.8388V59.8711H50.5806V58.8388C50.5806 56.5026 49.0106 54.5465 46.878 53.9129C54.5166 50.5571 59.871 42.9296 59.871 34.0646V30.9679H60.9032C62.6104 30.9679 64 29.5782 64 27.8711C64 26.1639 62.6104 24.7743 60.9032 24.7743ZM58.7127 6.74709C59.0701 6.38973 59.5438 6.19367 60.0474 6.19367C61.0892 6.19367 61.9355 7.03994 61.9355 8.08177C61.9355 8.5853 61.7394 9.05909 61.3821 9.41645L46.0242 24.7743H40.6855L58.7127 6.74709ZM45.4194 55.7421C46.7656 55.7421 47.9133 56.605 48.3397 57.8066H15.6603C16.0867 56.605 17.2344 55.7421 18.5806 55.7421H45.4194ZM57.8064 34.0646C57.8064 44.8797 49.0086 53.6775 38.1935 53.6775H25.8064C14.9914 53.6775 6.19355 44.8797 6.19355 34.0646V30.9679H31.5726L30.3992 32.1418C29.7878 32.7526 28.9939 33.0818 28.2404 33.047C25.3821 32.919 22.3145 34.2143 20.0071 36.5233C18.1048 38.426 16.8896 40.803 16.5882 43.2189C16.2747 45.73 16.9743 47.9865 18.559 49.5702C19.8957 50.9069 21.7092 51.614 23.752 51.614C24.131 51.614 24.5181 51.5893 24.9103 51.5409C27.3261 51.2395 29.7041 50.0243 31.6058 48.1221C33.9138 45.8146 35.2132 42.7365 35.0822 39.8887C35.0474 39.1276 35.3775 38.3413 35.9874 37.73L42.75 30.9679H57.8064V34.0646ZM34.4919 30.9679H39.8306L34.5282 36.2708C33.5081 37.2904 32.9582 38.6448 33.0197 39.9845C33.125 42.2617 32.0514 44.7587 30.1462 46.6624C28.5665 48.2415 26.6169 49.2471 24.6542 49.4926C22.7873 49.7239 21.1416 49.2345 20.0186 48.1115C18.8947 46.9875 18.4042 45.3408 18.6376 43.4759C18.8831 41.5132 19.8876 39.5636 21.4677 37.984C23.3725 36.0798 25.8664 35.0011 28.1457 35.1105C29.4824 35.1629 30.8387 34.6221 31.8594 33.6019L34.4919 30.9679ZM60.9032 28.9033H3.09677C2.52823 28.9033 2.06452 28.4396 2.06452 27.8711C2.06452 27.3025 2.52823 26.8388 3.09677 26.8388H60.9032C61.4718 26.8388 61.9355 27.3025 61.9355 27.8711C61.9355 28.4396 61.4718 28.9033 60.9032 28.9033Z" fill="white"/>
<path d="M22.9253 39.4426C21.6874 40.6815 20.8714 42.244 20.6854 43.7304C20.5337 44.9517 20.8154 45.989 21.4782 46.6498C22.0211 47.1962 22.8139 47.484 23.7675 47.484C25.4182 47.484 27.2564 46.6311 28.6864 45.2027C29.9238 43.9638 30.7403 42.4013 30.9263 40.9149C31.078 39.6936 30.7963 38.6563 30.1335 37.9956C29.5916 37.4492 28.7988 37.1614 27.8462 37.1614C26.1944 37.1614 24.3562 38.0142 22.9253 39.4426ZM28.8794 40.6578C28.7494 41.6982 28.1466 42.8222 27.2267 43.742C26.1924 44.7763 24.8658 45.4194 23.7675 45.4194C23.3845 45.4194 23.082 45.3368 22.9379 45.1911C22.7438 44.9971 22.6652 44.5359 22.7333 43.9875C22.8633 42.9472 23.4661 41.8232 24.386 40.9033C25.4203 39.869 26.7469 39.2259 27.8462 39.2259C28.2282 39.2259 28.5306 39.3086 28.6748 39.4542C28.8688 39.6483 28.9465 40.1095 28.8794 40.6578Z" fill="white"/>
</svg>
