<svg width="64" height="64" viewBox="0 0 64 64" fill="none" xmlns="http://www.w3.org/2000/svg">
<path d="M56 20H60C61.105 20 62 20.895 62 22C62 23.105 61.105 24 60 24H56V20Z" fill="#6DCAAB"/>
<path d="M56 28H60C61.105 28 62 28.895 62 30C62 31.105 61.105 32 60 32H56V28Z" fill="#6DCAAB"/>
<path d="M56 36H60C61.105 36 62 36.895 62 38C62 39.105 61.105 40 60 40H56V36Z" fill="#6DCAAB"/>
<path d="M12 52H4C2.895 52 2 51.105 2 50V48C2 46.895 2.895 46 4 46H12C13.105 46 14 46.895 14 48V50C14 51.105 13.105 52 12 52Z" fill="#6DCAAB"/>
<path d="M12 40H4C2.895 40 2 39.105 2 38V36C2 34.895 2.895 34 4 34H12C13.105 34 14 34.895 14 36V38C14 39.105 13.105 40 12 40Z" fill="#6DCAAB"/>
<path d="M12 28H4C2.895 28 2 27.105 2 26V24C2 22.895 2.895 22 4 22H12C13.105 22 14 22.895 14 24V26C14 27.105 13.105 28 12 28Z" fill="#6DCAAB"/>
<path d="M7 28H9V34H7V28Z" fill="white"/>
<path d="M7 40H9V46H7V40Z" fill="white"/>
<path d="M45 37.172V18C45 16.346 43.654 15 42 15C40.346 15 39 16.346 39 18V37.172C39 38.706 38.378 40.208 37.293 41.293C35.836 42.75 35 44.768 35 46.828V59H37V49H39V59H41V49H43V59H45V49H47V59H49V46.828C49 44.767 48.164 42.75 46.707 41.293C45.622 40.208 45 38.706 45 37.172ZM47 47H37V46.828C37 45.294 37.622 43.792 38.707 42.707C40.164 41.25 41 39.232 41 37.172V18C41 17.448 41.448 17 42 17C42.552 17 43 17.448 43 18V37.172C43 39.233 43.836 41.25 45.293 42.707C46.378 43.792 47 45.294 47 46.828V47Z" fill="white"/>
<path d="M35 26.616C35 21.589 32.015 17.061 27.394 15.081L27.205 15H25V56C25 57.654 26.346 59 28 59C29.654 59 31 57.654 31 56V40.899L32.949 38.949C34.271 37.628 35 35.87 35 34V26.616ZM33 34C33 35.336 32.479 36.591 31.535 37.535L29 40.071V56C29 56.552 28.552 57 28 57C27.448 57 27 56.552 27 56V17.098C30.659 18.845 33 22.536 33 26.617V34Z" fill="white"/>
<path d="M51 11V1H13C9.691 1 7 3.691 7 7V22H9V11.46C10.063 12.414 11.462 13 13 13H17V61H13C10.794 61 9 59.206 9 57V52H7V57C7 60.309 9.691 63 13 63H51C54.309 63 57 60.309 57 57V17C57 13.691 54.309 11 51 11ZM9 7C9 4.794 10.794 3 13 3H49V11H47V5H11V7H45V11H13C10.794 11 9 9.206 9 7ZM55 57C55 59.206 53.206 61 51 61H19V13H51C53.206 13 55 14.794 55 17V57Z" fill="white"/>
</svg>
