<svg width="100" height="100" viewBox="0 0 100 100" fill="none" xmlns="http://www.w3.org/2000/svg">
<circle cx="50" cy="50" r="50" fill="#F6F6F6"/>
<path d="M67.2665 52.7863L65.8064 51.3262C66.5426 50.5899 66.5426 49.3922 65.8064 48.6559C65.093 47.9425 63.8498 47.9425 63.1362 48.6559L61.6761 47.1958L62.7085 46.1633C63.4448 45.4271 63.4448 44.2293 62.7085 43.4931C61.9951 42.7797 60.7519 42.7797 60.0383 43.4931L59.0058 44.5256L57.5457 43.0655L59.6109 41.0003C60.3471 40.2641 60.3471 39.0663 59.6109 38.3301C58.8747 37.5938 57.6769 37.5938 56.9406 38.3301L54.8755 40.3952L53.4154 38.9351L54.4479 37.9027C54.8051 37.5454 55.0002 37.0715 55.0002 36.5675C55.0002 36.0636 54.8051 35.5897 54.4479 35.2324C53.7116 34.4962 52.5138 34.4962 51.7776 35.2324L50.7451 36.2649L49.285 34.8048L50.3175 33.7723C51.858 32.2318 54.3672 32.2318 55.9077 33.7723C56.5139 34.3785 56.8803 35.1332 57.0104 35.92C58.3877 35.4585 59.9737 35.7735 61.0703 36.87C62.1668 37.9664 62.4829 39.5515 62.0203 40.9299C62.8071 41.06 63.5619 41.4267 64.168 42.0326C65.2645 43.129 65.5805 44.7141 65.1179 46.0925C65.9047 46.2226 66.6595 46.5893 67.2656 47.1952C68.8081 48.7365 68.8081 51.2458 67.2665 52.7863Z" fill="black"/>
<path d="M51.3511 64.7492L48.394 67.7055L41.1918 70.7927L30.7395 80.1991L32.1211 81.7334L35.6317 78.5739C36.051 78.7855 36.4679 79.0034 36.8904 79.1924L37.735 77.3089C37.5842 77.2407 37.4345 77.1581 37.2837 77.0869L42.3184 72.5552L49.5719 69.4473L52.8099 66.2082L51.3511 64.7492Z" fill="black"/>
<path d="M44.59 28.913L28.9377 44.5652L32.5362 48.1637L36.0736 44.7429L36.086 44.7305C36.9348 43.8817 38.3162 43.8817 39.1651 44.7305C39.8962 45.4617 40.0107 46.617 39.4376 47.4771L36.402 52.0285L55.4431 71.0695L71.0953 55.4172L44.59 28.913ZM53.7733 53.7486C51.699 55.8229 48.3349 55.8229 46.2595 53.7486C44.1852 51.6742 44.1852 48.3102 46.2595 46.2348C48.3339 44.1604 51.6979 44.1604 53.7733 46.2348C55.8477 48.3091 55.8477 51.6732 53.7733 53.7486Z" fill="#6DCAAB"/>
<path d="M50.017 56.3371C48.3216 56.3371 46.7274 55.6764 45.5296 54.4776C44.3308 53.2798 43.67 51.6855 43.67 49.9913C43.67 48.2948 44.3308 46.7017 45.5296 45.5039C46.7274 44.3051 48.3206 43.6443 50.017 43.6443C51.7123 43.6443 53.3057 44.3051 54.5033 45.5039C55.7021 46.7017 56.3629 48.2948 56.3629 49.9913C56.3629 51.6866 55.7021 53.2798 54.5033 54.4776C53.3055 55.6772 51.7123 56.3371 50.017 56.3371ZM50.017 45.7103C48.874 45.7103 47.7991 46.1563 46.9895 46.9648C46.1799 47.7734 45.735 48.8481 45.735 49.9923C45.735 51.1342 46.181 52.2091 46.9895 53.0187C47.798 53.8273 48.873 54.2732 50.017 54.2732C51.1589 54.2732 52.2338 53.8273 53.0434 53.0187C53.853 52.2102 54.2979 51.1353 54.2979 49.9923C54.2979 48.8494 53.8519 47.7744 53.0434 46.9648C52.2349 46.1552 51.1589 45.7103 50.017 45.7103Z" fill="black"/>
<path d="M34.7014 54.5808L36.4195 55.7259L41.1558 48.622C42.273 46.9452 42.0501 44.6943 40.6252 43.2694C38.971 41.6152 36.2792 41.6152 34.625 43.2694L28.4133 49.4811L26.3481 59.8065L23.0873 63.0693C22.9995 62.8886 22.9005 62.7131 22.8169 62.5314L20.9418 63.3966C21.1307 63.8044 21.3434 64.2041 21.5509 64.6057L18.3097 67.8469L19.7698 69.307L28.251 60.8258L30.3162 50.5004L36.086 44.7303C36.9348 43.8815 38.3162 43.8815 39.1651 44.7303C39.8962 45.4615 40.0107 46.6168 39.4376 47.4769L34.7014 54.5808Z" fill="black"/>
<path d="M22.2252 38.8213L20.3098 38.0509C19.7708 39.3922 19.3185 40.783 18.9674 42.1821L20.9694 42.6839C21.299 41.3746 21.7213 40.0747 22.2252 38.8213Z" fill="black"/>
<path d="M26.2427 31.7822L24.6052 30.5237C23.7254 31.6677 22.9168 32.8851 22.2013 34.1407L23.9937 35.1629C24.664 33.9909 25.4207 32.852 26.2427 31.7822Z" fill="black"/>
<path d="M18.415 55.1106C18.6432 56.5344 18.9725 57.9583 19.3948 59.341L21.3692 58.738C20.9748 57.4453 20.667 56.1153 20.4533 54.7845L18.415 55.1106Z" fill="black"/>
<path d="M20.0722 49.9913C20.0722 48.8854 20.134 47.7712 20.2539 46.6788L18.2013 46.4528C18.0723 47.6196 18.0072 48.8091 18.0072 49.9953C18.0083 50.2617 18.0113 50.5251 18.0174 50.7883L20.0826 50.7396C20.0764 50.4899 20.0732 50.2389 20.0722 49.9913Z" fill="black"/>
<path d="M76.642 32.2222C75.8396 31.0223 74.9475 29.867 73.9935 28.787L72.4468 30.1541C73.3411 31.165 74.1752 32.247 74.9259 33.3694L76.642 32.2222Z" fill="black"/>
<path d="M31.996 26.0734L30.7518 24.4254C29.6016 25.2939 28.4976 26.2509 27.4724 27.2669L28.9263 28.7332C29.8865 27.7811 30.919 26.8871 31.996 26.0734Z" fill="black"/>
<path d="M79.9297 48.6199L81.9927 48.525C81.9277 47.0804 81.7624 45.6287 81.5043 44.2142L79.4733 44.5827C79.7149 45.9085 79.8676 47.2653 79.9297 48.6199Z" fill="black"/>
<path d="M80.4345 40.0054C79.9843 38.6342 79.4359 37.2805 78.8042 35.9825L76.9468 36.886C77.5384 38.1012 78.0516 39.3662 78.4728 40.6486L80.4345 40.0054Z" fill="black"/>
<path d="M39.0596 22.1156L38.3038 20.194C36.9625 20.7216 35.644 21.3474 34.3842 22.0536L35.3951 23.8543C36.5711 23.1938 37.8051 22.6083 39.0596 22.1156Z" fill="black"/>
<path d="M50.9874 20.063C52.34 20.1063 53.6988 20.2426 55.0278 20.4668L55.3705 18.4295C53.9509 18.1911 52.4981 18.0454 51.0535 18L50.9874 20.063Z" fill="black"/>
<path d="M65.1809 75.8181L66.23 77.5973C67.4711 76.8662 68.6761 76.0423 69.811 75.148L68.5328 73.5269C67.47 74.3621 66.3435 75.1335 65.1809 75.8181Z" fill="black"/>
<path d="M66.3074 24.8633C67.4401 25.5985 68.5325 26.4194 69.5558 27.3021L70.9054 25.7369C69.8098 24.7942 68.6432 23.9165 67.433 23.1308L66.3074 24.8633Z" fill="black"/>
<path d="M58.9762 21.4105C60.2659 21.8143 61.5379 22.311 62.7604 22.886L63.6402 21.0181C62.334 20.4017 60.972 19.872 59.5936 19.4405L58.9762 21.4105Z" fill="black"/>
<path d="M76.3425 64.2691L78.1577 65.2551C78.8475 63.9861 79.4566 62.6572 79.9668 61.3077L78.0349 60.5777C77.5578 61.8405 76.989 63.0826 76.3425 64.2691Z" fill="black"/>
<path d="M79.2069 56.6892L81.2194 57.1487C81.5414 55.7434 81.7688 54.3009 81.8968 52.8615L79.8399 52.6777C79.7211 54.0252 79.5074 55.3748 79.2069 56.6892Z" fill="black"/>
<path d="M71.5444 70.8029L73.0293 72.2391C74.0319 71.2034 74.9735 70.0884 75.8296 68.9216L74.1663 67.6991C73.3626 68.7906 72.4818 69.8344 71.5444 70.8029Z" fill="black"/>
<path d="M57.7094 78.9373L58.24 80.9343C59.635 80.5647 61.0164 80.0948 62.3483 79.5373L61.5522 77.6312C60.3073 78.1516 59.0146 78.5914 57.7094 78.9373Z" fill="black"/>
<path d="M41.0762 80.734C42.465 81.1356 43.8919 81.4455 45.3178 81.657L45.6183 79.6136C44.2843 79.4174 42.9492 79.1263 41.6503 78.7494L41.0762 80.734Z" fill="black"/>
<path d="M42.4412 18.8849L42.9274 20.8912C44.2367 20.5743 45.5821 20.3429 46.9296 20.2047L46.718 18.1499C45.2775 18.2984 43.8392 18.5462 42.4412 18.8849Z" fill="black"/>
<path d="M50.016 79.9348L49.6649 79.9327L49.6464 81.9979L50.016 82C51.3406 82 52.6736 81.9185 53.9778 81.7573L53.7238 79.7087C52.5043 79.8585 51.257 79.9348 50.016 79.9348Z" fill="black"/>
</svg>
