<svg width="170" height="42" viewBox="0 0 170 42" fill="none" xmlns="http://www.w3.org/2000/svg">
<path d="M28.4095 30.3069C27.6215 29.3896 26.6142 28.6867 25.4814 28.2635C24.3486 27.8404 23.1271 27.7108 21.9307 27.8868C20.848 28.0483 19.7426 27.9536 18.7032 27.6102C17.6638 27.2668 16.7195 26.6844 15.9461 25.9097L7.90196 17.8648C7.63136 17.6006 7.47368 17.2418 7.46203 16.8637C7.45038 16.4857 7.58567 16.1178 7.83948 15.8374C7.9892 15.6788 8.16924 15.5517 8.36893 15.4639C8.56862 15.376 8.78391 15.3291 9.00205 15.326C9.22019 15.3228 9.43675 15.3634 9.63891 15.4454C9.84107 15.5275 10.0247 15.6492 10.179 15.8035L17.3912 23.0157C17.5974 23.2289 17.8751 23.3584 18.171 23.3793C18.4669 23.4001 18.7601 23.3109 18.9941 23.1287C19.1203 23.0252 19.2233 22.8965 19.2967 22.7507C19.3701 22.605 19.4121 22.4456 19.4201 22.2826C19.4282 22.1197 19.402 21.9568 19.3433 21.8046C19.2847 21.6524 19.1948 21.5141 19.0794 21.3987L11.8621 14.1813C11.5564 13.8846 11.3772 13.4813 11.3619 13.0555C11.3467 12.6298 11.4965 12.2146 11.7801 11.8968C11.9276 11.74 12.105 11.6145 12.3019 11.5276C12.4988 11.4407 12.7112 11.3942 12.9264 11.3909C13.1415 11.3876 13.3552 11.4276 13.5547 11.5084C13.7541 11.5893 13.9353 11.7093 14.0875 11.8615L21.3165 19.0908C21.5228 19.304 21.8005 19.4335 22.0964 19.4543C22.3923 19.4751 22.6855 19.3858 22.9195 19.2036C23.0456 19.1001 23.1486 18.9714 23.2219 18.8257C23.2953 18.68 23.3373 18.5205 23.3454 18.3576C23.3534 18.1947 23.3272 18.0319 23.2686 17.8797C23.2099 17.7275 23.1201 17.5893 23.0048 17.4739L15.7226 10.1917C15.5698 10.0389 15.4498 9.85634 15.3702 9.6554C15.2906 9.45445 15.253 9.23933 15.2597 9.02329C15.2664 8.80725 15.3173 8.59488 15.4092 8.39926C15.5011 8.20364 15.6321 8.02892 15.7942 7.88587C16.0874 7.63899 16.4634 7.51242 16.8463 7.53166C17.2292 7.5509 17.5905 7.71453 17.8576 7.98957L25.862 15.994C26.6367 16.7674 27.2191 17.7118 27.5625 18.7511C27.9059 19.7905 28.0006 20.896 27.8391 21.9787C27.664 23.175 27.794 24.3961 28.2171 25.5287C28.6402 26.6613 29.3427 27.6687 30.2592 28.4571L30.3246 28.5129C34.4384 32.0203 40.8609 29.7278 41.7273 24.3908C41.963 22.9343 42.0463 21.4572 41.9757 19.9834C41.4582 9.00222 32.3898 0.207543 21.3974 0.00376937C18.5732 -0.049747 15.7672 0.467077 13.1474 1.52331C10.5275 2.57954 8.14772 4.15347 6.15036 6.1509C4.15301 8.14833 2.57916 10.5282 1.52303 13.1481C0.466887 15.7679 -0.0498352 18.574 0.00378385 21.3982C0.207557 32.3872 8.9999 41.4543 19.9775 41.9749C21.4264 42.0448 22.8786 41.9661 24.3114 41.74C29.6702 40.8912 31.9537 34.4148 28.4095 30.3069Z" fill="white"/>
<path d="M64.076 26.044H72.7C73.1293 26.044 73.4467 26.0627 73.652 26.1C73.876 26.1187 74.128 26.2027 74.408 26.352C74.912 26.6133 75.164 27.3413 75.164 28.536C75.164 29.8427 74.8187 30.608 74.128 30.832C73.8107 30.944 73.3253 31 72.672 31H61.584C60.2773 31 59.512 30.6453 59.288 29.936C59.176 29.6373 59.12 29.1613 59.12 28.508V12.94C59.12 11.988 59.2973 11.344 59.652 11.008C60.0067 10.6533 60.6787 10.476 61.668 10.476H72.7C73.1293 10.476 73.4467 10.4947 73.652 10.532C73.876 10.5507 74.128 10.6347 74.408 10.784C74.912 11.0453 75.164 11.7733 75.164 12.968C75.164 14.2747 74.8187 15.04 74.128 15.264C73.8107 15.376 73.3253 15.432 72.672 15.432H64.076V18.26H69.62C70.0493 18.26 70.3667 18.2787 70.572 18.316C70.796 18.3347 71.048 18.4187 71.328 18.568C71.832 18.8293 72.084 19.5573 72.084 20.752C72.084 22.0587 71.7293 22.824 71.02 23.048C70.7027 23.16 70.2173 23.216 69.564 23.216H64.076V26.044ZM86.5515 17.812C86.6635 16.7667 87.4008 16.244 88.7635 16.244C89.4915 16.244 90.0328 16.3 90.3875 16.412C90.7421 16.524 90.9848 16.72 91.1155 17C91.2648 17.28 91.3488 17.532 91.3675 17.756C91.4048 17.9613 91.4235 18.2787 91.4235 18.708V28.508C91.4235 28.9373 91.4048 29.264 91.3675 29.488C91.3488 29.6933 91.2741 29.936 91.1435 30.216C90.8821 30.7013 90.2381 30.944 89.2115 30.944C88.2035 30.944 87.5221 30.8227 87.1675 30.58C86.8315 30.3187 86.6355 29.9453 86.5795 29.46C85.8888 30.4493 84.7315 30.944 83.1075 30.944C81.5021 30.944 80.0088 30.2067 78.6275 28.732C77.2461 27.2573 76.5555 25.5493 76.5555 23.608C76.5555 21.648 77.2461 19.94 78.6275 18.484C80.0275 17.0093 81.5581 16.272 83.2195 16.272C83.8541 16.272 84.4328 16.384 84.9555 16.608C85.4781 16.832 85.8421 17.0467 86.0475 17.252C86.2528 17.4387 86.4208 17.6253 86.5515 17.812ZM81.4555 23.636C81.4555 24.252 81.6981 24.812 82.1835 25.316C82.6688 25.8013 83.2568 26.044 83.9475 26.044C84.6381 26.044 85.2075 25.792 85.6555 25.288C86.1221 24.784 86.3555 24.2333 86.3555 23.636C86.3555 23.02 86.1315 22.4507 85.6835 21.928C85.2541 21.4053 84.6661 21.144 83.9195 21.144C83.1915 21.144 82.5941 21.4053 82.1275 21.928C81.6795 22.4507 81.4555 23.02 81.4555 23.636ZM102.223 21.2L100.403 21.088V24.952C100.403 25.456 100.478 25.82 100.627 26.044C100.795 26.268 101.094 26.38 101.523 26.38C101.971 26.38 102.307 26.3987 102.531 26.436C102.774 26.4547 103.026 26.5387 103.287 26.688C103.716 26.9307 103.931 27.556 103.931 28.564C103.931 29.74 103.67 30.4587 103.147 30.72C102.867 30.8507 102.615 30.9347 102.391 30.972C102.186 30.9907 101.878 31 101.467 31C99.5258 31 98.0512 30.5613 97.0432 29.684C96.0352 28.8067 95.5312 27.3227 95.5312 25.232V21.088C95.1765 21.144 94.7938 21.172 94.3832 21.172C93.9725 21.172 93.6272 21.0133 93.3472 20.696C93.0858 20.3787 92.9552 19.8373 92.9552 19.072C92.9552 18.3067 93.0018 17.756 93.0952 17.42C93.1885 17.0653 93.3192 16.8133 93.4872 16.664C93.7858 16.4213 94.1592 16.3 94.6072 16.3L95.5312 16.412V13.528C95.5312 13.0987 95.5405 12.7813 95.5592 12.576C95.5965 12.3707 95.6898 12.1467 95.8392 11.904C96.0818 11.4373 96.8005 11.204 97.9952 11.204C99.2645 11.204 100.02 11.5493 100.263 12.24C100.356 12.5387 100.403 13.0147 100.403 13.668V16.412C101.224 16.3373 101.84 16.3 102.251 16.3C102.68 16.3 102.998 16.3187 103.203 16.356C103.427 16.3747 103.679 16.4587 103.959 16.608C104.444 16.8507 104.687 17.5693 104.687 18.764C104.687 19.94 104.435 20.6587 103.931 20.92C103.651 21.0507 103.399 21.1347 103.175 21.172C102.97 21.1907 102.652 21.2 102.223 21.2ZM111.189 26.044H119.813C120.243 26.044 120.56 26.0627 120.765 26.1C120.989 26.1187 121.241 26.2027 121.521 26.352C122.025 26.6133 122.277 27.3413 122.277 28.536C122.277 29.8427 121.932 30.608 121.241 30.832C120.924 30.944 120.439 31 119.785 31H108.697C107.391 31 106.625 30.6453 106.401 29.936C106.289 29.6373 106.233 29.1613 106.233 28.508V12.94C106.233 11.988 106.411 11.344 106.765 11.008C107.12 10.6533 107.792 10.476 108.781 10.476H119.813C120.243 10.476 120.56 10.4947 120.765 10.532C120.989 10.5507 121.241 10.6347 121.521 10.784C122.025 11.0453 122.277 11.7733 122.277 12.968C122.277 14.2747 121.932 15.04 121.241 15.264C120.924 15.376 120.439 15.432 119.785 15.432H111.189V18.26H116.733C117.163 18.26 117.48 18.2787 117.685 18.316C117.909 18.3347 118.161 18.4187 118.441 18.568C118.945 18.8293 119.197 19.5573 119.197 20.752C119.197 22.0587 118.843 22.824 118.133 23.048C117.816 23.16 117.331 23.216 116.677 23.216H111.189V26.044ZM133.665 17.812C133.777 16.7667 134.514 16.244 135.877 16.244C136.605 16.244 137.146 16.3 137.501 16.412C137.855 16.524 138.098 16.72 138.229 17C138.378 17.28 138.462 17.532 138.481 17.756C138.518 17.9613 138.537 18.2787 138.537 18.708V28.508C138.537 28.9373 138.518 29.264 138.481 29.488C138.462 29.6933 138.387 29.936 138.257 30.216C137.995 30.7013 137.351 30.944 136.325 30.944C135.317 30.944 134.635 30.8227 134.281 30.58C133.945 30.3187 133.749 29.9453 133.693 29.46C133.002 30.4493 131.845 30.944 130.221 30.944C128.615 30.944 127.122 30.2067 125.741 28.732C124.359 27.2573 123.669 25.5493 123.669 23.608C123.669 21.648 124.359 19.94 125.741 18.484C127.141 17.0093 128.671 16.272 130.333 16.272C130.967 16.272 131.546 16.384 132.069 16.608C132.591 16.832 132.955 17.0467 133.161 17.252C133.366 17.4387 133.534 17.6253 133.665 17.812ZM128.569 23.636C128.569 24.252 128.811 24.812 129.297 25.316C129.782 25.8013 130.37 26.044 131.061 26.044C131.751 26.044 132.321 25.792 132.769 25.288C133.235 24.784 133.469 24.2333 133.469 23.636C133.469 23.02 133.245 22.4507 132.797 21.928C132.367 21.4053 131.779 21.144 131.033 21.144C130.305 21.144 129.707 21.4053 129.241 21.928C128.793 22.4507 128.569 23.02 128.569 23.636ZM140.88 29.684C140.526 29.46 140.348 29.1053 140.348 28.62C140.348 28.1347 140.703 27.3973 141.412 26.408C141.618 26.0907 141.944 25.932 142.392 25.932C142.859 25.932 143.484 26.1653 144.268 26.632C145.052 27.08 145.762 27.304 146.396 27.304C147.535 27.304 148.104 27.08 148.104 26.632C148.104 26.2773 147.479 26.016 146.228 25.848C145.052 25.68 143.886 25.2413 142.728 24.532C142.187 24.196 141.739 23.6733 141.384 22.964C141.03 22.236 140.852 21.3773 140.852 20.388C140.852 17.4387 142.878 15.964 146.928 15.964C148.254 15.964 149.616 16.2813 151.016 16.916C151.67 17.2147 151.996 17.588 151.996 18.036C151.996 18.484 151.791 19.0347 151.38 19.688C150.97 20.3413 150.55 20.668 150.12 20.668C149.896 20.668 149.476 20.528 148.86 20.248C148.263 19.968 147.61 19.828 146.9 19.828C145.799 19.828 145.248 20.0333 145.248 20.444C145.248 21.004 145.883 21.368 147.152 21.536C148.384 21.6667 149.579 22.0213 150.736 22.6C151.278 22.8613 151.726 23.3187 152.08 23.972C152.454 24.6067 152.64 25.4093 152.64 26.38C152.64 27.3507 152.454 28.1813 152.08 28.872C151.726 29.544 151.222 30.048 150.568 30.384C149.374 30.9627 147.871 31.252 146.06 31.252C144.268 31.252 142.542 30.7293 140.88 29.684ZM167.067 16.412C168.168 16.8973 168.719 17.4853 168.719 18.176C168.719 18.512 168.644 18.8293 168.495 19.128C168.345 19.4267 168.271 19.5853 168.271 19.604L160.935 36.012C160.785 36.3667 160.655 36.6373 160.543 36.824C160.449 37.0107 160.291 37.188 160.067 37.356C159.843 37.524 159.563 37.608 159.227 37.608C158.891 37.608 158.396 37.468 157.743 37.188C156.641 36.7027 156.091 36.124 156.091 35.452C156.091 35.004 156.987 32.8667 158.779 29.04L153.207 19.66C152.833 19.044 152.647 18.5867 152.647 18.288C152.647 17.6907 153.151 17.0933 154.159 16.496C154.793 16.1227 155.288 15.936 155.643 15.936C155.997 15.936 156.287 16.0107 156.511 16.16C156.735 16.3093 156.893 16.468 156.987 16.636C157.099 16.7853 157.612 17.6533 158.527 19.24C159.46 20.808 160.347 22.2733 161.187 23.636C161.28 23.3373 161.784 22.1893 162.699 20.192C163.613 18.176 164.099 17.1027 164.155 16.972C164.229 16.8413 164.341 16.6827 164.491 16.496C164.733 16.1787 165.069 16.02 165.499 16.02C165.947 16.02 166.469 16.1507 167.067 16.412Z" fill="white"/>
</svg>
