<svg width="179" height="42" viewBox="0 0 179 42" fill="none" xmlns="http://www.w3.org/2000/svg">
<path d="M28.4097 30.3072C27.6218 29.3899 26.6145 28.687 25.4816 28.2638C24.3488 27.8406 23.1273 27.711 21.9309 27.8871C20.8483 28.0486 19.7428 27.9539 18.7034 27.6105C17.664 27.2671 16.7196 26.6847 15.9462 25.91L7.90204 17.865C7.63144 17.6007 7.47376 17.2419 7.46211 16.8639C7.45046 16.4859 7.58574 16.118 7.83955 15.8376C7.98928 15.6789 8.16932 15.5519 8.36901 15.464C8.56871 15.3762 8.784 15.3293 9.00214 15.3261C9.22029 15.323 9.43685 15.3636 9.63901 15.4456C9.84117 15.5276 10.0248 15.6494 10.1791 15.8036L17.3913 23.0159C17.5975 23.2291 17.8753 23.3587 18.1712 23.3795C18.4671 23.4004 18.7602 23.3111 18.9943 23.1289C19.1205 23.0254 19.2235 22.8967 19.2969 22.751C19.3703 22.6052 19.4123 22.4458 19.4203 22.2828C19.4284 22.1199 19.4022 21.957 19.3435 21.8048C19.2849 21.6526 19.195 21.5143 19.0796 21.3989L11.8622 14.1815C11.5565 13.8848 11.3773 13.4814 11.362 13.0557C11.3468 12.6299 11.4966 12.2148 11.7803 11.8969C11.9277 11.7401 12.1052 11.6146 12.3021 11.5277C12.499 11.4408 12.7113 11.3943 12.9265 11.391C13.1417 11.3878 13.3553 11.4277 13.5548 11.5086C13.7543 11.5894 13.9355 11.7095 14.0876 11.8616L21.3167 19.091C21.523 19.3042 21.8007 19.4337 22.0966 19.4545C22.3925 19.4753 22.6857 19.386 22.9197 19.2038C23.0458 19.1003 23.1488 18.9716 23.2222 18.8259C23.2955 18.6802 23.3376 18.5207 23.3456 18.3578C23.3536 18.1949 23.3275 18.0321 23.2688 17.8799C23.2102 17.7277 23.1203 17.5894 23.005 17.474L15.7228 10.1918C15.5699 10.039 15.45 9.85644 15.3704 9.6555C15.2907 9.45455 15.2531 9.23943 15.2598 9.02338C15.2665 8.80734 15.3174 8.59496 15.4093 8.39934C15.5013 8.20372 15.6323 8.029 15.7943 7.88595C16.0876 7.63906 16.4636 7.51249 16.8464 7.53174C17.2293 7.55098 17.5907 7.7146 17.8577 7.98965L25.8623 15.9942C26.637 16.7676 27.2194 17.7119 27.5628 18.7513C27.9062 19.7907 28.0009 20.8962 27.8394 21.9789C27.6642 23.1752 27.7943 24.3964 28.2174 25.529C28.6405 26.6616 29.343 27.6689 30.2595 28.4574L30.3249 28.5132C34.4388 32.0207 40.8613 29.7281 41.7278 24.391C41.9635 22.9345 42.0467 21.4574 41.9761 19.9836C41.4586 9.00231 32.3901 0.207545 21.3976 0.00376941C18.5734 -0.0497475 15.7673 0.467082 13.1475 1.52333C10.5276 2.57957 8.1478 4.15352 6.15042 6.15096C4.15305 8.14841 2.57919 10.5283 1.52304 13.1482C0.466892 15.7681 -0.0498357 18.5741 0.00378389 21.3984C0.20756 32.3875 8.99999 41.4547 19.9777 41.9753C21.4266 42.0452 22.8788 41.9665 24.3117 41.7404C29.6705 40.8916 31.954 34.4152 28.4097 30.3072Z" fill="black"/>
<path d="M53.063 13.2458C53.063 12.2257 53.3595 11.4192 53.9526 10.8261C54.5456 10.2331 55.3522 9.93652 56.3722 9.93652H68.1147C68.2808 10.1975 68.4231 10.5414 68.5417 10.9684C68.6841 11.3954 68.7552 11.8462 68.7552 12.3206C68.7552 13.222 68.5536 13.8626 68.1503 14.2421C67.7708 14.6217 67.2607 14.8114 66.6202 14.8114H59.1122V18.1207H67.1184C67.2845 18.3816 67.4268 18.7256 67.5454 19.1526C67.6877 19.5559 67.7589 19.9947 67.7589 20.4692C67.7589 21.3706 67.5691 22.0111 67.1896 22.3907C66.81 22.7702 66.3 22.96 65.6595 22.96H59.1122V26.6963H68.2571C68.4231 26.9572 68.5655 27.3012 68.6841 27.7282C68.8264 28.1552 68.8976 28.6059 68.8976 29.0804C68.8976 29.9818 68.6959 30.6342 68.2927 31.0374C67.9131 31.417 67.4031 31.6068 66.7626 31.6068H56.3722C55.3522 31.6068 54.5456 31.3102 53.9526 30.7172C53.3595 30.1241 53.063 29.3176 53.063 28.2975V13.2458Z" fill="black"/>
<path d="M79.4961 27.657C79.8994 27.657 80.3383 27.6214 80.8127 27.5503C81.3109 27.4554 81.6786 27.3368 81.9158 27.1944V24.3478L79.3538 24.5613C78.6896 24.6087 78.144 24.751 77.717 24.9883C77.29 25.2255 77.0765 25.5813 77.0765 26.0558C77.0765 26.5302 77.2544 26.9216 77.6102 27.23C77.9898 27.5147 78.6184 27.657 79.4961 27.657ZM79.2115 13.6728C80.4925 13.6728 81.6548 13.8032 82.6986 14.0642C83.7661 14.3251 84.6676 14.7284 85.403 15.274C86.1621 15.7959 86.7433 16.472 87.1465 17.3023C87.5498 18.1088 87.7515 19.0696 87.7515 20.1845V28.1552C87.7515 28.772 87.5735 29.282 87.2177 29.6853C86.8856 30.0648 86.4823 30.3969 86.0079 30.6816C84.4659 31.6068 82.2953 32.0694 79.4961 32.0694C78.2388 32.0694 77.1002 31.9507 76.0801 31.7135C75.0838 31.4763 74.2179 31.1205 73.4825 30.646C72.7709 30.1716 72.2134 29.5667 71.8101 28.8313C71.4306 28.0959 71.2408 27.2419 71.2408 26.2693C71.2408 24.6324 71.7271 23.3752 72.6997 22.4974C73.6723 21.6197 75.1787 21.0741 77.2188 20.8606L81.8802 20.3624V20.1134C81.8802 19.4254 81.5718 18.9391 80.955 18.6544C80.362 18.346 79.4961 18.1919 78.3575 18.1919C77.456 18.1919 76.5783 18.2867 75.7243 18.4765C74.8703 18.6663 74.0993 18.9035 73.4114 19.1882C73.103 18.9747 72.842 18.6544 72.6285 18.2274C72.415 17.7767 72.3083 17.3141 72.3083 16.8397C72.3083 16.2229 72.4506 15.7366 72.7353 15.3808C73.0437 15.0012 73.5063 14.681 74.123 14.42C74.811 14.1591 75.6175 13.9693 76.5427 13.8507C77.4916 13.7321 78.3812 13.6728 79.2115 13.6728Z" fill="black"/>
<path d="M97.4993 25.5576C97.4993 26.1744 97.6891 26.6132 98.0687 26.8742C98.472 27.1351 99.0294 27.2656 99.7411 27.2656C100.097 27.2656 100.465 27.2419 100.844 27.1944C101.224 27.1233 101.556 27.0402 101.841 26.9454C102.054 27.2063 102.232 27.5028 102.374 27.8349C102.54 28.1433 102.623 28.5229 102.623 28.9736C102.623 29.875 102.279 30.6104 101.591 31.1798C100.927 31.7491 99.7411 32.0338 98.0331 32.0338C95.9455 32.0338 94.3324 31.5593 93.1938 30.6104C92.0788 29.6615 91.5213 28.1196 91.5213 25.9846V10.7549C91.7823 10.6838 92.15 10.6126 92.6244 10.5414C93.1226 10.4465 93.6445 10.3991 94.1901 10.3991C95.2339 10.3991 96.0404 10.5889 96.6098 10.9684C97.2028 11.3243 97.4993 12.0952 97.4993 13.2814V15.5587H102.161C102.303 15.8196 102.434 16.1517 102.552 16.555C102.695 16.9346 102.766 17.3616 102.766 17.836C102.766 18.6663 102.576 19.2712 102.196 19.6508C101.841 20.0066 101.354 20.1845 100.737 20.1845H97.4993V25.5576Z" fill="black"/>
<path d="M106.16 13.2458C106.16 12.2257 106.457 11.4192 107.05 10.8261C107.643 10.2331 108.449 9.93652 109.469 9.93652H121.212C121.378 10.1975 121.52 10.5414 121.639 10.9684C121.781 11.3954 121.852 11.8462 121.852 12.3206C121.852 13.222 121.651 13.8626 121.247 14.2421C120.868 14.6217 120.358 14.8114 119.717 14.8114H112.209V18.1207H120.215C120.381 18.3816 120.524 18.7256 120.642 19.1526C120.785 19.5559 120.856 19.9947 120.856 20.4692C120.856 21.3706 120.666 22.0111 120.287 22.3907C119.907 22.7702 119.397 22.96 118.756 22.96H112.209V26.6963H121.354C121.52 26.9572 121.662 27.3012 121.781 27.7282C121.923 28.1552 121.995 28.6059 121.995 29.0804C121.995 29.9818 121.793 30.6342 121.39 31.0374C121.01 31.417 120.5 31.6068 119.86 31.6068H109.469C108.449 31.6068 107.643 31.3102 107.05 30.7172C106.457 30.1241 106.16 29.3176 106.16 28.2975V13.2458Z" fill="black"/>
<path d="M132.593 27.657C132.996 27.657 133.435 27.6214 133.91 27.5503C134.408 27.4554 134.776 27.3368 135.013 27.1944V24.3478L132.451 24.5613C131.787 24.6087 131.241 24.751 130.814 24.9883C130.387 25.2255 130.173 25.5813 130.173 26.0558C130.173 26.5302 130.351 26.9216 130.707 27.23C131.087 27.5147 131.715 27.657 132.593 27.657ZM132.308 13.6728C133.589 13.6728 134.752 13.8032 135.796 14.0642C136.863 14.3251 137.765 14.7284 138.5 15.274C139.259 15.7959 139.84 16.472 140.244 17.3023C140.647 18.1088 140.848 19.0696 140.848 20.1845V28.1552C140.848 28.772 140.671 29.282 140.315 29.6853C139.983 30.0648 139.579 30.3969 139.105 30.6816C137.563 31.6068 135.392 32.0694 132.593 32.0694C131.336 32.0694 130.197 31.9507 129.177 31.7135C128.181 31.4763 127.315 31.1205 126.58 30.646C125.868 30.1716 125.31 29.5667 124.907 28.8313C124.528 28.0959 124.338 27.2419 124.338 26.2693C124.338 24.6324 124.824 23.3752 125.797 22.4974C126.769 21.6197 128.276 21.0741 130.316 20.8606L134.977 20.3624V20.1134C134.977 19.4254 134.669 18.9391 134.052 18.6544C133.459 18.346 132.593 18.1919 131.454 18.1919C130.553 18.1919 129.675 18.2867 128.821 18.4765C127.967 18.6663 127.196 18.9035 126.508 19.1882C126.2 18.9747 125.939 18.6544 125.726 18.2274C125.512 17.7767 125.405 17.3141 125.405 16.8397C125.405 16.2229 125.548 15.7366 125.832 15.3808C126.141 15.0012 126.603 14.681 127.22 14.42C127.908 14.1591 128.715 13.9693 129.64 13.8507C130.589 13.7321 131.478 13.6728 132.308 13.6728Z" fill="black"/>
<path d="M159.136 26.3404C159.136 28.1433 158.46 29.5548 157.108 30.5749C155.756 31.5949 153.763 32.1049 151.13 32.1049C150.134 32.1049 149.209 32.0338 148.355 31.8914C147.501 31.7491 146.765 31.5356 146.148 31.2509C145.555 30.9426 145.081 30.563 144.725 30.1123C144.393 29.6615 144.227 29.1278 144.227 28.511C144.227 27.9417 144.346 27.4672 144.583 27.0877C144.82 26.6844 145.105 26.3523 145.437 26.0914C146.125 26.4709 146.908 26.8149 147.785 27.1233C148.687 27.4079 149.719 27.5503 150.881 27.5503C151.616 27.5503 152.174 27.4435 152.553 27.23C152.957 27.0165 153.158 26.7319 153.158 26.376C153.158 26.0439 153.016 25.783 152.731 25.5932C152.447 25.4034 151.972 25.2492 151.308 25.1306L150.241 24.9171C148.177 24.5138 146.635 23.8852 145.615 23.0312C144.618 22.1535 144.12 20.9081 144.12 19.2949C144.12 18.4172 144.31 17.6225 144.69 16.9109C145.069 16.1992 145.603 15.6061 146.291 15.1317C146.979 14.6572 147.797 14.2896 148.746 14.0286C149.719 13.7677 150.786 13.6372 151.949 13.6372C152.826 13.6372 153.645 13.7084 154.404 13.8507C155.187 13.9693 155.863 14.1591 156.432 14.42C157.001 14.681 157.452 15.0249 157.784 15.4519C158.116 15.8552 158.282 16.3415 158.282 16.9109C158.282 17.4565 158.176 17.9309 157.962 18.3342C157.772 18.7137 157.523 19.034 157.215 19.2949C157.025 19.1763 156.74 19.0577 156.361 18.9391C155.981 18.7968 155.566 18.6782 155.115 18.5833C154.665 18.4647 154.202 18.3698 153.728 18.2986C153.277 18.2274 152.862 18.1919 152.482 18.1919C151.699 18.1919 151.095 18.2867 150.668 18.4765C150.241 18.6426 150.027 18.9154 150.027 19.2949C150.027 19.5559 150.146 19.7694 150.383 19.9354C150.62 20.1015 151.071 20.2557 151.735 20.398L152.838 20.6471C155.115 21.169 156.729 21.8925 157.677 22.8177C158.65 23.7191 159.136 24.8934 159.136 26.3404Z" fill="black"/>
<path d="M164.244 27.0877C163.983 26.4946 163.698 25.8304 163.39 25.095C163.105 24.3596 162.797 23.5175 162.465 22.5686C162.156 21.6197 161.824 20.5404 161.468 19.3305C161.136 18.097 160.781 16.6855 160.401 15.0961C160.733 14.764 161.172 14.4793 161.718 14.2421C162.287 13.9812 162.904 13.8507 163.568 13.8507C164.398 13.8507 165.086 14.0286 165.632 14.3844C166.177 14.7165 166.581 15.3571 166.842 16.3059L169.653 26.0914H169.795C170.08 25.2848 170.352 24.4071 170.613 23.4582C170.898 22.5093 171.171 21.5367 171.432 20.5404C171.693 19.5203 171.93 18.5121 172.143 17.5158C172.381 16.4957 172.582 15.4994 172.748 14.5268C173.602 14.0761 174.539 13.8507 175.559 13.8507C176.39 13.8507 177.078 14.0286 177.623 14.3844C178.169 14.7403 178.442 15.357 178.442 16.2348C178.442 16.8753 178.359 17.6225 178.193 18.4765C178.027 19.3068 177.801 20.1964 177.517 21.1453C177.256 22.0942 176.935 23.0786 176.556 24.0987C176.2 25.095 175.82 26.0795 175.417 27.0521C175.014 28.0247 174.599 28.9499 174.172 29.8276C173.745 30.6816 173.33 31.4526 172.926 32.1405C172.262 33.3029 171.645 34.2518 171.076 34.9872C170.507 35.7226 169.961 36.2919 169.439 36.6952C168.917 37.1222 168.395 37.4069 167.873 37.5492C167.352 37.7152 166.806 37.7983 166.237 37.7983C165.24 37.7983 164.434 37.5017 163.817 36.9087C163.2 36.3156 162.832 35.5447 162.714 34.5958C163.473 34.0027 164.232 33.3385 164.991 32.6031C165.75 31.8914 166.438 31.1561 167.055 30.3969C166.652 30.2783 166.213 30.0055 165.738 29.5785C165.288 29.1278 164.79 28.2975 164.244 27.0877Z" fill="black"/>
</svg>
