<svg width="60" height="60" viewBox="0 0 60 60" fill="none" xmlns="http://www.w3.org/2000/svg">
<path d="M53.4434 11.25H51.5684V5.625C51.5684 4.07437 50.3065 2.8125 48.7559 2.8125C47.2052 2.8125 45.9434 4.07437 45.9434 5.625V11.25H44.0684V5.625C44.0684 3.04031 46.1712 0.9375 48.7559 0.9375C51.3405 0.9375 53.4434 3.04031 53.4434 5.625V11.25Z" fill="black"/>
<path d="M17.8125 30C22.9902 30 27.1875 25.8027 27.1875 20.625C27.1875 15.4473 22.9902 11.25 17.8125 11.25C12.6348 11.25 8.4375 15.4473 8.4375 20.625C8.4375 25.8027 12.6348 30 17.8125 30Z" fill="#6DCAAB"/>
<path d="M14.0625 33.75H17.8125C18.33 33.75 18.75 34.17 18.75 34.6875V45.9375C18.75 46.455 18.33 46.875 17.8125 46.875H14.0625V33.75Z" fill="#6DCAAB"/>
<path d="M39.8878 28.4081C40.83 29.3869 42.15 30 43.6134 30H53.8866C56.7403 30 59.0625 27.6778 59.0625 24.8241C59.0625 24.4603 59.0231 24.0956 58.9472 23.7394L56.5463 12.5362C56.2706 11.2472 55.1137 10.3125 53.7966 10.3125H43.7034C42.3863 10.3125 41.2294 11.2472 40.9537 12.5353L38.5528 23.7384C38.4769 24.0947 38.4375 24.4603 38.4375 24.8241C38.4375 25.9791 38.8219 27.0431 39.4641 27.9056C39.6253 28.0547 39.7678 28.2225 39.8878 28.4081Z" fill="#6DCAAB"/>
<path d="M13.125 4.6875H15V6.5625H13.125V4.6875Z" fill="black"/>
<path d="M16.875 4.6875H22.5V6.5625H16.875V4.6875Z" fill="black"/>
<path d="M14.0625 53.4375H21.5625V55.3125H14.0625V53.4375Z" fill="black"/>
<path d="M16.4753 24.6891L13 21.2138L14.3256 19.8881L16.4753 22.0378L22.1744 16L23.5 17.3256L16.4753 24.6891Z" fill="black"/>
<path d="M55.5353 31.9375C54.5772 31.9375 53.6763 32.3106 52.9975 32.9884L51.9456 34.0412L51.9437 34.0356C51.6344 32.8 50.53 31.9375 49.2569 31.9375C48.0269 31.9375 46.9319 32.7634 46.5944 33.9466L45.5613 37.5625H39.5528L37.1031 36.9512C36.8219 36.8809 36.625 36.6278 36.625 36.3381C36.625 36.1684 36.6906 36.01 36.8097 35.8909L40.2606 32.4391C40.9394 31.7612 41.3125 30.8612 41.3125 29.9012C41.3125 27.9231 39.7028 26.3125 37.7228 26.3125C36.7647 26.3125 35.8638 26.6856 35.185 27.3634L34.75 27.7984V5.6875C34.75 3.10281 32.6472 1 30.0625 1H5.6875C3.10281 1 1 3.10281 1 5.6875V54.4375C1 57.0222 3.10281 59.125 5.6875 59.125H30.0625C32.6472 59.125 34.75 57.0222 34.75 54.4375V46H40.6366C41.1428 46 41.6509 45.9541 42.1459 45.8631L50.3519 44.3716C51.4825 44.1653 52.5091 43.6281 53.3228 42.8144L58.0722 38.0641C58.7519 37.3862 59.125 36.4862 59.125 35.5262C59.125 33.5481 57.5153 31.9375 55.5353 31.9375ZM48.3972 34.4603C48.5059 34.0788 48.8594 33.8125 49.2569 33.8125C49.6675 33.8125 50.0247 34.0919 50.125 34.4903L50.3988 35.5881L48.6991 37.2887C48.5219 37.465 48.2856 37.5625 48.0353 37.5625H47.5103L48.3972 34.4603ZM32.875 54.4375C32.875 55.9881 31.6131 57.25 30.0625 57.25H5.6875C4.13687 57.25 2.875 55.9881 2.875 54.4375V5.6875C2.875 4.13687 4.13687 2.875 5.6875 2.875H30.0625C31.6131 2.875 32.875 4.13687 32.875 5.6875V29.6744L31 31.5494V10.375C31 9.34094 30.1591 8.5 29.125 8.5H6.625C5.59094 8.5 4.75 9.34094 4.75 10.375V49.75C4.75 50.7841 5.59094 51.625 6.625 51.625H29.125C30.1591 51.625 31 50.7841 31 49.75V46H32.875V54.4375ZM6.625 34.75H14.125V41.3125H16V34.75H17.875V46H16V43.1875H14.125V46H6.625V34.75ZM6.625 47.875H17.875C18.9091 47.875 19.75 47.0341 19.75 46H29.125V49.75H6.625V47.875ZM17.875 32.875H6.625V10.375H29.125V33.4244L27.4113 35.1381C27.0559 35.4925 26.5853 35.6875 26.0847 35.6875H19.75V34.75C19.75 33.7159 18.9091 32.875 17.875 32.875ZM56.7475 36.7384L51.9972 41.4888C51.4544 42.0306 50.7691 42.3897 50.0163 42.5266L41.8094 44.0191C41.425 44.0894 41.0303 44.125 40.6366 44.125H19.75V37.5625H26.0847C27.0859 37.5625 28.0272 37.1725 28.7369 36.4637L36.5106 28.6891C36.835 28.3656 37.2653 28.1875 37.7228 28.1875C38.6688 28.1875 39.4375 28.9562 39.4375 29.9012C39.4375 30.3522 39.2547 30.7937 38.935 31.1134L35.4841 34.5644C35.0106 35.0378 34.75 35.6678 34.75 36.3372C34.75 37.4894 35.5309 38.4897 36.6484 38.7691L39.2097 39.4094L48.0353 39.4375C48.7863 39.4375 49.4931 39.145 50.0247 38.6134L54.3231 34.3141C54.6475 33.9906 55.0778 33.8125 55.5353 33.8125C56.4813 33.8125 57.25 34.5812 57.25 35.5262C57.25 35.9781 57.0672 36.4187 56.7475 36.7384Z" fill="black"/>
</svg>
