<svg width="40" height="40" viewBox="0 0 40 40" fill="none" xmlns="http://www.w3.org/2000/svg">
<g clip-path="url(#clip0)">
<path d="M20.0382 40.0001C9.69988 40.0001 1.28857 31.5885 1.28857 21.2505C1.28857 11.1282 9.35136 2.85386 19.3916 2.51165V0L27.0225 5.08707L19.3916 10.1738V7.68806C12.204 8.0268 6.46088 13.9808 6.46088 21.2505C6.46088 28.7365 12.5518 34.8278 20.0382 34.8278C27.5245 34.8278 33.6155 28.7365 33.6155 21.2505V20.604H38.7878V21.2505C38.7878 31.5885 30.3761 40.0001 20.0382 40.0001Z" fill="#6DCAAB"/>
<path d="M25.2104 11.5524H14.8658C14.1527 11.5524 13.5728 12.1324 13.5728 12.8455V14.1386C13.5728 14.8517 14.1527 15.4317 14.8658 15.4317V16.9148C14.8658 18.9033 16.0295 20.7391 17.8308 21.5905C17.9956 21.6688 18.0985 21.8225 18.0985 21.9914C18.0985 22.1613 17.9956 22.3147 17.8308 22.3927C16.0295 23.2444 14.8658 25.0799 14.8658 27.0693V28.3624C14.1527 28.3624 13.5728 28.9424 13.5728 29.6555V30.9486C13.5728 31.6617 14.1527 32.2417 14.8658 32.2417H25.2104C25.9236 32.2417 26.5035 31.6617 26.5035 30.9486V29.6555C26.5035 28.9424 25.9236 28.3624 25.2104 28.3624V27.0693C25.2104 25.0799 24.0465 23.2444 22.2454 22.3936C22.0803 22.3147 21.9777 22.1613 21.9777 21.9914C21.9777 21.8219 22.0803 21.6688 22.2461 21.5905C24.0465 20.7391 25.2104 18.9033 25.2104 16.9148V15.4317C25.9236 15.4317 26.5035 14.8517 26.5035 14.1386V12.8455C26.5035 12.1324 25.9236 11.5524 25.2104 11.5524ZM25.2117 30.9486H14.8658V29.6555H25.2104L25.2117 30.9486ZM23.9173 16.9148C23.9173 18.4064 23.0438 19.7828 21.6939 20.4215C21.0802 20.7107 20.6847 21.3266 20.6847 21.9914C20.6847 22.656 21.0802 23.2728 21.6939 23.5623C23.0438 24.2007 23.9173 25.5771 23.9173 27.0693V28.3624H16.1589V27.0693C16.1589 25.5771 17.0324 24.2007 18.3823 23.5623C18.9957 23.2735 19.3916 22.6566 19.3916 21.9914C19.3916 21.326 18.9957 20.7107 18.383 20.4209C17.0318 19.7822 16.1589 18.4055 16.1589 16.9142V15.4317H23.9173V16.9148ZM14.8658 14.1386V12.8455H25.2104L25.2117 14.1386H14.8658Z" fill="black"/>
<path d="M32.9839 17.1121L34.2328 16.7775L34.5674 18.0263L33.3185 18.361L32.9839 17.1121Z" fill="black"/>
<path d="M31.4741 13.9028L32.5939 13.2562L33.2404 14.3763L32.1203 15.0225L31.4741 13.9028Z" fill="black"/>
<path d="M29.1816 11.1923L30.0959 10.278L31.0101 11.1923L30.0959 12.1065L29.1816 11.1923Z" fill="black"/>
<path d="M26.2666 9.16773L26.9128 8.04797L28.0329 8.69419L27.3864 9.81427L26.2666 9.16773Z" fill="black"/>
<path d="M37.0327 17.2103L38.3002 16.9584L38.5521 18.2259L37.2846 18.4778L37.0327 17.2103Z" fill="black"/>
<path d="M35.9175 13.9744L37.1127 13.4794L37.6074 14.674L36.4122 15.169L35.9175 13.9744Z" fill="black"/>
<path d="M34.1919 11.0145L35.2668 10.296L35.985 11.3706L34.9098 12.0891L34.1919 11.0145Z" fill="black"/>
<path d="M31.9243 8.44984L32.8386 7.53528L33.7528 8.44984L32.8386 9.36408L31.9243 8.44984Z" fill="black"/>
<path d="M29.1982 6.37638L29.9171 5.30145L30.9914 6.01997L30.2729 7.0949L29.1982 6.37638Z" fill="black"/>
</g>
<defs>
<clipPath id="clip0">
<rect width="40" height="40" fill="white"/>
</clipPath>
</defs>
</svg>
