<svg width="50" height="50" viewBox="0 0 50 50" fill="none" xmlns="http://www.w3.org/2000/svg">
<path d="M10.4459 29.5113C10.5466 30.6 10.4696 33.5594 7.63451 37.6748C7.42006 37.9853 7.45897 38.4041 7.72529 38.6704C8.88115 39.8262 9.59678 40.5556 10.0987 41.066C10.7587 41.739 11.0601 42.0456 11.5011 42.4455C11.7955 42.7101 12.2411 42.7148 12.5387 42.4553C17.4802 38.1554 22.9688 29.2702 22.1746 18.3846C21.7092 11.9927 17.0469 7.35328 11.089 7.35328C4.9749 7.35328 0.000526428 12.3269 0.000526428 18.4411C0.000526428 24.3394 4.62998 29.1764 10.4459 29.5113Z" fill="#6DCAAB"/>
<path d="M38.1925 29.511C38.2939 30.5967 38.2192 33.5538 35.381 37.6745C35.1674 37.985 35.2056 38.4038 35.4718 38.6701C36.6254 39.8237 37.3403 40.5523 37.8415 41.0627C38.5037 41.7371 38.8059 42.0446 39.2468 42.4452C39.5414 42.7099 39.9869 42.7137 40.2844 42.4558C45.226 38.1559 50.7153 29.2722 49.9227 18.3843C49.4557 11.9932 44.7927 7.35298 38.8349 7.35298C32.7207 7.35298 27.7463 12.3266 27.7463 18.4408C27.7463 24.3398 32.3758 29.1776 38.1925 29.511Z" fill="#6DCAAB"/>
</svg>
