<svg width="100" height="100" viewBox="0 0 100 100" fill="none" xmlns="http://www.w3.org/2000/svg"><circle cx="50" cy="50" r="50" fill="#fff"/><path d="M64 80H36a2 2 0 110-4h28a2 2 0 110 4zm15.455-26.474C76.784 57.214 64.612 60 50 60c-14.614 0-26.787-2.787-29.456-6.476L20 48c0 4.418 13.431 8 30 8 16.569 0 30-3.582 30-8l-.545 5.526z" fill="#6DCAAB"/><path d="M71.493 63.637l-1.559-1.252c.482-.602.942-1.236 1.366-1.888l1.676 1.092a25.225 25.225 0 01-1.483 2.048zm-12.272 8.3l-.578-1.914a23.104 23.104 0 009.62-5.774l1.414 1.414a25.119 25.119 0 01-10.456 6.274zm-23.875-2.381a24.745 24.745 0 01-1.75-1.133l1.156-1.631c.521.368 1.061.718 1.607 1.039l-1.013 1.725zm-3.398-2.405a26.09 26.09 0 01-1.537-1.402l1.406-1.422c.449.444.926.879 1.418 1.293l-1.287 1.531zm-2.954-2.927a24.798 24.798 0 01-1.287-1.638l1.621-1.17c.375.518.773 1.025 1.186 1.507l-1.52 1.301z" fill="#000"/><path d="M73.758 42.085c.851-2.834 2.298-4.51 3.717-6.141C79.288 33.859 81 31.891 81 28c0-2.757-2.243-5-5-5s-5 2.243-5 5 2.243 5 5 5v-2c-1.654 0-3-1.346-3-3s1.346-3 3-3 3 1.346 3 3c0 3.143-1.339 4.682-3.033 6.631-1.446 1.663-3.119 3.6-4.108 6.875a50.982 50.982 0 00-3.051-.741c-.654-5.378-2.904-7.984-4.775-10.134C62.339 28.682 61 27.143 61 24c0-1.654 1.346-3 3-3s3 1.346 3 3-1.346 3-3 3v2c2.757 0 5-2.243 5-5s-2.243-5-5-5-5 2.243-5 5c0 3.891 1.712 5.859 3.524 7.943 1.763 2.027 3.572 4.116 4.222 8.42-3.371-.601-7.06-1.004-10.746-1.204h-1.689v2l1.636-.001c4.167.225 7.853.679 11.006 1.268.027.503.047 1.02.047 1.574v2h2v-2c0-.401-.012-.783-.026-1.16.854.191 1.667.389 2.42.599C71.148 44.761 71 46.26 71 48h2c0-1.518.115-2.819.31-3.968C76.967 45.273 79 46.714 79 48c0 2.923-11.032 7-29 7s-29-4.077-29-7c0-2.686 8.797-6.063 22.954-6.838h1.77v-2l-1.824.002C31.506 39.84 19 42.835 19 48c0 15.99 13.01 29 29 29h4c15.99 0 29-13.01 29-29 0-2.477-2.878-4.453-7.242-5.915zM52 75h-4c-13.691 0-25.026-10.245-26.762-23.47C26.144 55.104 38.353 57 50 57c11.647 0 23.856-1.896 28.762-5.47C77.026 64.755 65.691 75 52 75z" fill="#000"/><path d="M41 52h-5c-1.654 0-3-1.346-3-3a1 1 0 00-1-1h-5v-2h5c1.654 0 3 1.346 3 3a1 1 0 001 1h5v2z" fill="#000"/><path d="M48.764 35h-1.292a7.21 7.21 0 01-3.356-.844l-.116.069V45a2 2 0 104 0v-4a2 2 0 114 0v9a2 2 0 104 0V27.764A7.236 7.236 0 0148.764 35z" fill="#6DCAAB"/><path d="M48.764 36h-1.292a8.186 8.186 0 01-7.063-4H22c-1.654 0-3-1.346-3-3s1.346-3 3-3h35v1.764C57 32.306 53.306 36 48.764 36zM22 28a1 1 0 000 2h19.618l.276.553A6.202 6.202 0 0047.471 34h1.292a6.243 6.243 0 006.231-6H22z" fill="#000"/><path d="M63 52c1.657 0 3-.895 3-2s-1.343-2-3-2-3 .895-3 2 1.343 2 3 2z" fill="#6DCAAB"/></svg>