<svg width="100" height="100" viewBox="0 0 100 100" fill="none" xmlns="http://www.w3.org/2000/svg"><circle cx="50" cy="50" r="50" fill="#fff"/><path d="M28 39h-3v39h3V39zm6 6h-3v33h3V45zm6 6h-3v27h3V51zm6 6h-3v21h3V57zm6 7h-3v14h3V64zm6 6h-3v8h3v-8zm5-13a9 9 0 100-18 9 9 0 000 18z" fill="#6DCAAB"/><path d="M63 51c-.551 0-1-.449-1-1h-2c0 1.302.839 2.402 2 2.816V55h2v-2.184A2.996 2.996 0 0066 50c0-1.654-1.346-3-3-3-.551 0-1-.449-1-1 0-.551.449-1 1-1 .551 0 1 .449 1 1h2a2.996 2.996 0 00-2-2.816V41h-2v2.184A2.996 2.996 0 0060 46c0 1.654 1.346 3 3 3 .551 0 1 .449 1 1 0 .551-.449 1-1 1z" fill="#000"/><path d="M62.954 60.998L63 61c7.168 0 13-5.832 13-13.029a12.91 12.91 0 00-3.808-9.192l-2.591-2.591A1.99 1.99 0 0070 35v-2c0-.797-.472-1.481-1.148-1.802L73.2 25.4c.516-.687.8-1.54.8-2.4 0-2.206-1.794-4-4-4-1.329 0-2.036.807-2.504 1.341-.436.498-.609.659-.999.659s-.563-.161-.999-.659C65.03 19.807 64.323 19 62.994 19s-2.035.808-2.502 1.342c-.434.497-.608.658-.995.658s-.561-.161-.996-.658C58.034 19.808 57.328 19 56 19c-2.206 0-4 1.794-4 4 0 .86.284 1.713.8 2.4l4.348 5.798A1.997 1.997 0 0056 33v2c0 .446.152.854.399 1.187l-2.591 2.591c-2.331 2.331-3.653 5.394-3.782 8.694L35.411 33H24v46h38v-2h-6V66.912l9.603 10.071L61.586 81H76V66.586l-3.98 3.98-9.066-9.568zM54 23c0-1.103.897-2 2-2 .387 0 .561.161.995.658.467.534 1.173 1.342 2.502 1.342 1.328 0 2.034-.808 2.501-1.342.435-.497.608-.658.996-.658.39 0 .563.161.999.659.468.534 1.175 1.341 2.504 1.341s2.036-.807 2.504-1.341c.436-.498.609-.659.999-.659a2.002 2.002 0 011.6 3.2L66.5 31h-1.174l1.636-5.725-1.923-.55L63.246 31h-.491l-1.793-6.275-1.923.55L60.674 31H59.5l-5.1-6.801A2.007 2.007 0 0154 23zm1.222 17.192L58.414 37H60v-2h-2v-2h10v2h-6v2h5.586l3.192 3.192C72.856 42.27 74 45.032 74 48c0 6.065-4.935 11-11 11s-11-4.935-11-11.029c0-2.939 1.144-5.701 3.222-7.779zM26 35.449l4 4.195V77h-4V35.449zm22 23.073V77h-4V54.327l4 4.195zM42 77h-4V48.034l4 4.195V77zm-6 0h-4V41.742l4 4.195V77zm18 0h-4V60.62l4 4.195V77zm20 2h-7.586l1.983-1.983L28.335 35h6.254l15.659 15.507c.967 4.929 4.73 8.855 9.563 10.081l12.17 12.846 2.02-2.02V79H74z" fill="#000"/></svg>