<svg width="100" height="100" viewBox="0 0 100 100" fill="none" xmlns="http://www.w3.org/2000/svg"><circle cx="50" cy="50" r="50" fill="#fff"/><path d="M31 39v16h10v-7h12v-9H31z" fill="#6DCAAB"/><path d="M79.346 45H79V24c0-1.103-.897-2-2-2H23c-1.103 0-2 .897-2 2v38c0 1.103.897 2 2 2h34.842l.294.504 1.729-1.008-6.717-11.515 2.135-3.941 7.854 13.463 1.729-1.008L60.492 53H69v-2h-9.675l-2.333-4h20.017l-2.333 4H71v2h2.508l-4.373 7.496 1.729 1.008 7.854-13.463 2.135 3.941-6.717 11.515 1.729 1.008 7.283-12.485L79.346 45zM23 62V24h54v21h-2V26H25v34h30.508l1.167 2H23zm31.342-4H27V28h46v17H54.654l-3.802 7.019L54.342 58z" fill="#000"/><path d="M55 30H29v6h26v-6zm-2 4H31v-2h22v2zm0 4H31v2h22v-2zm-2 8H31v2h20v-2zm-10-4H31v2h10v-2zm0 8H31v2h10v-2zm0 4H31v2h10v-2zm12-12H43v2h10v-2z" fill="#000"/><path d="M67.978 42.476L64 41.062l-3.978 1.414.114-4.221-2.574-3.347 4.05-1.193L64 30.231l2.388 3.483 4.05 1.193-2.574 3.347.114 4.222zM67 84c-6.617 0-12-5.383-12-12s5.383-12 12-12 12 5.383 12 12-5.383 12-12 12zm0-19c-3.86 0-7 3.14-7 7s3.14 7 7 7 7-3.14 7-7-3.14-7-7-7z" fill="#6DCAAB"/><path d="M73.4 76.786l-1.6-1.199A5.946 5.946 0 0073 72c0-3.309-2.691-6-6-6a5.946 5.946 0 00-3.587 1.2l-1.2-1.602A7.937 7.937 0 0167 64c4.41 0 8 3.589 8 8a7.932 7.932 0 01-1.6 4.786zM67 80c-4.411 0-8-3.589-8-8 0-1.733.553-3.389 1.599-4.786l1.602 1.199A5.94 5.94 0 0061 72c0 3.309 2.691 6 6 6a5.946 5.946 0 003.587-1.2l1.199 1.602A7.937 7.937 0 0167 80z" fill="#000"/></svg>