<svg width="100" height="100" viewBox="0 0 100 100" fill="none" xmlns="http://www.w3.org/2000/svg"><circle cx="50" cy="50" r="50" fill="#fff"/><path d="M60.414 19H35v40h3v-2h-1V21h22v8h8v28h-2v2h4V27.586L60.414 19zM61 27v-4.586L65.586 27H61z" fill="#000"/><path d="M51 43.184A2.996 2.996 0 0049 46v2h2v-2c0-.552.45-1 1-1s1 .448 1 1v2h2v-2a2.996 2.996 0 00-2-2.816V41h9v12h2V39H51v4.184zM39 40h10v2H39v-2zm0-17h2v2h-2v-2zm4 0h14v2H43v-2zm-4 4h2v2h-2v-2zm4 0h14v2H43v-2zm-4 4h2v2h-2v-2zm4 0h14v2H43v-2zm-4 4h25v2H39v-2zm0 9h8v2h-8v-2z" fill="#000"/><path d="M52 77c-8.271 0-15-6.729-15-15s6.729-15 15-15 15 6.729 15 15-6.729 15-15 15z" fill="#6DCAAB"/><path d="M53 70.937V69h-2v1.94A9.012 9.012 0 0143.06 63H45v-2h-1.937a9.002 9.002 0 011.97-4.693l-1.55-1.268A11.02 11.02 0 0041 62c0 6.065 4.935 11 11 11 2.53 0 5.003-.883 6.96-2.485l-1.266-1.547A9.008 9.008 0 0153 70.937zM52 51c-2.53 0-5.003.883-6.96 2.485l1.266 1.547A9.011 9.011 0 0151 53.063V55h2v-1.94A9.012 9.012 0 0160.94 61H59v2h1.937a9.002 9.002 0 01-1.97 4.693l1.55 1.268A11.02 11.02 0 0063 62c0-6.065-4.935-11-11-11z" fill="#000"/><path d="M55 63h-4v-6h2v4h2v2zm13 18H36v-1c0-2.757 2.243-5 5-5h22c2.757 0 5 2.243 5 5v1zm-29.83-2h27.658A3.006 3.006 0 0063 77H41a3.006 3.006 0 00-2.83 2zM76 81c-1.654 0-3-1.346-3-3V61.296c-1.31-2.067-2-4.447-2-6.901v-1.687c0-4.519 2.511-8.581 6.553-10.603L79 41.382V78c0 1.654-1.346 3-3 3zm1-36.222a9.794 9.794 0 00-4 7.93v1.687c0 2.161.633 4.253 1.832 6.05l.168.252V78c0 .552.45 1 1 1s1-.448 1-1V44.778zM26 43h2v9h-2v-9z" fill="#000"/><path d="M27 81c-1.654 0-3-1.346-3-3V58.07a3.974 3.974 0 00-1.172-2.828l-.066-.065A5.97 5.97 0 0121 50.929V43h2v7.93c0 1.067.416 2.072 1.172 2.828l.066.065A5.97 5.97 0 0126 58.071V78c0 .552.45 1 1 1s1-.448 1-1V58.07c0-1.6.624-3.107 1.757-4.242l.077-.075A3.973 3.973 0 0031 50.929V43h2v7.93a5.967 5.967 0 01-1.757 4.242l-.077.075A3.973 3.973 0 0030 58.071V78c0 1.654-1.346 3-3 3z" fill="#000"/></svg>