<svg width="100" height="100" viewBox="0 0 100 100" fill="none" xmlns="http://www.w3.org/2000/svg"><circle cx="50" cy="50" r="50" fill="#fff"/><path d="M60 51h20v22H60V51zm-40 0h20v22H20V51zm9-30h12v13H29V21z" fill="#6DCAAB"/><path d="M72.96 61.666A3.965 3.965 0 0074 59c0-2.206-1.794-4-4-4s-4 1.794-4 4c0 1.028.4 1.957 1.04 2.666C64.658 62.784 63 65.199 63 68v1h14v-1c0-2.801-1.658-5.216-4.04-6.334zM68 59c0-1.103.897-2 2-2s2 .897 2 2-.897 2-2 2-2-.897-2-2zm-2.899 8A5.009 5.009 0 0170 63a5.008 5.008 0 014.899 4h-9.798z" fill="#000"/><path d="M76 45h-7v-2h1c1.654 0 3-1.346 3-3V28c0-1.654-1.346-3-3-3H57v-5c0-1.654-1.346-3-3-3H28c-1.654 0-3 1.346-3 3v25h-1c-2.757 0-5 2.243-5 5v24c0 2.757 2.243 5 5 5h12c2.757 0 5-2.243 5-5V50c0-2.757-2.243-5-5-5h-4.382l3-6H43v1c0 1.654 1.346 3 3 3h13.586l2.42 2.42A5.005 5.005 0 0059 50v24c0 2.757 2.243 5 5 5h12c2.757 0 5-2.243 5-5V50c0-2.757-2.243-5-5-5zm-40 2c1.654 0 3 1.346 3 3v24c0 1.654-1.346 3-3 3H24c-1.654 0-3-1.346-3-3V50c0-1.654 1.346-3 3-3h1.145a2.849 2.849 0 002.709 2 2.84 2.84 0 002.553-1.578l.211-.422H36zm-2.618-10l-4.764 9.527A.855.855 0 0127 46.146V20c0-.551.448-1 1-1h26c.552 0 1 .449 1 1v5h-9c-1.654 0-3 1.346-3 3v9h-9.618zM46 41c-.552 0-1-.449-1-1V28c0-.551.448-1 1-1h24c.552 0 1 .449 1 1v12c0 .551-.448 1-1 1h-3v5.586c0 .338-.469.531-.707.293L60.414 41H46zm33 33c0 1.654-1.346 3-3 3H64c-1.654 0-3-1.346-3-3V50a2.994 2.994 0 012.624-2.962l1.254 1.254c.449.45 1.071.708 1.708.708a2.413 2.413 0 002.372-2H76c1.654 0 3 1.346 3 3v24z" fill="#000"/><path d="M26 59c0 1.028.4 1.957 1.04 2.666C24.658 62.784 23 65.199 23 68v1h14v-1c0-2.801-1.658-5.216-4.04-6.334A3.965 3.965 0 0034 59c0-2.206-1.794-4-4-4s-4 1.794-4 4zm8.899 8h-9.798A5.009 5.009 0 0130 63a5.008 5.008 0 014.899 4zM32 59c0 1.103-.897 2-2 2s-2-.897-2-2 .897-2 2-2 2 .897 2 2zm18-28c-1.654 0-3 1.346-3 3s1.346 3 3 3 3-1.346 3-3-1.346-3-3-3zm0 4a1.001 1.001 0 010-2 1.001 1.001 0 010 2zm8-4c-1.654 0-3 1.346-3 3s1.346 3 3 3 3-1.346 3-3-1.346-3-3-3zm0 4a1.001 1.001 0 010-2 1.001 1.001 0 010 2zm11-1c0-1.654-1.346-3-3-3s-3 1.346-3 3 1.346 3 3 3 3-1.346 3-3zm-3 1a1.001 1.001 0 010-2 1.001 1.001 0 010 2zM29 21h2v2h-2v-2zm4 0h20v2H33v-2zm-4 4h12v2H29v-2zm0 4h12v2H29v-2zm0 4h12v2H29v-2zm19.293 34.707l1.414-1.414L48.414 65H57v-2H43.586l4.707 4.707zM43 61h13.414l-4.707-4.707-1.414 1.414L51.586 59H43v2z" fill="#000"/></svg>