<svg width="100" height="100" viewBox="0 0 100 100" fill="none" xmlns="http://www.w3.org/2000/svg"><circle cx="50" cy="50" r="50" fill="#fff"/><path d="M69.484 54.903c-5.87 0-10.645-4.776-10.645-10.645 0-5.87 4.776-10.645 10.645-10.645 5.87 0 10.645 4.776 10.645 10.645 0 5.87-4.776 10.645-10.645 10.645z" fill="#6DCAAB"/><path d="M70.452 77.161a.968.968 0 11-1.936 0 .968.968 0 011.936 0z" fill="#000"/><path d="M43.355 70.387H27.871V56.84h15.484v13.548zm0-18.387H27.871V38.452h15.484V52z" fill="#6DCAAB"/><path d="M84 44.258c0-7.678-5.995-13.966-13.548-14.467V22H24v52.258h40.645v2.903A4.844 4.844 0 0069.484 82a4.844 4.844 0 004.839-4.839V62.645h-1.936v-4.163C79.004 57.133 84 51.27 84 44.258zm-1.936 0c0 6.937-5.643 12.58-12.58 12.58s-12.58-5.643-12.58-12.58 5.643-12.58 12.58-12.58 12.58 5.643 12.58 12.58zM64.645 62.645v9.678h-38.71V23.936h42.581v5.855c-7.553.501-13.548 6.789-13.548 14.467 0 7.01 4.995 12.875 11.613 14.224v4.163h-1.936zm7.742 14.516c0 1.6-1.303 2.903-2.903 2.903a2.907 2.907 0 01-2.903-2.903v-12.58h5.806v12.58zm-1.935-14.516h-1.936v-3.92c.321.021.64.05.968.05.327 0 .646-.029.968-.05v3.92z" fill="#000"/><path d="M66.15 46.356l-1.074 1.61 3.816 2.544 5.329-10.658-1.732-.865-4.349 8.697-1.99-1.328zM35.275 63.842l-1.881-1.881-1.369 1.368 3.926 3.926 5.394-12.947-1.786-.745-4.284 10.28zm0-18.387l-1.881-1.881-1.369 1.368 3.926 3.926 5.394-12.947-1.786-.745-4.284 10.279zm15.822-15.713h1.935v1.935h-1.935v-1.935zm-23.226 0h21.29v1.935h-21.29v-1.935zM45.29 56.839h11.613v1.935H45.291V56.84zm0 3.871h11.613v1.935H45.291V60.71zm0 3.87h11.613v1.936H45.291v-1.935zm0 3.872h11.613v1.935H45.291v-1.935zm0-30h7.742v1.935h-7.741v-1.935zm0 3.871h7.742v1.935h-7.741v-1.935zm0 3.871h7.742v1.935h-7.741v-1.935zm0 3.871h7.742V52h-7.741v-1.935zM27.871 25.871h25.161v1.936h-25.16V25.87z" fill="#000"/></svg>