<svg width="100" height="100" viewBox="0 0 100 100" fill="none" xmlns="http://www.w3.org/2000/svg"><circle cx="50" cy="50" r="50" fill="#fff"/><path d="M73.926 60.897c-.01-.111-.03-.22-.045-.33-.022-.162-.043-.322-.074-.483-.028-.147-.064-.29-.1-.435a7.576 7.576 0 00-.252-.852c-.015-.041-.025-.084-.04-.126a8.832 8.832 0 002.638-6.308 8.874 8.874 0 00-6.392-8.507c-.843-5.513-5.678-9.73-11.324-9.73-.382 0-.759.02-1.13.057l.206 2.073c.304-.03.611-.045.924-.045 4.827 0 8.929 3.766 9.338 8.575l.066.783.77.152a6.78 6.78 0 015.458 6.642c0 1.607-.572 3.13-1.584 4.339-1.601-2.303-4.263-3.818-7.275-3.818v2.084c2.7 0 5.03 1.593 6.118 3.884.102.216.192.436.27.657l.02.053c.07.203.128.41.178.617.008.036.02.073.028.11.042.193.073.388.099.583.006.048.016.095.022.144a6.782 6.782 0 01-6.734 7.5 6.707 6.707 0 01-4.162-1.437l-.427-.334a6.794 6.794 0 01-2.207-5.003H56.23c0 2.4.99 4.678 2.683 6.333a6.719 6.719 0 01-5.267 2.525 6.732 6.732 0 01-6.065-3.775l-.642-1.296-1.026 1.02a6.736 6.736 0 01-4.772 1.967 6.687 6.687 0 01-2.38-.452 8.852 8.852 0 003.943-7.364c0-.222-.029-.438-.045-.656a8.827 8.827 0 004.466-2.192l-1.41-1.537a6.742 6.742 0 01-3.449 1.68 8.835 8.835 0 00-4.298-5.139l-.971 1.845a6.766 6.766 0 013.623 6c0 2.923-1.866 5.413-4.468 6.36a7.013 7.013 0 01-1.112.301l-.075.012c-.373.063-.746.1-1.119.1a6.782 6.782 0 01-6.773-6.774c0-1.002.222-1.977.66-2.9l.285-.6-.425-.511a6.784 6.784 0 01-1.563-4.326 6.788 6.788 0 015.434-6.64l.8-.16.037-.812a6.757 6.757 0 016.756-6.456c.814 0 1.624.15 2.408.449l.796.302.456-.718a6.838 6.838 0 011.254-1.471l-1.377-1.563a8.908 8.908 0 00-1.166 1.245 8.836 8.836 0 00-11.138 7.33 8.884 8.884 0 00-6.344 8.494 8.86 8.86 0 001.646 5.14 8.715 8.715 0 00-.604 3.197c0 4.884 3.974 8.858 8.858 8.858.395 0 .782-.035 1.163-.086.072-.009.144-.021.216-.033.386-.06.765-.14 1.134-.25a8.765 8.765 0 004.782 1.411c1.91 0 3.73-.601 5.24-1.715a8.794 8.794 0 007.265 3.8 8.787 8.787 0 006.923-3.343 8.734 8.734 0 004.54 1.258c4.885 0 8.859-3.973 8.859-8.858 0-.283-.016-.565-.043-.845zM51.042 15.368h-2.084v4.169h2.084v-4.169z" fill="#333"/><path d="M55.21 42.463H44.79V38.79A9.411 9.411 0 0140.62 31c0-5.172 4.207-9.379 9.38-9.379 5.171 0 9.378 4.207 9.378 9.379a9.411 9.411 0 01-4.168 7.79v3.673z" fill="#6DCAAB"/><path d="M43.367 21.594l1.804-1.042-2.084-3.61-1.805 1.043 2.085 3.61zm-3.816 4.574l1.042-1.805-3.61-2.084-1.042 1.805 3.61 2.084zm5.759 14.211a2.608 2.608 0 00-2.605 2.605 2.6 2.6 0 001.22 2.2c-.11.288-.178.598-.178.927a2.608 2.608 0 002.605 2.605h7.295a2.608 2.608 0 002.605-2.605c0-.329-.067-.64-.178-.928a2.6 2.6 0 001.22-2.199 2.608 2.608 0 00-2.605-2.605h-3.647v-6.444A3.122 3.122 0 0053.126 31 3.13 3.13 0 0050 27.874 3.13 3.13 0 0046.873 31c0 1.357.875 2.503 2.085 2.935v6.444H45.31zM50 29.958a1.042 1.042 0 110 2.085 1.042 1.042 0 010-2.085zm3.647 16.674h-7.294a.523.523 0 01-.522-.521c0-.287.235-.521.521-.521h7.295c.287 0 .521.234.521.52a.523.523 0 01-.52.522zm1.563-3.648a.523.523 0 01-.52.521h-9.38a.523.523 0 01-.52-.52c0-.287.234-.522.52-.522h9.38c.286 0 .52.235.52.521zM38.537 29.958h-4.169v2.084h4.169v-2.084zm27.095 0h-4.169v2.084h4.169v-2.084zM60.45 26.17l3.61-2.085-1.042-1.805-3.61 2.084 1.042 1.805zm-3.817-4.572l2.084-3.61-1.805-1.042-2.084 3.61 1.805 1.042zM20.821 71.642h2.695L18 77.158l1.474 1.474 5.515-5.516v2.695h2.085v-6.253H20.82v2.084zm58.358 0v-2.084h-6.253v6.253h2.084v-2.695l5.516 5.516L82 77.158l-5.516-5.516h2.695zM20.821 40.379v2.084h6.253v-6.252h-2.085v2.694l-5.515-5.516L18 34.863l5.516 5.516H20.82zm58.358 0h-2.695L82 34.863l-1.474-1.474-5.516 5.516v-2.694h-2.084v6.252h6.253V40.38z" fill="#333"/></svg>