<svg width="26" height="32" viewBox="0 0 26 32" fill="none" xmlns="http://www.w3.org/2000/svg"><path d="M21.406 16.747c-.035-3.868 3.19-5.75 3.337-5.838-1.826-2.644-4.656-3.005-5.65-3.034-2.378-.249-4.683 1.412-5.894 1.412-1.235 0-3.1-1.388-5.11-1.347-2.585.04-5.004 1.526-6.331 3.835-2.738 4.709-.696 11.628 1.927 15.434 1.313 1.866 2.846 3.945 4.853 3.872 1.964-.079 2.697-1.242 5.067-1.242 2.348 0 3.037 1.242 5.084 1.195 2.107-.032 3.434-1.872 4.7-3.753 1.517-2.135 2.126-4.24 2.15-4.348-.049-.017-4.092-1.55-4.133-6.186zM17.54 5.37c1.056-1.312 1.78-3.096 1.578-4.908-1.528.068-3.44 1.05-4.54 2.334-.975 1.13-1.845 2.983-1.62 4.726 1.717.127 3.48-.86 4.582-2.152z" fill="#fff"/></svg>