<svg width="60" height="60" viewBox="0 0 60 60" fill="none" xmlns="http://www.w3.org/2000/svg"><path d="M46.187 32.612l-1.369-1.369c.69-.69.69-1.813 0-2.503-.668-.669-1.834-.669-2.503 0l-1.369-1.369.968-.968c.69-.69.69-1.813 0-2.503-.669-.669-1.834-.669-2.503 0l-.968.968-1.369-1.37 1.936-1.935c.69-.69.69-1.813 0-2.504a1.772 1.772 0 00-2.503 0l-1.936 1.936-1.37-1.368.969-.968c.335-.335.518-.78.518-1.252s-.183-.917-.518-1.252a1.772 1.772 0 00-2.504 0l-.968.968-1.368-1.369.968-.967a3.711 3.711 0 015.24 0 3.688 3.688 0 011.034 2.013 3.714 3.714 0 013.806.89 3.71 3.71 0 01.89 3.807 3.69 3.69 0 012.014 1.034 3.711 3.711 0 01.89 3.806 3.688 3.688 0 012.014 1.034 3.71 3.71 0 01.001 5.241zm-14.92 11.215L28.494 46.6l-6.752 2.894-9.799 8.819 1.296 1.438 3.29-2.962c.394.198.785.403 1.18.58l.793-1.766c-.142-.064-.282-.141-.423-.208l4.72-4.248 6.8-2.914 3.035-3.037-1.367-1.368z" fill="#000"/><path d="M24.928 10.23L10.254 24.906l3.374 3.373 3.316-3.206.012-.012a2.044 2.044 0 012.887 0c.685.685.792 1.768.255 2.575l-2.846 4.267 17.851 17.85L49.777 35.08 24.928 10.23zm8.61 23.284a4.982 4.982 0 11-7.044-7.046 4.982 4.982 0 017.044 7.046z" fill="#6DCAAB"/><path d="M30.016 35.941c-1.59 0-3.084-.62-4.207-1.743a5.908 5.908 0 01-1.743-4.206c0-1.59.62-3.084 1.743-4.207a5.907 5.907 0 014.207-1.744c1.59 0 3.083.62 4.206 1.744a5.907 5.907 0 011.743 4.207c0 1.59-.619 3.083-1.743 4.206a5.903 5.903 0 01-4.206 1.743zm0-9.963a3.99 3.99 0 00-2.838 1.176 3.983 3.983 0 00-1.176 2.839 3.99 3.99 0 001.176 2.837 3.988 3.988 0 002.838 1.176 3.99 3.99 0 002.837-1.176 3.983 3.983 0 001.176-2.837c0-1.072-.418-2.08-1.176-2.838a3.985 3.985 0 00-2.837-1.177zm-14.358 8.316l1.61 1.074 4.44-6.66a3.989 3.989 0 00-.497-5.018 3.982 3.982 0 00-5.625 0l-5.823 5.823-1.936 9.68-3.057 3.06c-.083-.17-.176-.334-.254-.505l-1.758.811c.177.383.377.757.571 1.134L.291 46.73l1.368 1.37 7.952-7.952 1.936-9.68 5.409-5.41a2.044 2.044 0 012.886 0c.686.686.793 1.77.256 2.576l-4.44 6.66zM3.961 19.52l-1.795-.722A30.032 30.032 0 00.907 22.67l1.877.47a28.176 28.176 0 011.177-3.621zm3.767-6.6l-1.535-1.179a29.723 29.723 0 00-2.254 3.39l1.68.96a28.218 28.218 0 012.109-3.17zM.39 34.791c.213 1.335.522 2.67.918 3.966l1.85-.565a27.913 27.913 0 01-.858-3.707l-1.91.306zm1.553-4.799c0-1.037.058-2.082.17-3.106L.19 26.674a30.303 30.303 0 00-.173 4.065l1.937-.046c-.006-.234-.01-.47-.01-.701zm53.034-16.659a30.46 30.46 0 00-2.483-3.22l-1.45 1.281a28.51 28.51 0 012.324 3.015l1.609-1.076zM13.121 7.569l-1.166-1.545A30.463 30.463 0 008.88 8.688l1.363 1.374c.9-.892 1.868-1.73 2.878-2.493zM58.06 28.706l1.933-.089a30.163 30.163 0 00-.458-4.041l-1.904.345c.227 1.243.37 2.515.428 3.785zm.472-8.076a30.105 30.105 0 00-1.528-3.771l-1.741.847a28.152 28.152 0 011.43 3.527l1.84-.603zM19.744 3.858l-.709-1.801A30.002 30.002 0 0015.36 3.8l.948 1.688a27.778 27.778 0 013.436-1.63zm11.182-1.924c1.268.04 2.542.168 3.788.379l.32-1.91A30.266 30.266 0 0030.989 0l-.062 1.934zm13.306 52.271l.983 1.668a30.274 30.274 0 003.358-2.297l-1.199-1.52a28.534 28.534 0 01-3.142 2.149zm1.056-47.771a28.107 28.107 0 013.046 2.287l1.265-1.468a30.358 30.358 0 00-3.256-2.443l-1.055 1.624zm-6.873-3.237c1.21.379 2.402.845 3.548 1.384l.825-1.752a29.729 29.729 0 00-3.794-1.479l-.579 1.847zm16.281 40.18l1.702.925a29.974 29.974 0 001.696-3.701l-1.811-.684a27.782 27.782 0 01-1.587 3.46zm2.685-7.106l1.887.43c.302-1.317.515-2.669.635-4.018l-1.928-.173a27.94 27.94 0 01-.594 3.761zm-7.183 13.232l1.392 1.346a30 30 0 002.625-3.11l-1.56-1.146a28.448 28.448 0 01-2.457 2.91zm-12.971 7.626L37.725 59a29.714 29.714 0 003.852-1.31l-.747-1.787c-1.167.488-2.379.9-3.602 1.225zm-15.593 1.684c1.302.377 2.64.667 3.976.865l.282-1.915a28.052 28.052 0 01-3.72-.81l-.538 1.86zM22.914.83l.455 1.88a28.245 28.245 0 013.753-.643l-.2-1.927c-1.35.139-2.699.371-4.01.689zm7.101 57.234l-.33-.002-.016 1.936.346.002c1.242 0 2.492-.076 3.714-.227l-.238-1.921c-1.143.14-2.313.212-3.476.212z" fill="#000"/></svg>