<svg width="40" height="40" viewBox="0 0 40 40" fill="none" xmlns="http://www.w3.org/2000/svg"><path d="M28.387 33.548H11.613a1.938 1.938 0 00-1.936 1.936v2.58c0 1.068.869 1.936 1.936 1.936h16.774a1.938 1.938 0 001.935-1.935v-2.581a1.938 1.938 0 00-1.935-1.936z" fill="#6DCAAB"/><path d="M27.742 2.58a3.23 3.23 0 00-3.226 3.226V9.05a3.192 3.192 0 00-1.935-.662c-1.06 0-1.993.52-2.581 1.31a3.214 3.214 0 00-2.58-1.31c-.73 0-1.396.252-1.936.662V3.226A3.23 3.23 0 0012.258 0a3.23 3.23 0 00-3.226 3.226v22.921c0 1.89.98 3.6 2.58 4.557v2.844h1.291v-3.624l-.357-.178a4.003 4.003 0 01-2.223-3.599v-5.585a3.827 3.827 0 012.355-3.533l6.428-2.679c.25-.104.515-.156.786-.156 1.127 0 2.044.916 2.044 2.078 0 .827-.494 1.568-1.258 1.886l-6.485 2.702v2.366a3.23 3.23 0 003.226 3.226c1.059 0 1.993-.52 2.581-1.31a3.214 3.214 0 002.58 1.31 3.23 3.23 0 003.226-3.226V5.806c0-1.067.869-1.935 1.936-1.935s1.935.868 1.935 1.935v20.341a4.001 4.001 0 01-2.224 3.598l-.356.179v3.624h1.29v-2.844a5.282 5.282 0 002.58-4.556V5.806a3.23 3.23 0 00-3.225-3.225zm-15.56 13.258a5.1 5.1 0 00-1.651 1.105c-.074.074-.14.153-.209.23V3.226c0-1.067.869-1.936 1.936-1.936s1.936.869 1.936 1.936V15l-2.013.838zm6.428-2.679l-3.126 1.303v-2.85c0-1.066.868-1.935 1.935-1.935 1.067 0 1.936.869 1.936 1.936v1.343a3.319 3.319 0 00-.745.203zm-1.19 12.002a1.938 1.938 0 01-1.936-1.935V21.72l3.87-1.613v3.118a1.938 1.938 0 01-1.935 1.935zm7.096-1.935a1.938 1.938 0 01-1.935 1.935 1.938 1.938 0 01-1.936-1.935V19.57l.53-.221c1.246-.52 2.05-1.727 2.05-3.113a3.335 3.335 0 00-2.58-3.24v-1.383c0-1.067.869-1.936 1.936-1.936s1.935.869 1.935 1.936v11.613z" fill="#000"/></svg>