<svg width="60" height="60" viewBox="0 0 60 60" fill="none" xmlns="http://www.w3.org/2000/svg"><path d="M40.313 17.813c0-5.17-4.206-9.375-9.376-9.375-.367 0-.74.027-1.115.073C28.979 4.2 25.177.938 20.625.938S12.271 4.2 11.428 8.51a9.209 9.209 0 00-1.116-.073c-5.169 0-9.374 4.205-9.374 9.374 0 2.265.795 4.396 2.257 6.094A9.274 9.274 0 00.938 30c0 5.17 4.205 9.375 9.374 9.375h.938V37.5h-.938c-4.135 0-7.5-3.365-7.5-7.5a7.43 7.43 0 012.324-5.416l.22-.21v.001a7.47 7.47 0 014.957-1.875v-1.875a9.322 9.322 0 00-5.753 1.986 7.409 7.409 0 01-1.747-4.799c0-4.442 3.885-8.033 8.44-7.43a9.332 9.332 0 00.531 3.056l1.768-.625a7.476 7.476 0 01-.427-2.5c0-4.136 3.365-7.5 7.5-7.5s7.5 3.364 7.5 7.5c0 .858-.143 1.7-.427 2.5l1.768.625c.347-.98.524-2.007.531-3.055 4.555-.603 8.44 2.987 8.44 7.43a7.409 7.409 0 01-1.747 4.798 9.322 9.322 0 00-5.752-1.986V22.5a7.47 7.47 0 015.05 1.963l.084.08c.044.041.085.087.128.13A7.425 7.425 0 0138.437 30c0 4.135-3.364 7.5-7.5 7.5H30v1.875h.938c5.169 0 9.375-4.206 9.375-9.375a9.274 9.274 0 00-2.258-6.094 9.273 9.273 0 002.258-6.093z" fill="#000"/><path d="M30.938 16.875h1.875v1.875h-1.876v-1.875zm-3.75 7.5h1.875v1.875h-1.875v-1.875zm-13.125-3.75h1.874V22.5h-1.874v-1.875zm1.875-6.562h1.874v1.874h-1.875v-1.874zm5.625-5.625h1.875v1.874h-1.875V8.438zm1.875 10.312h1.875v1.875h-1.875V18.75zM6.563 15.938h1.875v1.874H6.562v-1.875z" fill="#000"/><path d="M20.625 59.063c-5.686 0-10.313-4.627-10.313-10.313V30.937h.938c4.155 0 7.743 2.47 9.375 6.017 1.632-3.547 5.22-6.017 9.375-6.017h.938V48.75c0 5.686-4.627 10.313-10.313 10.313z" fill="#6DCAAB"/><path d="M24.25 54.218l-1.038-1.561a4.685 4.685 0 002.1-3.907V45h1.875v3.75a6.555 6.555 0 01-2.937 5.468zm1.063-12.968h1.875v1.875h-1.875V41.25zM56.53 4.688a2.537 2.537 0 00-2.442 1.865l-.65 2.384V3.75A2.816 2.816 0 0050.624.937a2.816 2.816 0 00-2.813 2.813v5.186l-.65-2.383a2.54 2.54 0 00-2.442-1.865c-1.396 0-2.532 1.135-2.532 2.598 0 .222.029.445.089.666l2.76 10.123.143.488 1.8-.526-2.894-10.574a.91.91 0 01-.023-.243.657.657 0 011.29-.173l2.46 9.016v.812h1.874V3.75a.938.938 0 011.876 0v13.125h1.874v-.812l2.46-9.016a.658.658 0 01.633-.484c.363 0 .657.294.657.723a.706.706 0 01-.022.173l-2.756 10.106 1.81.493 2.756-10.11a2.7 2.7 0 00.087-.728 2.535 2.535 0 00-2.532-2.532z" fill="#000"/><path d="M50.625 59.063a4.22 4.22 0 01-4.15-3.585l-4.004-27.237a26.736 26.736 0 01-.283-3.866c0-4.652 3.784-8.438 8.437-8.438s8.438 3.786 8.438 8.438c0 1.287-.096 2.587-.284 3.866L54.774 55.48a4.22 4.22 0 01-4.149 3.584z" fill="#6DCAAB"/><path d="M50.625 45.938h3.54v1.874h-3.54v-1.874zm0 3.75h2.813v1.874h-2.813v-1.874zm0-11.25h4.642v1.874h-4.642v-1.874zm0 3.75h4.09v1.874h-4.09v-1.874zm0-11.25h5.625v1.875h-5.625v-1.876zm0 3.75h5.194v1.874h-5.194v-1.874zm0-11.25h6.563v1.875h-6.563v-1.875zm0 3.75h6.28v1.875h-6.28v-1.875zm-30.937-.938h1.875v1.875h-1.875V26.25zm-11.25 0h1.874v1.875H8.438V26.25zm24.375 2.813h1.874v1.875h-1.874v-1.875z" fill="#000"/></svg>