<svg width="64" height="64" viewBox="0 0 64 64" fill="none" xmlns="http://www.w3.org/2000/svg"><path d="M27 15.211V29h2V15.211c0-.991-.29-1.95-.84-2.773l-4.566-6.852-.012-.014-.416-.624a1 1 0 01-.166-.55v-.411a.988.988 0 011.787-.581l6.64 9.13c.375.517.573 1.126.573 1.765v12.37h2v-12.37c0-1.063-.33-2.081-.956-2.94l-6.64-9.131A2.998 2.998 0 0023.987 1a2.98 2.98 0 00-2.951 2.628c-.008-.003-.014-.007-.022-.009l-7.326-2.443A3.397 3.397 0 0012.606 1h-.182A3.428 3.428 0 009 4.425c0 1.352.798 2.58 2.033 3.129l6.501 2.89c.521.23.962.603 1.277 1.076l2.685 4.027c.33.494.504 1.069.504 1.664v2.486l-1.277-1.916A3.993 3.993 0 0017.395 16H7.5a5.006 5.006 0 00-4.999 5.063A2.003 2.003 0 001 23v10.121c0 .718.159 1.442.46 2.096l5.05 10.941c.421.911.951 1.77 1.576 2.55l.635.794A10.441 10.441 0 0111 56h2a12.44 12.44 0 00-2.718-7.747l-.635-.794a10.385 10.385 0 01-1.321-2.139l-5.05-10.941A3.037 3.037 0 013 33.121V23c2.206 0 4 1.794 4 4v4c0 .939.448 1.837 1.2 2.399l1.999 1.5A5.535 5.535 0 0013.5 36c3.032 0 5.5-2.468 5.5-5.5v-4c0-3.032-2.468-5.5-5.5-5.5h-9c0-1.654 1.346-3 3-3h9.895c.67 0 1.292.333 1.664.891l2.604 3.907c.221.331.337.715.337 1.11V29h2V17.211c0-.991-.29-1.95-.84-2.773l-2.685-4.027a4.991 4.991 0 00-2.13-1.795l-6.5-2.89A1.425 1.425 0 0112.425 3h.182c.153 0 .306.024.45.072l7.325 2.442a3.01 3.01 0 011.544 1.177l3.242 4.863 1.328 1.992c.33.495.504 1.07.504 1.665zM13.5 23c1.93 0 3.5 1.57 3.5 3.5v4c0 1.93-1.57 3.5-3.5 3.5a3.529 3.529 0 01-2.101-.7l-2-1.5A1.006 1.006 0 019 31v-4a5.98 5.98 0 00-1.531-4H13.5zm14.454 26.51A12.335 12.335 0 0027 54.28V56h2v-1.72c0-1.381.27-2.728.8-4.001l2.809-6.74-1.846-.77-2.809 6.741z" fill="#000"/><path d="M31 63H9v-8h22v8zm15-10c-9.374 0-17-7.626-17-17 0-9.374 7.626-17 17-17 9.374 0 17 7.626 17 17 0 9.374-7.626 17-17 17zm0-29c-6.617 0-12 5.383-12 12s5.383 12 12 12 12-5.383 12-12-5.383-12-12-12z" fill="#6DCAAB"/><path d="M52.293 29.293L42 39.586l-2.293-2.293-1.414 1.414L42 42.414l11.707-11.707-1.414-1.414z" fill="#000"/><path d="M46 47c-6.065 0-11-4.935-11-11 0-2.595.925-5.115 2.604-7.098l-1.525-1.293A13.001 13.001 0 0033 35.999c0 7.169 5.832 13 13 13a13 13 0 008.391-3.078l-1.293-1.525A10.997 10.997 0 0146 47zm0-24a13.001 13.001 0 00-8.391 3.079l1.293 1.525A10.997 10.997 0 0146 25c6.065 0 11 4.935 11 11 0 2.595-.925 5.115-2.604 7.098l1.525 1.293A13.001 13.001 0 0059 36c0-7.168-5.832-13-13-13z" fill="#000"/></svg>