<svg width="100" height="100" viewBox="0 0 100 100" fill="none" xmlns="http://www.w3.org/2000/svg"><circle cx="50" cy="50" r="50" fill="#F6F6F6"/><path d="M67.266 52.786l-1.46-1.46a1.89 1.89 0 000-2.67c-.713-.713-1.956-.713-2.67 0l-1.46-1.46 1.032-1.033a1.89 1.89 0 000-2.67c-.713-.713-1.956-.713-2.67 0l-1.032 1.033-1.46-1.46L59.61 41a1.89 1.89 0 000-2.67 1.89 1.89 0 00-2.67 0l-2.066 2.065-1.46-1.46 1.033-1.032c.357-.358.552-.831.552-1.335s-.195-.978-.552-1.336a1.89 1.89 0 00-2.67 0l-1.033 1.033-1.46-1.46 1.033-1.033a3.959 3.959 0 015.59 0 3.936 3.936 0 011.102 2.148 3.961 3.961 0 014.06.95 3.958 3.958 0 01.95 4.06c.787.13 1.542.497 2.148 1.103a3.958 3.958 0 01.95 4.06c.787.13 1.541.496 2.148 1.102a3.957 3.957 0 010 5.591zM51.351 64.75l-2.957 2.956-7.202 3.087-10.453 9.406 1.382 1.534 3.51-3.16c.42.213.837.43 1.26.62l.844-1.884c-.15-.068-.3-.15-.451-.222l5.034-4.532 7.254-3.108 3.238-3.239-1.459-1.459z" fill="#000"/><path d="M44.59 28.913L28.938 44.565l3.598 3.599 3.538-3.421.012-.013a2.18 2.18 0 013.08 0c.73.732.845 1.887.272 2.747l-3.036 4.552 19.041 19.04 15.652-15.652L44.59 28.913zm9.183 24.836a5.314 5.314 0 01-7.514-7.514 5.314 5.314 0 017.514 7.514z" fill="#6DCAAB"/><path d="M50.017 56.337c-1.695 0-3.29-.66-4.487-1.86a6.302 6.302 0 01-1.86-4.486 6.3 6.3 0 011.86-4.487 6.301 6.301 0 014.487-1.86 6.3 6.3 0 014.486 1.86 6.3 6.3 0 011.86 4.487 6.3 6.3 0 01-1.86 4.487 6.297 6.297 0 01-4.486 1.86zm0-10.627a4.257 4.257 0 00-3.028 1.255 4.249 4.249 0 00-1.254 3.027c0 1.142.446 2.217 1.255 3.027a4.253 4.253 0 003.027 1.254 4.256 4.256 0 003.026-1.254 4.248 4.248 0 001.255-3.027 4.258 4.258 0 00-1.255-3.027 4.25 4.25 0 00-3.026-1.255zm-15.316 8.87l1.718 1.146 4.737-7.104a4.254 4.254 0 00-.53-5.353 4.248 4.248 0 00-6.001 0l-6.212 6.212-2.065 10.325-3.26 3.263c-.088-.18-.188-.356-.271-.538l-1.875.866c.189.407.401.807.609 1.209l-3.241 3.24 1.46 1.461 8.481-8.481L30.316 50.5l5.77-5.77a2.18 2.18 0 013.08 0c.73.732.845 1.887.272 2.747L34.7 54.58zM22.225 38.821l-1.915-.77a32.035 32.035 0 00-1.343 4.131l2.002.502c.33-1.31.752-2.61 1.256-3.863zm4.018-7.039l-1.638-1.258a31.693 31.693 0 00-2.404 3.617l1.793 1.022a30.08 30.08 0 012.249-3.38zM18.415 55.11c.228 1.424.558 2.848.98 4.231l1.974-.603a29.767 29.767 0 01-.916-3.953l-2.038.326zm1.657-5.119c0-1.106.062-2.22.182-3.312l-2.053-.226a32.331 32.331 0 00-.184 4.335l2.066-.048c-.007-.25-.01-.501-.01-.749zm56.57-17.769a32.487 32.487 0 00-2.648-3.435l-1.547 1.367a30.257 30.257 0 012.479 3.215l1.716-1.147zm-44.646-6.149l-1.244-1.648a32.5 32.5 0 00-3.28 2.842l1.454 1.466a30.402 30.402 0 013.07-2.66zM79.93 48.62l2.063-.095a32.167 32.167 0 00-.489-4.31l-2.03.368c.24 1.325.394 2.682.456 4.037zm.504-8.615a32.129 32.129 0 00-1.63-4.023l-1.857.904a30.036 30.036 0 011.526 3.763l1.962-.644zM39.06 22.116l-.756-1.922a31.998 31.998 0 00-3.92 1.86l1.011 1.8a29.637 29.637 0 013.665-1.738zm11.927-2.053c1.353.043 2.712.18 4.04.404l.343-2.037a32.287 32.287 0 00-4.316-.43l-.067 2.063zM65.18 75.818l1.05 1.78a32.268 32.268 0 003.581-2.45l-1.278-1.621a30.452 30.452 0 01-3.352 2.291zm1.127-50.955a29.984 29.984 0 013.249 2.44l1.35-1.566a32.364 32.364 0 00-3.473-2.606l-1.126 1.732zm-7.331-3.453c1.29.404 2.562.901 3.784 1.476l.88-1.868a31.715 31.715 0 00-4.046-1.578l-.618 1.97zm17.367 42.86l1.815.985a31.971 31.971 0 001.809-3.947l-1.932-.73a29.622 29.622 0 01-1.692 3.691zm2.864-7.58l2.012.459c.322-1.406.55-2.848.678-4.288l-2.057-.183a29.81 29.81 0 01-.633 4.011zm-7.663 14.113l1.485 1.436a32.007 32.007 0 002.8-3.317l-1.663-1.223a30.35 30.35 0 01-2.622 3.104zM57.71 78.937l.53 1.997c1.395-.37 2.776-.84 4.108-1.397l-.796-1.906c-1.245.52-2.537.96-3.843 1.306zm-16.634 1.797c1.389.402 2.816.712 4.242.923l.3-2.043a29.906 29.906 0 01-3.968-.865l-.574 1.985zm1.365-61.849l.486 2.006a30.137 30.137 0 014.003-.686l-.212-2.055c-1.44.148-2.879.396-4.277.735zm7.575 61.05l-.351-.002-.019 2.065.37.002c1.325 0 2.658-.082 3.962-.243l-.254-2.048c-1.22.15-2.467.226-3.708.226z" fill="#000"/></svg>