<svg width="64" height="64" viewBox="0 0 64 64" fill="none" xmlns="http://www.w3.org/2000/svg"><path d="M56 20h4a2 2 0 110 4h-4v-4zm0 8h4a2 2 0 110 4h-4v-4zm0 8h4a2 2 0 110 4h-4v-4zM12 52H4a2 2 0 01-2-2v-2a2 2 0 012-2h8a2 2 0 012 2v2a2 2 0 01-2 2zm0-12H4a2 2 0 01-2-2v-2a2 2 0 012-2h8a2 2 0 012 2v2a2 2 0 01-2 2zm0-12H4a2 2 0 01-2-2v-2a2 2 0 012-2h8a2 2 0 012 2v2a2 2 0 01-2 2z" fill="#6DCAAB"/><path d="M7 28h2v6H7v-6zm0 12h2v6H7v-6zm38-2.828V18c0-1.654-1.346-3-3-3s-3 1.346-3 3v19.172a5.868 5.868 0 01-1.707 4.121A7.883 7.883 0 0035 46.828V59h2V49h2v10h2V49h2v10h2V49h2v10h2V46.828a7.882 7.882 0 00-2.293-5.535A5.868 5.868 0 0145 37.172zM47 47H37v-.172c0-1.534.622-3.036 1.707-4.121A7.883 7.883 0 0041 37.172V18a1 1 0 012 0v19.172c0 2.061.836 4.078 2.293 5.535A5.868 5.868 0 0147 46.828V47zM35 26.616c0-5.027-2.985-9.555-7.606-11.535L27.205 15H25v41c0 1.654 1.346 3 3 3s3-1.346 3-3V40.899l1.949-1.95A6.951 6.951 0 0035 34v-7.384zM33 34a4.967 4.967 0 01-1.465 3.535L29 40.071V56a1 1 0 01-2 0V17.098c3.659 1.747 6 5.438 6 9.519V34z" fill="#fff"/><path d="M51 11V1H13C9.691 1 7 3.691 7 7v15h2V11.46A5.97 5.97 0 0013 13h4v48h-4c-2.206 0-4-1.794-4-4v-5H7v5c0 3.309 2.691 6 6 6h38c3.309 0 6-2.691 6-6V17c0-3.309-2.691-6-6-6zM9 7c0-2.206 1.794-4 4-4h36v8h-2V5H11v2h34v4H13c-2.206 0-4-1.794-4-4zm46 50c0 2.206-1.794 4-4 4H19V13h32c2.206 0 4 1.794 4 4v40z" fill="#fff"/></svg>