<svg width="100" height="100" viewBox="0 0 100 100" fill="none" xmlns="http://www.w3.org/2000/svg"><circle cx="50" cy="50" r="50" fill="#F6F6F6"/><g clip-path="url(#clip0)"><path d="M50.81 75.204a29.624 29.624 0 01-15.24-4.222l-3.361-2.016 3.36-2.016a29.632 29.632 0 0115.242-4.222 6.244 6.244 0 016.237 6.238 6.244 6.244 0 01-6.237 6.238zm19.754-6.238a6.244 6.244 0 01-6.238-6.238 29.62 29.62 0 014.222-15.24l2.016-3.361 2.016 3.359a29.637 29.637 0 014.222 15.242 6.244 6.244 0 01-6.238 6.238z" fill="#6DCAAB"/><path d="M40.322 69.92a26.344 26.344 0 0010.488 2.165v-2.08a24.31 24.31 0 01-9.666-1.993l-.822 1.908z" fill="#000"/><path d="M77.038 44.813l-4.007-6.68a2.894 2.894 0 00-2.467-1.396c-.888 0-1.712.434-2.253 1.127a19.232 19.232 0 00-2.246-6.788 19.348 19.348 0 00-8.845-8.163l-7.244-3.292-.195 1.373a50.176 50.176 0 01-3.998 13.687l-.533 1.169a19.363 19.363 0 00-.65 1.657 23.42 23.42 0 00-7.125-3.643 23.075 23.075 0 00-8.625-.96L18 33.74l1.045 2.093a33.479 33.479 0 013.344 11.322c.76 6.834 5.291 12.466 11.593 14.736-.363.2-.731.39-1.087.603l-6.68 4.007a2.892 2.892 0 00-1.396 2.466 2.89 2.89 0 001.396 2.466l6.68 4.007a34.813 34.813 0 0017.915 4.963c5.807 0 10.606-4.353 11.33-9.965 2.094 2.284 5.09 3.727 8.424 3.727 6.305 0 11.436-5.13 11.436-11.436a34.82 34.82 0 00-4.962-17.915zm-29.363-9.27a52.302 52.302 0 003.95-12.887l4.735 2.15a17.254 17.254 0 017.889 7.28 17.16 17.16 0 012.156 8.32v.49h.035l-2.35 3.917a34.808 34.808 0 00-4.722 13.99l-2.01-4.018a12.883 12.883 0 01-1.278-4.488l.34-.793a48.012 48.012 0 016.638-11.077l-1.624-1.3a50.15 50.15 0 00-4.381 6.503l.357-1.254a17.66 17.66 0 00.678-4.843c0-2.723-.644-5.449-1.861-7.881l-1.367-2.737-1.86.93 1.367 2.737a15.513 15.513 0 011.052 11.184 13.047 13.047 0 00-4.46-4.49l-.653-.392-1.07 1.783.653.392a10.962 10.962 0 014.67 5.73l-.056.196a14.831 14.831 0 00-.574 4.084c0 2.294.542 4.592 1.57 6.645l1.994 3.99a11.366 11.366 0 00-5.088-2.05l-1.788-1.788a16.978 16.978 0 01-5.005-12.084c0-2.455.515-4.834 1.532-7.072l.53-1.167zm-23.22 11.381a35.562 35.562 0 00-3.223-11.348l7.777-.598c2.656-.204 5.301.09 7.853.875 2.58.794 5.02 2.1 7.12 3.802a19.174 19.174 0 00-.45 4.127c0 2.09.35 4.125.99 6.053a48.087 48.087 0 00-2.213-2.177l.035-.022-.979-1.632a13.966 13.966 0 01-1.99-7.188h-2.08c0 1.894.341 3.763.987 5.528-3.686-2.721-7.744-4.932-12.068-6.504l-.711 1.953c6.027 2.192 11.528 5.659 16.135 10.098a19.664 19.664 0 00-10.91.416l.657 1.971a17.583 17.583 0 0111.7.218l1.607.602 3.906 4.508c-4.1.26-8.115 1.251-11.863 2.908-6.61-1.424-11.529-6.84-12.28-13.59zm35.712 22.042c0 5.16-4.197 9.357-9.357 9.357a32.748 32.748 0 01-16.845-4.666l-6.68-4.007a.802.802 0 01-.387-.684.8.8 0 01.387-.683l6.68-4.007a32.739 32.739 0 0116.845-4.667c3.89 0 7.232 2.388 8.641 5.774.127.53.288 1.046.485 1.544.148.657.231 1.338.231 2.039zm10.397 3.119c-3.892 0-7.232-2.388-8.642-5.775a11.379 11.379 0 00-.485-1.544 9.357 9.357 0 01-.23-2.038 32.747 32.747 0 014.666-16.846l4.007-6.68a.8.8 0 011.367 0l4.007 6.68a32.739 32.739 0 014.667 16.846c0 5.16-4.197 9.357-9.357 9.357z" fill="#000"/><path d="M67.445 62.728h2.08c0-3.343.671-6.595 1.993-9.667l-1.908-.822a26.34 26.34 0 00-2.165 10.49z" fill="#000"/></g><defs><clipPath id="clip0"><path fill="#fff" d="M18 18h64v64H18z"/></clipPath></defs></svg>