<svg width="64" height="64" viewBox="0 0 64 64" fill="none" xmlns="http://www.w3.org/2000/svg"><path d="M46.452 36.13c-4.04 0-8.103 1.69-12.383 3.548-.002.087-.022.171-.02.258.116 2.474-.977 5.26-3.174 7.456-3.6 3.6-8.788 4.249-11.588 1.448-1.165-1.165-1.725-2.747-1.732-4.453h-.007c-3.861 0-6.945-.647-8.458-1.776l-.822-.613-1.894-1.015C9.221 48.976 16.835 54.71 25.806 54.71h12.388c10.1 0 18.491-7.258 20.28-16.84-3.4-1.138-7.553-1.74-12.022-1.74z" fill="#6DCAAB"/><path d="M60.903 24.774h-11.96l13.899-13.898A3.925 3.925 0 0064 8.082a3.956 3.956 0 00-3.953-3.953c-1.055 0-2.047.41-2.794 1.158L37.766 24.774H3.096A3.1 3.1 0 000 27.871a3.1 3.1 0 003.097 3.097h1.032v3.097c0 8.865 5.354 16.492 12.993 19.848-2.133.634-3.703 2.59-3.703 4.926v1.032h37.162V58.84c0-2.336-1.57-4.292-3.703-4.926 7.639-3.356 12.993-10.983 12.993-19.848v-3.097h1.032A3.1 3.1 0 0064 27.87a3.1 3.1 0 00-3.097-3.097zm-2.19-18.027a1.89 1.89 0 012.67 2.67l-15.36 15.356h-5.339L58.713 6.747zM45.419 55.742c1.347 0 2.494.863 2.92 2.065H15.66a3.103 3.103 0 012.92-2.065h26.84zm12.387-21.677c0 10.815-8.797 19.613-19.612 19.613H25.806c-10.815 0-19.612-8.798-19.612-19.613v-3.097h25.379l-1.174 1.174c-.611.61-1.405.94-2.159.905-2.858-.128-5.925 1.167-8.233 3.476-1.902 1.903-3.117 4.28-3.419 6.696-.313 2.511.386 4.767 1.971 6.351 1.337 1.337 3.15 2.044 5.193 2.044.379 0 .766-.025 1.158-.073 2.416-.301 4.794-1.517 6.696-3.419 2.308-2.307 3.607-5.386 3.476-8.233-.035-.761.295-1.548.905-2.159l6.763-6.762h15.056v3.097zm-23.314-3.097h5.339l-5.303 5.303c-1.02 1.02-1.57 2.374-1.508 3.713.105 2.278-.969 4.775-2.874 6.678-1.58 1.58-3.53 2.585-5.492 2.83-1.867.232-3.512-.258-4.635-1.38-1.124-1.125-1.615-2.771-1.381-4.636.245-1.963 1.25-3.912 2.83-5.492 1.904-1.904 4.398-2.983 6.678-2.873 1.336.052 2.693-.489 3.713-1.51l2.633-2.633zm26.411-2.065H3.097a1.034 1.034 0 01-1.032-1.032c0-.569.463-1.032 1.032-1.032h57.806a1.033 1.033 0 010 2.064z" fill="#fff"/><path d="M22.925 39.443c-1.238 1.239-2.054 2.801-2.24 4.287-.151 1.222.13 2.259.793 2.92.543.546 1.336.834 2.29.834 1.65 0 3.488-.853 4.918-2.281 1.238-1.24 2.054-2.802 2.24-4.288.152-1.221-.13-2.259-.792-2.92-.542-.546-1.335-.834-2.288-.834-1.652 0-3.49.853-4.92 2.282zm5.954 1.215c-.13 1.04-.732 2.164-1.652 3.084-1.035 1.034-2.361 1.677-3.46 1.677-.383 0-.685-.082-.83-.228-.193-.194-.272-.655-.204-1.204.13-1.04.733-2.164 1.653-3.084 1.034-1.034 2.36-1.677 3.46-1.677.382 0 .685.083.829.228.194.194.271.655.204 1.204z" fill="#fff"/></svg>