<svg width="64" height="64" viewBox="0 0 64 64" fill="none" xmlns="http://www.w3.org/2000/svg"><path d="M43.379 12.621A2.105 2.105 0 0146 12.327V1h-2l-7 6-2 13 .5.5 7.879-7.879zm3.294.379a2.105 2.105 0 01-.294 2.621L38.5 23.5l.5.5 13-2 6-7v-2H46.673z" fill="#6DCAAB"/><path d="M37.724 59.211l-5.123-10.245-1.789.895 5.123 10.245a.618.618 0 01-.553.894H33a.615.615 0 01-.553-.342l-4.785-9.57-1.789.895L28.382 57H17.618l2.509-5.018-1.789-.895-4.785 9.571A.615.615 0 0113 61h-2.382a.618.618 0 01-.553-.894l5.123-10.245-1.789-.895-5.123 10.245A2.62 2.62 0 0010.618 63H13c.999 0 1.896-.555 2.342-1.447L16.618 59h12.764l1.276 2.552A2.603 2.603 0 0033 63h2.382a2.62 2.62 0 002.342-3.789z" fill="#fff"/><path d="M36.403 25.597l-3.568 3.568A11.847 11.847 0 0135 36c0 6.617-5.383 12-12 12s-12-5.383-12-12 5.383-12 12-12c2.465 0 4.814.752 6.836 2.164l3.573-3.573-.1-.087C30.313 20.211 26.748 19 23 19c-9.374 0-17 7.626-17 17 0 9.374 7.626 17 17 17 9.374 0 17-7.626 17-17 0-3.748-1.211-7.313-3.503-10.31l-.094-.093z" fill="#6DCAAB"/><path d="M48 14.121C48 12.4 46.6 11 44.879 11c-.834 0-1.618.325-2.207.914L29.709 24.876A12.902 12.902 0 0023 23c-7.168 0-13 5.832-13 13s5.832 13 13 13 13-5.832 13-13a12.91 12.91 0 00-1.876-6.71l12.962-12.962A3.101 3.101 0 0048 14.121zM34 36c0 6.065-4.935 11-11 11s-11-4.935-11-11 4.935-11 11-11c1.847 0 3.636.466 5.243 1.343l-3.023 3.023A6.912 6.912 0 0023 29c-3.86 0-7 3.14-7 7s3.14 7 7 7 7-3.14 7-7c0-.76-.124-1.503-.366-2.22l3.023-3.023A10.91 10.91 0 0134 36zm-11 1a8.173 8.173 0 004.931-1.648c.028.215.069.429.069.648 0 2.757-2.243 5-5 5s-5-2.243-5-5 2.243-5 5-5c.219 0 .433.041.648.069A8.173 8.173 0 0022 36v1h1zm22.672-22.086L27.414 33.172a6.194 6.194 0 01-3.319 1.733 6.198 6.198 0 011.733-3.319l18.258-18.258a1.122 1.122 0 011.586 1.586z" fill="#fff"/></svg>