<svg width="100" height="100" viewBox="0 0 100 100" fill="none" xmlns="http://www.w3.org/2000/svg"><circle cx="50" cy="50" r="50" fill="#F6F6F6"/><path d="M64.999 70.925l-.367.145c-23.127 9.14-38.832-3.705-38.988-3.836l-.216-.18-.33-.05A177.213 177.213 0 0025 73s7 7 22 7c9.763 0 15.975-1.576 19.871-3.329a42.73 42.73 0 01-1.872-5.746zM45 67c-7.72 0-14-6.28-14-14s6.28-14 14-14 14 6.28 14 14-6.28 14-14 14z" fill="#6DCAAB"/><path d="M67 29.8V23c0-2.206-1.794-4-4-4-1.2 0-2.266.542-3 1.382A3.975 3.975 0 0057 19c-1.501 0-2.796.841-3.48 2.067A5.981 5.981 0 0049 19a5.981 5.981 0 00-4.52 2.067C43.796 19.841 42.501 19 41 19c-1.2 0-2.266.542-3 1.382A3.975 3.975 0 0035 19c-2.206 0-4 1.794-4 4v6.852l-.786 2.656C26.88 43.727 24 53.416 24 73v.414l.293.293C24.591 74.005 31.761 81 47 81c22.361 0 26.72-8.203 26.895-8.553l.105-.211V72c0-24.381-6.208-40.275-7-42.2zm-1.569 8.552l1.567 26.632-.646 7.101c-3.296-11.544-2.186-25.233-.921-33.733zm3.55 26.301l-1.619-27.525c1.878 6.514 4.279 17.486 4.599 31.697l-2.98-4.172zM63 21c1.103 0 2 .897 2 2v6h-4v-6c0-1.103.897-2 2-2zm-8 2c0-1.103.897-2 2-2s2 .897 2 2v6h-4v-6zm-6-2c2.206 0 4 1.794 4 4v4h-8v-4c0-2.206 1.794-4 4-4zm-8 0c1.103 0 2 .897 2 2v6h-4v-6c0-1.103.897-2 2-2zm-6 0c1.103 0 2 .897 2 2v6h-4v-6c0-1.103.897-2 2-2zm-9 51.556c.041-18.99 2.731-28.041 6.131-39.478L32.747 31h31.975c-.53 2.434-1.67 8.223-2.231 15.296-.66 8.312-.616 20.082 3.105 29.855C61.805 77.679 55.945 79 47 79c-12.705 0-19.549-5.203-21-6.444zm42.099 2.408l.654-7.19 3.034 4.248c-.477.615-1.563 1.756-3.688 2.942z" fill="#000"/><path d="M51 44.764l-.895 1.789c-.241.482-.51.912-.791 1.319-1.365-3.069-3.645-4.627-3.76-4.704l-.554-.37-.555.37c-.114.076-2.395 1.635-3.76 4.704-.281-.407-.55-.837-.791-1.319L39 44.764l-.895 1.789C38.02 46.725 36 50.801 36 54c0 5.634 3.559 9 7 9 .73 0 1.397-.094 2.003-.25.611.156 1.274.25 1.997.25 3.441 0 7-3.366 7-9 0-3.199-2.02-7.275-2.105-7.447L51 44.764zm-5.997.514a10.042 10.042 0 012.838 4.345c-.872.852-1.799 1.531-2.667 2.166l-.174.128-.174-.128c-.869-.634-1.796-1.314-2.667-2.166.715-2.197 2.078-3.663 2.844-4.345zM38 54c0-1.56.615-3.469 1.144-4.823 1.39 1.955 3.083 3.191 4.502 4.228.257.188.509.372.755.557C46.125 55.248 47 56.227 47 58c0 .354-.11 2.15-2.291 2.773-.495.151-1.07.227-1.709.227-2.458 0-5-2.618-5-7zm10.038 6.84A4.839 4.839 0 0049 58c0-2.273-1.064-3.678-2.361-4.805 1.358-.995 2.919-2.191 4.218-4.019C51.386 50.529 52 52.437 52 54c0 3.763-1.876 6.22-3.962 6.84z" fill="#000"/></svg>