<svg width="170" height="42" viewBox="0 0 170 42" fill="none" xmlns="http://www.w3.org/2000/svg"><path d="M28.41 30.307a7.166 7.166 0 00-6.48-2.42 6.997 6.997 0 01-5.984-1.977l-8.044-8.045a1.462 1.462 0 01-.063-2.028 1.631 1.631 0 012.34-.034l7.212 7.213a1.203 1.203 0 001.603.113 1.168 1.168 0 00.085-1.73l-7.217-7.218a1.651 1.651 0 01-.082-2.284 1.607 1.607 0 012.308-.036l7.229 7.23a1.203 1.203 0 001.602.113 1.168 1.168 0 00.086-1.73l-7.282-7.282a1.583 1.583 0 01.071-2.306 1.515 1.515 0 012.064.104l8.004 8.004a6.998 6.998 0 011.977 5.985 7.175 7.175 0 002.42 6.478l.066.056c4.113 3.507 10.536 1.215 11.402-4.122a21.23 21.23 0 00.249-4.408C41.458 9.003 32.39.208 21.397.003A21 21 0 00.004 21.399C.208 32.388 9 41.454 19.977 41.975c1.45.07 2.902-.009 4.334-.235 5.36-.849 7.643-7.325 4.099-11.433zm35.666-4.263H72.7c.43 0 .747.019.952.056.224.019.476.103.756.252.504.261.756.99.756 2.184 0 1.307-.345 2.072-1.036 2.296-.317.112-.803.168-1.456.168H61.584c-1.307 0-2.072-.355-2.296-1.064-.112-.299-.168-.775-.168-1.428V12.94c0-.952.177-1.596.532-1.932.355-.355 1.027-.532 2.016-.532H72.7c.43 0 .747.019.952.056.224.019.476.103.756.252.504.261.756.99.756 2.184 0 1.307-.345 2.072-1.036 2.296-.317.112-.803.168-1.456.168h-8.596v2.828h5.544c.43 0 .747.019.952.056.224.019.476.103.756.252.504.261.756.99.756 2.184 0 1.307-.355 2.072-1.064 2.296-.317.112-.803.168-1.456.168h-5.488v2.828zm22.476-8.232c.111-1.045.849-1.568 2.211-1.568.728 0 1.27.056 1.624.168.355.112.598.308.728.588.15.28.234.532.253.756.037.205.056.523.056.952v9.8c0 .43-.02.756-.056.98a2.32 2.32 0 01-.224.728c-.262.485-.906.728-1.933.728-1.007 0-1.689-.121-2.043-.364-.337-.261-.533-.635-.589-1.12-.69.99-1.847 1.484-3.471 1.484-1.606 0-3.1-.737-4.48-2.212-1.382-1.475-2.073-3.183-2.073-5.124 0-1.96.691-3.668 2.072-5.124 1.4-1.475 2.931-2.212 4.593-2.212.634 0 1.213.112 1.736.336.522.224.886.439 1.091.644.206.187.374.373.505.56zm-5.097 5.824c0 .616.243 1.176.728 1.68a2.402 2.402 0 001.764.728c.691 0 1.26-.252 1.709-.756.466-.504.7-1.055.7-1.652 0-.616-.224-1.185-.672-1.708-.43-.523-1.018-.784-1.764-.784-.728 0-1.326.261-1.793.784-.447.523-.671 1.092-.671 1.708zm20.768-2.436l-1.82-.112v3.864c0 .504.075.868.224 1.092.168.224.467.336.896.336.448 0 .784.019 1.008.056.243.019.495.103.756.252.429.243.644.868.644 1.876 0 1.176-.261 1.895-.784 2.156-.28.13-.532.215-.756.252-.205.019-.513.028-.924.028-1.941 0-3.416-.439-4.424-1.316-1.008-.877-1.512-2.361-1.512-4.452v-4.144a7.372 7.372 0 01-1.148.084 1.33 1.33 0 01-1.036-.476c-.261-.317-.392-.859-.392-1.624 0-.765.047-1.316.14-1.652.094-.355.224-.607.392-.756.299-.243.672-.364 1.12-.364l.924.112v-2.884c0-.43.01-.747.028-.952.038-.205.13-.43.28-.672.243-.467.962-.7 2.156-.7 1.27 0 2.025.345 2.268 1.036.093.299.14.775.14 1.428v2.744a22.192 22.192 0 011.848-.112c.429 0 .747.019.952.056.224.019.476.103.756.252.485.243.728.961.728 2.156 0 1.176-.252 1.895-.756 2.156-.28.13-.532.215-.756.252-.205.019-.523.028-.952.028zm8.966 4.844h8.624c.43 0 .747.019.952.056.224.019.476.103.756.252.504.261.756.99.756 2.184 0 1.307-.345 2.072-1.036 2.296-.317.112-.802.168-1.456.168h-11.088c-1.306 0-2.072-.355-2.296-1.064-.112-.299-.168-.775-.168-1.428V12.94c0-.952.178-1.596.532-1.932.355-.355 1.027-.532 2.016-.532h11.032c.43 0 .747.019.952.056.224.019.476.103.756.252.504.261.756.99.756 2.184 0 1.307-.345 2.072-1.036 2.296-.317.112-.802.168-1.456.168h-8.596v2.828h5.544c.43 0 .747.019.952.056.224.019.476.103.756.252.504.261.756.99.756 2.184 0 1.307-.354 2.072-1.064 2.296-.317.112-.802.168-1.456.168h-5.488v2.828zm22.476-8.232c.112-1.045.849-1.568 2.212-1.568.728 0 1.269.056 1.624.168.354.112.597.308.728.588.149.28.233.532.252.756.037.205.056.523.056.952v9.8c0 .43-.019.756-.056.98-.019.205-.094.448-.224.728-.262.485-.906.728-1.932.728-1.008 0-1.69-.121-2.044-.364-.336-.261-.532-.635-.588-1.12-.691.99-1.848 1.484-3.472 1.484-1.606 0-3.099-.737-4.48-2.212-1.382-1.475-2.072-3.183-2.072-5.124 0-1.96.69-3.668 2.072-5.124 1.4-1.475 2.93-2.212 4.592-2.212.634 0 1.213.112 1.736.336.522.224.886.439 1.092.644.205.187.373.373.504.56zm-5.096 5.824c0 .616.242 1.176.728 1.68a2.401 2.401 0 001.764.728c.69 0 1.26-.252 1.708-.756.466-.504.7-1.055.7-1.652 0-.616-.224-1.185-.672-1.708-.43-.523-1.018-.784-1.764-.784-.728 0-1.326.261-1.792.784-.448.523-.672 1.092-.672 1.708zm12.311 6.048c-.354-.224-.532-.579-.532-1.064 0-.485.355-1.223 1.064-2.212.206-.317.532-.476.98-.476.467 0 1.092.233 1.876.7.784.448 1.494.672 2.128.672 1.139 0 1.708-.224 1.708-.672 0-.355-.625-.616-1.876-.784-1.176-.168-2.342-.607-3.5-1.316-.541-.336-.989-.859-1.344-1.568-.354-.728-.532-1.587-.532-2.576 0-2.95 2.026-4.424 6.076-4.424 1.326 0 2.688.317 4.088.952.654.299.98.672.98 1.12 0 .448-.205.999-.616 1.652-.41.653-.83.98-1.26.98-.224 0-.644-.14-1.26-.42a4.557 4.557 0 00-1.96-.42c-1.101 0-1.652.205-1.652.616 0 .56.635.924 1.904 1.092 1.232.13 2.427.485 3.584 1.064.542.261.99.719 1.344 1.372.374.635.56 1.437.56 2.408 0 .97-.186 1.801-.56 2.492a3.473 3.473 0 01-1.512 1.512c-1.194.579-2.697.868-4.508.868-1.792 0-3.518-.523-5.18-1.568zm26.187-13.272c1.101.485 1.652 1.073 1.652 1.764 0 .336-.075.653-.224.952-.15.299-.224.457-.224.476l-7.336 16.408c-.15.355-.28.625-.392.812a1.565 1.565 0 01-.476.532c-.224.168-.504.252-.84.252-.336 0-.831-.14-1.484-.42-1.102-.485-1.652-1.064-1.652-1.736 0-.448.896-2.585 2.688-6.412l-5.572-9.38c-.374-.616-.56-1.073-.56-1.372 0-.597.504-1.195 1.512-1.792.634-.373 1.129-.56 1.484-.56.354 0 .644.075.868.224.224.15.382.308.476.476.112.15.625 1.017 1.54 2.604a329.05 329.05 0 002.66 4.396c.093-.299.597-1.447 1.512-3.444.914-2.016 1.4-3.09 1.456-3.22.074-.13.186-.29.336-.476.242-.317.578-.476 1.008-.476.448 0 .97.13 1.568.392z" fill="#fff"/></svg>