<svg width="179" height="42" viewBox="0 0 179 42" fill="none" xmlns="http://www.w3.org/2000/svg"><path d="M28.41 30.307a7.165 7.165 0 00-6.48-2.42 6.997 6.997 0 01-5.984-1.977l-8.044-8.045a1.462 1.462 0 01-.062-2.027 1.632 1.632 0 012.34-.034l7.211 7.212a1.202 1.202 0 001.603.113 1.169 1.169 0 00.086-1.73l-7.218-7.218a1.652 1.652 0 01-.082-2.284 1.606 1.606 0 012.308-.035l7.229 7.229a1.203 1.203 0 001.603.113 1.17 1.17 0 00.085-1.73l-7.282-7.282a1.582 1.582 0 01.071-2.306 1.516 1.516 0 012.064.104l8.004 8.004a6.998 6.998 0 011.977 5.985 7.174 7.174 0 002.42 6.478l.066.056c4.114 3.508 10.536 1.215 11.403-4.122a21.23 21.23 0 00.248-4.407C41.46 9.002 32.39.208 21.398.004A21 21 0 00.004 21.398C.208 32.388 9 41.455 19.978 41.975a21.24 21.24 0 004.334-.235c5.358-.848 7.642-7.325 4.098-11.433zm24.653-17.061c0-1.02.296-1.827.89-2.42.593-.593 1.4-.89 2.42-.89h11.742c.166.261.308.605.427 1.032.142.427.213.878.213 1.353 0 .901-.201 1.542-.605 1.921-.38.38-.89.57-1.53.57h-7.508v3.309h8.006c.166.26.309.605.427 1.032.143.403.214.842.214 1.316 0 .902-.19 1.542-.57 1.922-.379.38-.889.569-1.53.569h-6.547v3.736h9.145c.166.261.308.605.427 1.032.142.427.214.878.214 1.352 0 .902-.202 1.554-.605 1.957-.38.38-.89.57-1.53.57h-10.39c-1.02 0-1.827-.297-2.42-.89-.594-.593-.89-1.4-.89-2.42V13.246zm26.433 14.411c.403 0 .842-.036 1.317-.107.498-.095.866-.213 1.103-.356v-2.846l-2.562.213c-.664.048-1.21.19-1.637.427-.427.238-.64.593-.64 1.068 0 .474.177.866.533 1.174.38.285 1.008.427 1.886.427zm-.284-13.984c1.28 0 2.443.13 3.487.391 1.067.261 1.969.664 2.704 1.21a5.152 5.152 0 011.743 2.028c.404.807.605 1.768.605 2.883v7.97c0 .617-.178 1.127-.533 1.53-.332.38-.736.712-1.21.997-1.542.925-3.713 1.387-6.512 1.387-1.257 0-2.396-.118-3.416-.356-.996-.237-1.862-.593-2.597-1.067a5.106 5.106 0 01-1.673-1.815c-.38-.735-.57-1.59-.57-2.562 0-1.637.487-2.894 1.46-3.772.972-.877 2.479-1.423 4.519-1.636l4.661-.499v-.249c0-.688-.308-1.174-.925-1.459-.593-.308-1.459-.462-2.597-.462a12.1 12.1 0 00-2.634.285 13.99 13.99 0 00-2.313.711c-.308-.213-.569-.534-.782-.96a3.208 3.208 0 01-.32-1.388c0-.617.142-1.103.426-1.46.309-.379.771-.699 1.388-.96.688-.26 1.495-.45 2.42-.57a21.585 21.585 0 012.668-.177zM97.5 25.558c0 .616.19 1.055.569 1.316.403.261.96.392 1.672.392.356 0 .724-.024 1.103-.072.38-.07.712-.154.997-.249a3.7 3.7 0 01.533.89c.166.308.249.688.249 1.139 0 .901-.344 1.636-1.032 2.206-.664.57-1.85.854-3.558.854-2.088 0-3.7-.475-4.84-1.424-1.114-.948-1.672-2.49-1.672-4.625v-15.23a10.43 10.43 0 011.103-.214 8.355 8.355 0 011.566-.142c1.044 0 1.85.19 2.42.57.593.355.89 1.126.89 2.312v2.278h4.661c.142.26.273.593.391.996.143.38.214.807.214 1.281 0 .83-.19 1.435-.57 1.815-.355.356-.842.534-1.459.534h-3.238v5.373zm8.66-12.312c0-1.02.297-1.827.89-2.42s1.399-.89 2.419-.89h11.743c.166.261.308.605.427 1.032.142.427.213.878.213 1.353 0 .901-.201 1.542-.605 1.921-.379.38-.889.57-1.53.57h-7.508v3.309h8.006c.166.26.309.605.427 1.032.143.403.214.842.214 1.316 0 .902-.19 1.542-.569 1.922-.38.38-.89.569-1.531.569h-6.547v3.736h9.145c.166.261.308.605.427 1.032.142.427.214.878.214 1.352 0 .902-.202 1.554-.605 1.957-.38.38-.89.57-1.53.57h-10.391c-1.02 0-1.826-.297-2.419-.89s-.89-1.4-.89-2.42V13.246zm26.433 14.411a8.94 8.94 0 001.317-.107c.498-.095.866-.213 1.103-.356v-2.846l-2.562.213c-.664.048-1.21.19-1.637.427-.427.238-.641.593-.641 1.068 0 .474.178.866.534 1.174.38.285 1.008.427 1.886.427zm-.285-13.984c1.281 0 2.444.13 3.488.391 1.067.261 1.969.664 2.704 1.21a5.16 5.16 0 011.744 2.028c.403.807.604 1.768.604 2.883v7.97c0 .617-.177 1.127-.533 1.53-.332.38-.736.712-1.21.997-1.542.925-3.713 1.387-6.512 1.387-1.257 0-2.396-.118-3.416-.356-.996-.237-1.862-.593-2.597-1.067a5.1 5.1 0 01-1.673-1.815c-.379-.735-.569-1.59-.569-2.562 0-1.637.486-2.894 1.459-3.772.972-.877 2.479-1.423 4.519-1.636l4.661-.499v-.249c0-.688-.308-1.174-.925-1.459-.593-.308-1.459-.462-2.598-.462-.901 0-1.779.095-2.633.285-.854.19-1.625.427-2.313.711-.308-.213-.569-.534-.782-.96a3.202 3.202 0 01-.321-1.388c0-.617.143-1.103.427-1.46.309-.379.771-.699 1.388-.96.688-.26 1.495-.45 2.42-.57a21.577 21.577 0 012.668-.177zm26.828 12.667c0 1.803-.676 3.215-2.028 4.235-1.352 1.02-3.345 1.53-5.978 1.53a16.83 16.83 0 01-2.775-.214c-.854-.142-1.59-.355-2.207-.64-.593-.308-1.067-.688-1.423-1.139-.332-.45-.498-.984-.498-1.601 0-.57.119-1.044.356-1.423.237-.404.522-.736.854-.997.688.38 1.471.724 2.348 1.032.902.285 1.934.427 3.096.427.735 0 1.293-.107 1.672-.32.404-.213.605-.498.605-.854a.892.892 0 00-.427-.783c-.284-.19-.759-.344-1.423-.462l-1.067-.214c-2.064-.403-3.606-1.032-4.626-1.886-.997-.877-1.495-2.123-1.495-3.736 0-.878.19-1.673.57-2.384a4.989 4.989 0 011.601-1.78c.688-.474 1.506-.841 2.455-1.102.973-.261 2.04-.392 3.203-.392.877 0 1.696.071 2.455.214.783.118 1.459.308 2.028.569.569.261 1.02.605 1.352 1.032.332.403.498.89.498 1.459 0 .545-.106 1.02-.32 1.423-.19.38-.439.7-.747.96-.19-.118-.475-.236-.854-.355a8.605 8.605 0 00-1.246-.356c-.45-.118-.913-.213-1.387-.284a8.03 8.03 0 00-1.246-.107c-.783 0-1.387.095-1.814.285-.427.166-.641.438-.641.818 0 .26.119.474.356.64.237.167.688.32 1.352.463l1.103.25c2.277.521 3.891 1.244 4.839 2.17.973.901 1.459 2.075 1.459 3.522zm5.108.748c-.261-.593-.546-1.258-.854-1.993a82.138 82.138 0 01-.925-2.526 119.61 119.61 0 01-.997-3.238 156.68 156.68 0 01-1.067-4.235c.332-.332.771-.617 1.317-.854a4.386 4.386 0 011.85-.391c.83 0 1.518.178 2.064.533.545.332.949.973 1.21 1.922l2.811 9.785h.142c.285-.806.557-1.684.818-2.633.285-.949.558-1.921.819-2.918.261-1.02.498-2.028.711-3.024a50.7 50.7 0 00.605-2.99 5.93 5.93 0 012.811-.675c.831 0 1.519.178 2.064.533.546.356.819.973.819 1.85 0 .641-.083 1.388-.249 2.242a29.74 29.74 0 01-.676 2.67 35.65 35.65 0 01-.961 2.953c-.356.996-.736 1.98-1.139 2.953a50.776 50.776 0 01-1.245 2.776 39.24 39.24 0 01-1.246 2.313c-.664 1.162-1.281 2.11-1.85 2.846-.569.736-1.115 1.305-1.637 1.708-.522.427-1.044.712-1.566.854a5.36 5.36 0 01-1.636.25c-.997 0-1.803-.297-2.42-.89s-.985-1.364-1.103-2.313a28.504 28.504 0 002.277-1.993 22.367 22.367 0 002.064-2.206c-.403-.119-.842-.391-1.317-.819-.45-.45-.948-1.28-1.494-2.49z" fill="#000"/></svg>