<svg width="60" height="60" viewBox="0 0 60 60" fill="none" xmlns="http://www.w3.org/2000/svg"><path d="M53.443 11.25h-1.875V5.625a2.816 2.816 0 00-2.812-2.813 2.816 2.816 0 00-2.813 2.813v5.625h-1.875V5.625A4.693 4.693 0 0148.756.937a4.693 4.693 0 014.687 4.688v5.625z" fill="#000"/><path d="M17.813 30a9.375 9.375 0 100-18.75 9.375 9.375 0 100 18.75zm-3.75 3.75h3.75c.517 0 .937.42.937.938v11.25c0 .517-.42.937-.938.937h-3.75V33.75zm25.825-5.342A5.158 5.158 0 0043.613 30h10.274a5.182 5.182 0 005.06-6.26l-2.4-11.204a2.826 2.826 0 00-2.75-2.223H43.703a2.826 2.826 0 00-2.75 2.222l-2.4 11.203a5.141 5.141 0 00.911 4.167c.161.15.304.317.424.503z" fill="#6DCAAB"/><path d="M13.125 4.688H15v1.875h-1.875V4.688zm3.75 0H22.5v1.875h-5.625V4.688zm-2.812 48.75h7.5v1.874h-7.5v-1.874zm2.412-28.748L13 21.213l1.326-1.326 2.15 2.15L22.173 16l1.326 1.326-7.025 7.363z" fill="#000"/><path d="M55.535 31.938c-.958 0-1.859.373-2.537 1.05l-1.052 1.053-.002-.005a2.766 2.766 0 00-2.687-2.099 2.78 2.78 0 00-2.663 2.01l-1.033 3.615h-6.008l-2.45-.61a.632.632 0 01-.293-1.061l3.45-3.452a3.56 3.56 0 001.053-2.538 3.593 3.593 0 00-3.59-3.588 3.57 3.57 0 00-2.538 1.05l-.435.435V5.688A4.693 4.693 0 0030.062 1H5.688A4.693 4.693 0 001 5.688v48.75a4.693 4.693 0 004.688 4.687h24.375a4.693 4.693 0 004.687-4.688V46h5.887a8.37 8.37 0 001.509-.137l8.206-1.491a5.603 5.603 0 002.97-1.558l4.75-4.75a3.557 3.557 0 001.053-2.538 3.593 3.593 0 00-3.59-3.589zm-7.138 2.522a.895.895 0 011.728.03l.274 1.098-1.7 1.7a.936.936 0 01-.664.275h-.525l.887-3.103zM32.875 54.437a2.816 2.816 0 01-2.813 2.813H5.688a2.816 2.816 0 01-2.812-2.813V5.688a2.816 2.816 0 012.813-2.812h24.375a2.816 2.816 0 012.812 2.813v23.986L31 31.55V10.375c0-1.034-.84-1.875-1.875-1.875h-22.5c-1.034 0-1.875.84-1.875 1.875V49.75c0 1.034.84 1.875 1.875 1.875h22.5c1.034 0 1.875-.84 1.875-1.875V46h1.875v8.438zM6.625 34.75h7.5v6.563H16V34.75h1.875V46H16v-2.813h-1.875V46h-7.5V34.75zm0 13.125h11.25c1.034 0 1.875-.84 1.875-1.875h9.375v3.75h-22.5v-1.875zm11.25-15H6.625v-22.5h22.5v23.05l-1.714 1.713c-.355.355-.826.55-1.326.55H19.75v-.938c0-1.034-.84-1.875-1.875-1.875zm38.873 3.863l-4.75 4.75a3.74 3.74 0 01-1.982 1.039l-8.207 1.492c-.384.07-.779.106-1.172.106H19.75v-6.563h6.335c1 0 1.942-.39 2.652-1.098l7.774-7.775a1.716 1.716 0 012.424 2.424l-3.45 3.451a2.49 2.49 0 00-.735 1.773c0 1.152.78 2.153 1.898 2.432l2.562.64 8.825.029c.751 0 1.458-.293 1.99-.825l4.298-4.299a1.716 1.716 0 012.424 2.424z" fill="#000"/></svg>