<svg width="40" height="40" viewBox="0 0 40 40" fill="none" xmlns="http://www.w3.org/2000/svg"><g clip-path="url(#clip0)"><path d="M20.038 40C9.7 40 1.288 31.588 1.288 21.25c0-10.122 8.063-18.396 18.104-18.738V0l7.63 5.087-7.63 5.087V7.688C12.204 8.027 6.46 13.981 6.46 21.251c0 7.485 6.09 13.577 13.577 13.577 7.486 0 13.577-6.092 13.577-13.578v-.646h5.173v.646c0 10.338-8.412 18.75-18.75 18.75z" fill="#6DCAAB"/><path d="M25.21 11.552H14.866c-.713 0-1.293.58-1.293 1.293v1.294c0 .713.58 1.293 1.293 1.293v1.483a5.196 5.196 0 002.965 4.675.448.448 0 01.268.401c0 .17-.103.324-.268.402a5.197 5.197 0 00-2.965 4.676v1.293c-.713 0-1.293.58-1.293 1.294v1.293c0 .713.58 1.293 1.293 1.293H25.21c.714 0 1.293-.58 1.293-1.293v-1.294c0-.713-.58-1.293-1.293-1.293V27.07a5.195 5.195 0 00-2.965-4.675.45.45 0 01-.267-.403c0-.17.102-.322.268-.4a5.197 5.197 0 002.964-4.676v-1.483c.714 0 1.293-.58 1.293-1.293v-1.293c0-.714-.58-1.294-1.293-1.294zm.002 19.397H14.866v-1.294H25.21l.002 1.294zm-1.295-14.034a3.898 3.898 0 01-2.223 3.507 1.749 1.749 0 00-1.01 1.57 1.75 1.75 0 001.01 1.57 3.898 3.898 0 012.223 3.507v1.293H16.16V27.07c0-1.492.873-2.868 2.223-3.507a1.75 1.75 0 001.01-1.57 1.75 1.75 0 00-1.009-1.571 3.897 3.897 0 01-2.224-3.507v-1.482h7.758v1.483zm-9.051-2.776v-1.293H25.21l.002 1.293H14.866zm18.118 2.973l1.249-.334.334 1.248-1.248.335-.335-1.249zm-1.51-3.209l1.12-.647.646 1.12-1.12.647-.646-1.12zm-2.292-2.711l.914-.914.914.914-.914.915-.914-.915zm-2.915-2.024l.646-1.12 1.12.646-.647 1.12-1.12-.646zm10.766 8.042l1.267-.252.252 1.268-1.267.252-.252-1.268zm-1.116-3.236l1.196-.495.494 1.195-1.195.495-.495-1.195zm-1.725-2.96l1.075-.718.718 1.075-1.075.718-.718-1.075zM31.924 8.45l.915-.915.914.915-.914.914-.915-.914zm-2.726-2.074l.72-1.075 1.073.719-.718 1.075-1.075-.719z" fill="#000"/></g><defs><clipPath id="clip0"><path fill="#fff" d="M0 0h40v40H0z"/></clipPath></defs></svg>