<svg width="50" height="50" viewBox="0 0 50 50" fill="none" xmlns="http://www.w3.org/2000/svg"><path d="M10.446 29.511c.1 1.089.024 4.048-2.811 8.164a.78.78 0 00.09.995c1.156 1.156 1.872 1.886 2.374 2.396.66.673.961.98 1.402 1.38a.785.785 0 001.038.01c4.941-4.3 10.43-13.186 9.636-24.071-.466-6.392-5.128-11.032-11.086-11.032C4.975 7.353.001 12.327.001 18.441c0 5.898 4.629 10.735 10.445 11.07zm27.747 0c.1 1.086.026 4.043-2.812 8.164a.782.782 0 00.09.995 296.842 296.842 0 012.37 2.393c.663.674.965.982 1.406 1.382a.785.785 0 001.037.01c4.942-4.3 10.431-13.183 9.639-24.07-.467-6.392-5.13-11.032-11.088-11.032-6.114 0-11.089 4.974-11.089 11.088 0 5.899 4.63 10.737 10.447 11.07z" fill="#6DCAAB"/></svg>